<?xml version='1.0' encoding='UTF-8'?>
<!DOCTYPE svg PUBLIC "-//W3C//DTD SVG 1.0//EN" "http://www.w3.org/TR/2001/REC-SVG-20010904/DTD/svg10.dtd ">
<svg height="480" viewBox="0 0 640 480" width="640" xmlns:xlink="http://www.w3.org/1999/xlink" xmlns="http://www.w3.org/2000/svg" >
	<defs>
		<style type="text/css">
			<![CDATA[
				.data {
					fill: none;
					stroke: black;
					stroke-linecap: round;
					stroke-width: 1.5;
				}
				[id~="C33P1thinF_IMG_20150619_114756a_cell_179"] {
					fill: none;
					stroke: rgb(0,0,0);
				}
				[id~="C33P1thinF_IMG_20150619_114756a_cell_180"] {
					fill: none;
					stroke: rgb(85,5,233);
				}
				[id~="C33P1thinF_IMG_20150619_114756a_cell_181"] {
					fill: none;
					stroke: rgb(239,64,21);
				}
				[id~="C33P1thinF_IMG_20150619_114756a_cell_182"] {
					fill: none;
					stroke: rgb(255,150,0);
				}
				line.axis {
					stroke: dimgrey;
					stroke-width: 0.75;
				}
				line.colorbar.tic {
					stroke: black;
					stroke-linecap: butt;
					stroke-width: 0.5;
				}
				line.scalebar {
					stroke: black;
					stroke-width: 0.75;
				}
				line.tic {
					stroke-linecap: round;
				}
				path.data.contour {
					fill: none;
					stroke-width: 2.5;
				}
				rect.colorbar {
					fill: none;
					stroke: black;
					stroke-width: 0.5;
				}
				rect.plot {
					fill: none;
					stroke: none;
				}
				text {
					font-family: Times;
				}
				text.axis {
					fill: dimgrey;
				}
				text.colorbar.label {
					fill: black;
				}
				text.label {
					font-weight: normal;
				}
				text.title {
					font-weight: bold;
				}
			]]>
		</style>
	</defs>
	<g id="contours" class="layer">
		<path d="M 473.88641 226.22979 C470.10212,221.67669 461.69113,219.6993 460.70369,215.91945 C459.71625,212.13959 466.15236,206.55726 468.21581,201.0563 C470.27927,195.55533 467.97008,190.13574 467.94228,184.21299 C467.91449,178.29024 470.16809,171.86434 468.35292,167.47764 C466.53776,163.09094 460.65382,160.74345 454.9566,157.33509 C449.25938,153.92674 443.74887,149.45752 444.58519,144.21472 C445.42152,138.97192 452.60468,132.95552 452.06822,129.29776 C451.53175,125.64 443.27566,124.34088 437.12936,121.93623 C430.98306,119.53158 426.94655,116.0214 424.0888,111.24367 C421.23106,106.46593 419.55209,100.42062 415.48815,96.864878 C411.42422,93.309133 404.9753,92.242949 400.7401,88.87119 C396.50489,85.499431 394.48338,79.822098 391.30684,74.975394 C388.1303,70.128691 383.79873,66.112618 378.30076,64.385481 C372.80279,62.658344 366.13843,63.220144 362.1639,59.848946 C358.18936,56.477748 356.90467,49.173553 352.93266,45.890931 C348.96066,42.608309 342.30135,43.34726 336.31569,44.026634 C330.33004,44.706008 325.01805,45.325804 319.49954,45.121235 C313.98103,44.916666 308.256,43.887732 303.07507,41.808545 C297.89413,39.729359 293.25729,36.599922 288.21277,33.926469 C283.16825,31.253017 277.71606,29.035549 272.19408,29.065667 C266.6721,29.095785 261.08033,31.373489 255.41041,29.887108 C249.74049,28.400727 243.99242,23.150261 239.76289,24.094225 C235.53336,25.038189 232.82238,32.176582 228.81293,36.672587 C224.80347,41.168593 219.49554,43.02221 214.13957,44.86277 C208.7836,46.703331 203.37958,48.530833 198.80298,51.610916 C194.22638,54.690999 190.4772,59.023663 186.47068,62.985045 C182.46415,66.946428 178.20028,70.53653 174.69338,74.907737 C171.18648,79.278945 168.43655,84.431258 163.38753,87.29518 C158.33851,90.159102 150.99039,90.734633 148.37513,94.526943 C145.75987,98.319253 147.87746,105.32834 146.9628,111.1389 C146.04813,116.94945 142.10121,121.56147 141.00048,126.78986 C139.89974,132.01826 141.64519,137.86303 141.45586,143.48541 C141.26654,149.10778 139.14245,154.50776 135.9531,159.26872 C132.76375,164.02968 128.50915,168.15164 126.6726,173.14259 C124.83605,178.13355 125.41754,183.99351 125.78422,189.72187 C126.51757,201.17857 126.39164,212.10883 126.1764,223.17172 C125.96116,234.2346 125.6566,245.43011 126.08432,256.57937 C126.29818,262.154 126.69512,267.71707 126.55032,273.23179 C126.26071,284.26124 123.80415,295.09731 125.66467,306.52485 C126.59494,312.23862 128.60447,318.10025 133.58292,321.05823 C138.56136,324.01621 146.50872,324.07054 148.66878,327.82552 C150.82884,331.58049 147.2016,339.03612 148.25233,344.30351 C149.30306,349.5709 155.03176,352.65004 159.73345,356.21264 C164.43514,359.77524 168.10982,363.8213 171.88068,367.76212 C179.42239,375.64375 187.34884,383.10443 194.97827,391.61782 C198.79299,395.87452 202.53345,400.39439 207.75287,401.96112 C212.97229,403.52785 219.67067,402.14143 224.10796,405.03975 C228.54524,407.93807 230.72142,415.12112 235.37083,417.08984 C240.02023,419.05857 247.14285,415.81296 251.84334,417.68133 C256.54384,419.5497 258.82221,426.53204 263.09402,429.7462 C267.36584,432.96035 273.63109,432.4063 279.44591,432.05281 C285.26074,431.69932 290.62512,431.54639 296.03888,431.51917 C301.45264,431.49195 306.91577,431.59042 312.56396,432.00308 C318.21215,432.41574 324.0454,433.14258 329.10283,431.03925 C334.16026,428.93591 338.44187,424.0024 340.01804,418.66146 C341.5942,413.32053 340.46492,407.57218 339.68847,402.15926 C338.91202,396.74634 338.48841,391.66886 339.36641,385.5372 C340.24441,379.40554 342.42401,372.21969 346.89269,370.97009 C351.36136,369.7205 358.1191,374.40715 363.07886,373.64205 C368.03861,372.87695 371.20037,366.66009 375.8008,363.23003 C380.40123,359.79997 386.44032,359.15671 390.54269,355.83912 C394.64506,352.52153 396.8107,346.5296 400.92001,343.10333 C405.02932,339.67706 411.0823,338.81644 415.84194,336.19987 C420.60157,333.58329 424.06786,329.21076 428.10914,325.19407 C432.15042,321.17737 436.76669,317.51652 438.57159,312.48748 C440.3765,307.45844 439.37004,301.06122 441.47024,296.32828 C443.57044,291.59533 448.7773,288.52666 452.96583,284.56659 C457.15436,280.60651 460.32456,275.75504 460.80192,270.11293 C461.27927,264.47083 459.06378,258.03809 461.14563,253.72759 C463.22747,249.41708 469.60667,247.22881 473.21747,242.57027 C476.82828,237.91172 477.67069,230.78289 473.88641,226.22979 z" id="C33P1thinF_IMG_20150619_114756a_cell_179" class="data contour"/>
		<path d="M 435.96615 204.08153 C433.49289,194.33566 428.22064,185.80279 422.98297,177.41082 C420.36413,173.21484 417.75394,169.05408 416.03002,164.37403 C414.3061,159.69399 413.46845,154.49465 410.7471,150.47556 C408.02575,146.45647 403.42071,143.61763 400.64629,139.61072 C397.87187,135.60381 396.92807,130.42883 394.68786,126.00895 C392.44766,121.58908 388.91105,117.92431 385.0856,114.70529 C381.26014,111.48627 377.14583,108.713 373.45981,105.46085 C366.08777,98.956555 360.42888,90.536736 353.40889,83.5426 C346.3889,76.548464 338.0078,70.980009 329.0672,66.674357 C324.59689,64.52153 319.98672,62.684404 315.83884,59.89966 C311.69096,57.114916 308.00537,53.382553 303.54963,51.555863 C299.09389,49.729173 293.86799,49.808155 288.77888,50.124036 C278.60068,50.755799 268.96967,52.335157 259.05626,52.257823 C254.09955,52.219155 249.07224,51.766315 244.09555,51.883567 C239.11887,52.000819 234.19281,52.688162 229.20821,52.445538 C224.22362,52.202914 219.18048,51.030322 214.29523,51.62235 C209.40997,52.214377 204.68258,54.571024 200.55281,57.471216 C196.42305,60.371407 192.8909,63.815142 189.17375,67.180531 C185.4566,70.545919 181.55446,73.832961 178.61784,77.797651 C175.68123,81.762341 173.71015,86.404678 171.56098,91.022059 C169.4118,95.639439 167.08453,100.23186 163.17893,103.47007 C159.27333,106.70828 153.78941,108.59228 151.07771,112.37992 C148.36601,116.16756 148.42653,121.85884 147.38131,126.96847 C146.33609,132.07809 144.18512,136.60607 141.82173,140.97353 C139.45834,145.341 136.88253,149.54796 133.78266,153.73271 C130.68279,157.91745 127.05887,162.07998 126.52311,166.96139 C125.98734,171.84281 128.53974,177.4431 126.4539,182.06585 C124.36806,186.6886 117.64399,190.3338 117.72865,194.40156 C117.81332,198.46932 124.70673,202.95964 125.53106,207.346 C126.3554,211.73236 121.11067,216.01475 118.80276,220.8884 C116.49485,225.76206 117.12376,231.22696 118.60322,236.01386 C120.08268,240.80076 122.41268,244.90965 126.17943,249.11113 C129.94618,253.31261 135.14969,257.60669 134.25318,261.90206 C133.35667,266.19743 126.36015,270.49408 125.94495,274.48962 C125.52975,278.48516 131.69588,282.17958 135.25509,286.41231 C138.8143,290.64504 139.76659,295.41607 141.70659,299.96235 C145.58658,309.05491 153.41737,317.24847 154.76742,327.02562 C155.44245,331.91419 154.49728,337.19866 155.563,342.36186 C156.62871,347.52506 159.70529,352.56699 164.35727,354.61176 C169.00926,356.65652 175.23663,355.70412 178.96765,358.27415 C182.69868,360.84418 183.93335,366.93664 187.4207,370.7546 C190.90806,374.57255 196.64811,376.11599 199.32897,379.97734 C202.00984,383.83869 201.63151,390.01795 204.04074,394.26929 C206.44996,398.52064 211.64672,400.84408 216.92252,402.01806 C222.19831,403.19204 227.55314,403.21656 231.47116,405.75309 C235.38918,408.28963 237.87039,413.33818 241.58582,416.82061 C245.30125,420.30304 250.2509,422.21935 255.24176,422.95611 C260.23262,423.69288 265.26468,423.2501 270.16005,423.94592 C275.05541,424.64174 279.81407,426.47614 284.80955,426.9374 C289.80502,427.39866 295.03731,426.48678 299.59125,424.59189 C304.14519,422.697 308.02077,419.81911 312.59026,417.13839 C317.15975,414.45767 322.42313,411.97411 323.6269,406.96115 C324.83066,401.94819 321.9748,394.40582 324.10377,391.91614 C326.23275,389.42646 333.34656,391.98946 339.14376,392.90117 C344.94097,393.81289 349.42156,393.07332 354.21159,393.47985 C359.00162,393.88638 364.10107,395.43901 369.24536,394.708 C374.38966,393.97699 379.57878,390.96234 381.85641,386.40402 C384.13404,381.84571 383.50016,375.74373 386.24526,371.92934 C388.99036,368.11495 395.11444,366.58814 398.44393,362.92458 C401.77343,359.26102 402.30835,353.46071 404.85875,349.13616 C407.40914,344.81161 411.97501,341.96283 415.36784,338.06649 C418.76067,334.17014 420.98046,329.22623 421.55928,324.04934 C422.13811,318.87244 421.07597,313.46257 422.6258,308.67822 C424.17562,303.89387 428.3374,299.73504 429.3432,294.77013 C430.34901,289.80522 428.19884,284.03423 429.58409,279.2746 C430.96934,274.51497 435.89002,270.76671 437.77122,266.09049 C439.65243,261.41428 438.49416,255.81011 437.99189,250.5155 C437.48962,245.22088 437.64334,240.23582 437.80011,235.08597 C438.11366,224.78627 438.4394,213.8274 435.96615,204.08153" id="C33P1thinF_IMG_20150619_114756a_cell_180" class="data contour"/>
		<path d="M 466.99536 188.77339 C467.68208,184.122 464.7942,179.11926 460.9425,175.30948 C457.09081,171.49969 452.2753,168.88285 450.34932,164.99369 C448.42334,161.10453 449.3869,155.94305 449.3561,150.19452 C449.3253,144.44599 448.30015,138.11041 444.58864,136.27185 C440.87714,134.43329 434.47927,137.09175 429.84022,135.52182 C425.20116,133.95189 422.32091,128.15356 418.02938,126.66934 C413.73786,125.18512 408.03505,128.015 403.24347,127.4839 C398.45189,126.9528 394.57153,123.06072 390.49989,119.94657 C382.35661,113.71826 373.4482,110.60166 365.19419,104.4484 C361.06718,101.37177 357.10376,97.535982 352.42989,96.906139 C347.75602,96.276296 342.37168,98.852403 337.69985,98.266176 C333.02802,97.679949 329.06869,93.931389 325.09387,90.376638 C321.11906,86.821888 317.12875,83.460948 312.52864,82.372447 C307.92854,81.283945 302.71863,82.467883 297.61104,82.482619 C292.50345,82.497356 287.49818,81.342892 282.68575,81.974724 C277.87331,82.606557 273.25372,85.024686 268.44824,86.503053 C263.64276,87.981421 258.6514,88.520027 253.77558,89.531727 C248.89976,90.543427 244.13948,92.028222 239.22798,93.155117 C234.31647,94.282012 229.25374,95.051009 224.73151,97.043577 C220.20928,99.036145 216.22756,102.25229 212.08298,105.13824 C207.9384,108.02419 203.63097,110.57996 198.97201,112.48967 C194.31306,114.39939 189.30259,115.66305 185.1027,118.3006 C180.9028,120.93815 177.51348,124.94958 173.43073,127.78394 C169.34799,130.61829 164.57182,132.27557 160.03033,134.69673 C155.48885,137.11789 151.18205,140.30292 148.65697,144.53464 C146.13189,148.76636 145.38853,154.04477 142.48374,158.30359 C139.57895,162.56241 134.51273,165.80165 133.38732,170.2857 C132.26191,174.76975 135.0773,180.49862 134.20139,185.30524 C133.32547,190.11186 128.75824,193.99625 127.24645,198.67892 C125.73466,203.3616 127.27831,208.84257 126.20502,213.70639 C125.13174,218.57021 121.44153,222.81689 119.84831,227.48462 C118.25509,232.15235 118.75886,237.24115 118.78616,242.37202 C118.84075,252.63376 116.98945,263.06381 120.61581,272.46705 C122.42898,277.16867 125.61158,281.61358 126.20704,286.53984 C126.80251,291.4661 124.81085,296.87369 125.77101,301.54826 C126.73118,306.22283 130.64317,310.16436 133.74345,314.3325 C136.84372,318.50064 139.13227,322.89539 140.86525,327.64005 C142.59822,332.38472 143.77562,337.4793 146.46001,341.63296 C149.14439,345.78662 153.33577,348.99936 156.43215,352.93861 C159.52852,356.87786 161.52989,361.54363 163.98696,365.96728 C168.90109,374.81458 175.63801,382.69339 184.79203,387.04139 C189.36903,389.21539 194.55031,390.50669 198.37093,393.72242 C202.19155,396.93816 204.65151,402.07833 208.70759,404.55918 C212.76366,407.04004 218.41585,406.86157 223.10153,408.79364 C227.78721,410.72571 231.50639,414.76831 236.03497,416.38491 C240.56356,418.0015 245.90157,417.19209 251.00587,416.80276 C256.11017,416.41342 260.98076,416.44417 266.02285,416.38306 C271.06493,416.32195 276.27851,416.16899 280.97155,417.37117 C285.66459,418.57336 289.83711,421.1307 294.22409,424.46794 C298.61107,427.80518 303.21253,431.92232 307.4987,431.30839 C311.78487,430.69445 315.75574,425.34944 320.52672,423.98461 C325.29769,422.61979 330.86876,425.23515 335.499,423.86316 C340.12924,422.49118 343.81864,417.13184 348.1463,415.93512 C352.47396,414.73841 357.43989,417.70432 362.89146,418.66575 C368.34302,419.62718 374.28021,418.58413 377.36392,414.93269 C380.44763,411.28125 380.67786,405.02141 383.50805,401.24296 C386.33824,397.46451 391.76839,396.16745 396.58015,393.88118 C401.39192,391.5949 405.58531,388.31941 407.79612,383.89557 C410.00693,379.47173 410.23516,373.89954 412.68835,369.67488 C415.14154,365.45022 419.81968,362.57309 422.86058,358.58671 C425.90148,354.60033 427.30513,349.50471 430.21445,345.41777 C433.12378,341.33083 437.53879,338.25257 440.20839,334.12055 C442.87798,329.98852 443.80215,324.80273 446.16496,320.22332 C448.52776,315.64391 452.32919,311.67088 453.30449,306.89482 C454.27979,302.11877 452.42898,296.53968 453.68669,291.78427 C454.94441,287.02887 459.31067,283.09715 460.88361,278.46853 C462.45656,273.83991 461.23619,268.5144 460.61194,263.33116 C459.98769,258.14793 459.95955,253.10697 460.11838,248.07391 C460.43603,238.00777 461.50154,227.9732 460.44061,217.65131 C459.91014,212.49036 458.84807,207.25759 460.4477,202.49119 C462.04732,197.72479 466.30864,193.42477 466.99536,188.77339 z" id="C33P1thinF_IMG_20150619_114756a_cell_181" class="data contour"/>
		<path d="M 511.86264 158.44525 C511.9532,153.49951 507.23528,148.58865 504.38994,143.38821 C501.54461,138.18777 500.57185,132.69775 498.59381,127.53186 C496.61576,122.36597 493.63243,117.52421 490.73309,112.62598 C487.83376,107.72776 485.01843,102.77305 481.26152,98.671321 C477.50461,94.569588 472.80612,91.320824 468.90759,87.194683 C465.00906,83.068542 461.91048,78.065025 457.53954,74.75095 C453.1686,71.436875 447.5253,69.812242 442.32582,67.495465 C437.12635,65.178688 432.3707,62.169767 427.37491,59.674338 C422.37912,57.17891 417.14317,55.196973 412.21577,52.228356 C407.28837,49.259738 402.66953,45.304439 397.44481,44.134599 C392.22009,42.964759 386.38951,44.580377 380.59619,44.702977 C374.80288,44.825578 369.04683,43.45516 363.70949,44.361826 C358.37215,45.268491 353.45352,48.45224 348.68294,52.014829 C343.91235,55.577418 339.28981,59.518846 333.92871,60.190246 C328.56762,60.861647 322.46797,58.263019 317.12969,58.994325 C311.79141,59.725631 307.2145,63.78687 302.40375,67.189472 C297.593,70.592074 292.54841,73.336039 287.13553,74.373389 C281.72264,75.410739 275.94147,74.741473 270.28212,74.693659 C264.62276,74.645844 259.08523,75.219481 253.4056,74.877157 C247.72598,74.534833 241.90428,73.276548 236.61714,74.347252 C231.33001,75.417955 226.57744,78.817647 221.32827,81.424646 C216.0791,84.031646 210.33333,85.845954 206.92842,90.06564 C203.5235,94.285326 202.45944,100.91039 198.4117,104.46466 C194.36395,108.01892 187.33251,108.50239 183.54389,112.10706 C179.75527,115.71173 179.20946,122.4376 176.40357,127.19617 C173.59768,131.95474 168.53171,134.746 164.25626,138.77259 C159.98082,142.79918 156.49591,148.0611 156.13682,153.39396 C155.77772,158.72683 158.54445,164.13064 162.36747,168.96149 C166.1905,173.79235 171.06983,178.05024 171.53711,182.9044 C172.00439,187.75856 168.05963,193.209 164.30739,197.88931 C160.55516,202.56963 156.99545,206.47983 153.00291,210.25362 C149.01037,214.0274 144.585,217.66477 141.37425,222.09972 C138.1635,226.53467 136.16737,231.76721 133.35791,236.69752 C130.54844,241.62784 126.92566,246.25593 126.01515,251.57071 C125.10463,256.88549 126.9064,262.88696 125.7632,268.09116 C124.62,273.29535 120.53184,277.70228 118.40656,282.92172 C116.28129,288.14117 116.11891,294.17313 118.1908,299.3529 C120.26268,304.53266 124.56884,308.86022 125.66239,314.03215 C126.75594,319.20409 124.63688,325.2204 125.62868,330.38846 C126.62049,335.55652 130.72316,339.87632 133.60177,344.67679 C136.48037,349.47725 138.13492,354.75838 141.03062,359.27123 C143.92632,363.78408 148.06319,367.52866 152.08341,371.26003 C156.10363,374.9914 160.0072,378.70956 163.70435,382.71947 C167.40149,386.72938 170.8922,391.03103 175.19651,394.23956 C179.50081,397.4481 184.61871,399.56351 189.56081,401.80825 C194.50292,404.05299 199.26923,406.42707 204.00223,409.22364 C208.73522,412.02022 213.43489,415.23929 218.68565,415.99004 C223.93641,416.74079 229.73827,415.02321 234.79544,416.18168 C239.85261,417.34015 244.1651,421.37466 249.14942,423.66001 C254.13374,425.94537 259.78989,426.48157 265.03842,425.62044 C275.53546,423.89816 284.40195,416.58652 294.29848,412.30184 C299.24674,410.1595 304.4525,408.77391 309.8868,408.92596 C315.3211,409.07801 320.98393,410.76771 325.85554,409.47873 C330.72716,408.18974 334.80756,403.92207 338.42697,399.70165 C342.04639,395.48122 345.20482,391.30804 349.06376,387.72254 C352.92269,384.13705 357.48213,381.13925 361.13129,377.3049 C364.78045,373.47054 367.51934,368.79962 370.08575,364.09497 C372.65215,359.39032 375.04607,354.65194 377.59788,350.00315 C382.70149,340.70557 388.43663,331.76633 392.77184,321.96923 C394.93944,317.07069 396.75707,311.95767 400.19319,307.91574 C403.62931,303.8738 408.68392,300.90295 410.81671,296.10284 C412.9495,291.30273 412.16048,284.67338 414.89072,280.8108 C417.62095,276.94823 423.87045,275.85244 428.98855,273.61879 C434.10666,271.38514 438.09336,268.01362 442.76125,265.56228 C447.42913,263.11093 452.7782,261.57975 456.86732,258.29577 C460.95645,255.01178 463.78564,249.97499 468.16135,247.13028 C472.53706,244.28557 478.4593,243.63294 482.71236,240.7863 C486.96543,237.93966 489.54933,232.899 493.25346,228.98863 C496.95759,225.07826 501.78194,222.29817 505.36453,218.45184 C512.52971,210.75917 514.72782,198.80151 510.84291,188.32547 C508.90046,183.08745 505.43726,178.21983 506.15517,173.29572 C506.87307,168.3716 511.77209,163.39098 511.86264,158.44525 z" id="C33P1thinF_IMG_20150619_114756a_cell_182" class="data contour"/>
	</g>
	<g id="scale bar" class="layer">
		<g id="scalebar lines">
			<line id="scalebar" class="scalebar" x1="30" x2="80.286431" y1="480" y2="480"/>
			<line id="scalebar left tic" class="scalebar tic" x1="30" x2="30" y1="478.5" y2="481.5"/>
			<line id="scalebar right tic" class="scalebar tic" x1="80.286431" x2="80.286431" y1="478.5" y2="481.5"/>
		</g>
		<text font-size="12" class="scalebar label" text-anchor="middle" x="55.143216" y="493.5">20 pixels</text>
	</g>
</svg>
