<?xml version='1.0' encoding='UTF-8'?>
<!DOCTYPE svg PUBLIC "-//W3C//DTD SVG 1.0//EN" "http://www.w3.org/TR/2001/REC-SVG-20010904/DTD/svg10.dtd ">
<svg height="480" viewBox="0 0 640 480" width="640" xmlns:xlink="http://www.w3.org/1999/xlink" xmlns="http://www.w3.org/2000/svg" >
	<defs>
		<style type="text/css">
			<![CDATA[
				.data {
					fill: none;
					stroke: black;
					stroke-linecap: round;
					stroke-width: 1.5;
				}
				[id~="C33P1thinF_IMG_20150619_114756a_cell_179"] {
					fill: none;
					stroke: rgb(0,0,0);
				}
				[id~="C33P1thinF_IMG_20150619_114756a_cell_180"] {
					fill: none;
					stroke: rgb(85,5,233);
				}
				[id~="C33P1thinF_IMG_20150619_114756a_cell_181"] {
					fill: none;
					stroke: rgb(239,64,21);
				}
				[id~="C33P1thinF_IMG_20150619_114756a_cell_182"] {
					fill: none;
					stroke: rgb(255,150,0);
				}
				line.axis {
					stroke: dimgrey;
					stroke-width: 0.75;
				}
				line.colorbar.tic {
					stroke: black;
					stroke-linecap: butt;
					stroke-width: 0.5;
				}
				line.scalebar {
					stroke: black;
					stroke-width: 0.75;
				}
				line.tic {
					stroke-linecap: round;
				}
				path.data.contour {
					fill: none;
					stroke-width: 2.5;
				}
				rect.colorbar {
					fill: none;
					stroke: black;
					stroke-width: 0.5;
				}
				rect.plot {
					fill: none;
					stroke: none;
				}
				text {
					font-family: Times;
				}
				text.axis {
					fill: dimgrey;
				}
				text.colorbar.label {
					fill: black;
				}
				text.label {
					font-weight: normal;
				}
				text.title {
					font-weight: bold;
				}
			]]>
		</style>
	</defs>
	<g id="contours" class="layer">
		<path d="M 472.88941 226.74714 C471.38848,225.91549 467.93481,227.12865 466.89493,225.98719 C465.85505,224.84572 467.22897,221.34964 466.23178,219.89263 C465.73319,219.16412 464.64183,218.94538 463.54833,219.02075 C462.45484,219.09613 461.35922,219.46562 460.48982,219.10971 C459.62041,218.75381 458.97721,217.67251 458.83504,216.67675 C458.69286,215.68099 459.05171,214.77075 459.11573,213.76281 C459.24378,211.74692 458.19252,209.34018 459.21006,207.78784 C459.71882,207.01167 460.74478,206.4491 461.81528,206.42094 C462.88577,206.39278 464.0008,206.89902 464.8601,206.63447 C465.71941,206.36991 466.32299,205.33456 466.56209,204.30706 C466.80119,203.27957 466.67581,202.25994 466.59421,201.25286 C466.43102,199.2387 466.44297,197.27472 466.45683,195.29214 C466.51231,187.36182 466.5985,179.13384 466.45352,171.32501 C466.41728,169.3728 466.36658,167.4468 466.53025,165.28168 C466.69392,163.11656 467.07196,160.71233 465.73837,159.62601 C465.07158,159.08285 463.97688,158.86916 462.92032,158.84851 C461.86375,158.82786 460.84532,159.00024 459.85131,159.02108 C458.8573,159.04192 457.8877,158.91123 456.89651,158.97193 C455.90531,159.03263 454.8925,159.28474 453.85417,159.11265 C452.81584,158.94056 451.75199,158.34428 451.42452,157.50787 C451.09705,156.67146 451.50598,155.59493 451.56022,154.47556 C451.61446,153.3562 451.31402,152.19399 450.59659,151.70063 C449.87917,151.20727 448.74474,151.38275 447.58195,151.49789 C446.41915,151.61303 445.22798,151.66783 444.61842,151.09102 C444.00886,150.51422 443.98093,149.30581 443.95798,148.22117 C443.91208,146.05191 443.88614,144.37774 443.93317,142.21349 C443.95668,141.13136 443.99844,139.92671 444.61388,139.34999 C445.22932,138.77327 446.41844,138.82448 447.58311,138.94357 C448.74779,139.06267 449.88802,139.24966 450.56943,138.75068 C451.25085,138.2517 451.47345,137.06675 451.55254,136.00619 C451.63163,134.94563 451.5672,134.00946 451.5585,132.96016 C451.54979,131.91085 451.59679,130.74842 451.17934,130.01311 C450.34444,128.54249 447.65174,128.78039 445.53793,128.90721 C443.42413,129.03402 441.88923,129.04975 439.71783,128.97474 C438.63213,128.93723 437.3873,128.87704 436.80577,128.25605 C436.22424,127.63507 436.306,126.45329 436.43165,125.29606 C436.5573,124.13884 436.72684,123.00616 436.23357,122.29825 C435.74031,121.59034 434.58425,121.30719 433.46929,121.35771 C432.35433,121.40824 431.28047,121.79243 430.43646,121.46242 C429.59244,121.13241 428.97826,120.0882 428.88052,119.04793 C428.78278,118.00765 429.20148,116.97132 429.02562,115.99221 C428.84976,115.0131 428.07935,114.0912 427.14488,113.84187 C426.21042,113.59254 425.1119,114.01577 424.06566,114.02115 C423.01941,114.02653 422.02544,113.61406 421.59803,112.81158 C420.74321,111.20662 422.15462,108.04159 420.94704,106.92213 C420.34325,106.36239 419.08471,106.31405 417.8793,106.41612 C416.67388,106.51818 415.52159,106.77065 414.86774,106.28335 C414.21389,105.79605 414.05849,104.56899 413.9553,103.49312 C413.74892,101.34139 413.75139,99.794426 413.93942,97.68804 C414.12744,95.581654 414.50103,92.915841 413.14041,91.935736 C412.46011,91.445683 411.34625,91.377058 410.29414,91.326871 C409.24203,91.276684 408.25166,91.244936 407.26379,91.298233 C405.28804,91.404826 403.32227,91.851597 401.29749,91.395176 C400.2851,91.166966 399.25796,90.712958 398.88305,89.903412 C398.50814,89.093866 398.78546,87.928782 398.89912,86.866946 C399.12644,84.743274 398.6991,83.032593 398.91962,80.912898 C399.02989,79.853051 399.30212,78.69095 398.93282,77.877957 C398.56353,77.064964 397.55271,76.601078 396.53744,76.374334 C394.50688,75.920846 392.45847,76.415923 390.55924,76.477067 C389.60963,76.507639 388.69731,76.429728 387.58148,76.419764 C386.46565,76.409801 385.14631,76.467784 384.49773,75.968953 C383.20059,74.971289 384.58654,71.746364 383.76574,70.110464 C383.35533,69.292514 382.39324,68.871821 381.35878,68.832557 C380.32431,68.793294 379.21748,69.13546 378.25089,68.872704 C377.28431,68.609947 376.45797,67.742267 376.29212,66.779052 C376.12627,65.815838 376.62091,64.757089 376.5034,63.74788 C376.38589,62.738671 375.65624,61.779002 374.77215,61.390024 C373.88806,61.001047 372.84953,61.182762 371.8233,61.288378 C368.74461,61.605227 365.77665,61.237187 362.83518,61.308933 C360.8742,61.356763 358.925,61.600054 356.78707,61.371878 C355.7181,61.25779 354.60195,61.025835 354.11042,60.31201 C353.6189,59.598185 353.752,58.40249 353.79974,57.322511 C353.89521,55.162553 353.64922,53.465456 353.90159,51.345019 C354.02778,50.2848 354.27855,49.118746 353.96051,48.246129 C353.64247,47.373513 352.75561,46.794334 351.8165,46.46979 C349.93828,45.820703 347.85104,46.190157 345.82478,46.344621 C343.79853,46.499085 341.83325,46.43856 339.84739,46.392754 C335.87566,46.301141 331.82157,46.268402 327.81195,46.291285 C319.79272,46.33705 311.95141,46.605305 303.71992,46.135179 C302.69098,46.076413 301.65595,46.00611 301.30471,45.268289 C300.95347,44.530468 301.28602,43.125128 301.32626,41.901444 C301.36649,40.67776 301.11442,39.635732 300.40581,39.1582 C299.6972,38.680669 298.53204,38.767634 297.45165,38.793883 C295.29088,38.84638 293.46919,38.65601 291.46792,38.863995 C290.46729,38.967987 289.42176,39.171569 288.40632,38.923513 C287.39089,38.675457 286.40554,37.975763 286.16451,37.084281 C285.92348,36.192799 286.42676,35.109527 286.38572,34.058344 C286.34467,33.007161 285.7593,31.988065 284.94771,31.515563 C284.13613,31.043062 283.09834,31.117154 282.07136,31.174984 C277.96345,31.406302 274.02864,31.377409 270.07626,31.34547 C262.1715,31.281592 254.19643,31.205529 246.29528,31.443101 C245.30764,31.472798 244.32115,31.507395 243.32972,31.221939 C242.33828,30.936484 241.34191,30.330975 241.11343,29.49526 C240.88495,28.659544 241.42437,27.593621 241.29785,26.43197 C241.17133,25.270318 240.37888,24.012938 239.76209,24.066557 C239.1453,24.120176 238.70418,25.484795 238.66213,26.686765 C238.62007,27.888735 238.97708,28.928056 238.64731,29.750473 C238.31753,30.57289 237.30098,31.178402 236.27323,31.308804 C235.24548,31.439206 234.20655,31.094498 233.23843,31.31051 C232.27031,31.526521 231.37302,32.303252 231.12904,33.213084 C230.88505,34.122916 231.29438,35.165849 231.25596,36.231218 C231.21754,37.296586 230.73138,38.38439 229.94406,38.776709 C229.15675,39.169028 228.06827,38.865862 226.95436,38.794251 C225.84044,38.72264 224.70109,38.882585 224.11448,39.501367 C223.52788,40.120148 223.49402,41.197765 223.59022,42.378323 C223.68643,43.558881 223.9127,44.842379 223.48226,45.503024 C223.05182,46.163669 221.96468,46.20146 220.91118,46.240581 C216.69716,46.397068 213.02133,46.574846 209.06011,46.290983 C207.0795,46.149051 205.02754,45.89171 203.11633,46.521224 C202.16072,46.835981 201.2403,47.372452 201.01383,48.217856 C200.78736,49.06326 201.25484,50.217597 201.19998,51.295458 C201.14513,52.373319 200.56794,53.374704 199.74481,53.755096 C198.92168,54.135487 197.85261,53.894884 196.7382,53.853442 C195.62378,53.812 194.46403,53.96972 193.93412,54.620902 C193.40422,55.272083 193.50416,56.416727 193.62471,57.551971 C193.74526,58.687215 193.8864,59.813058 193.38541,60.51418 C192.88441,61.215302 191.74127,61.491704 190.64344,61.439634 C189.54561,61.387564 188.49309,61.007022 187.63662,61.320382 C186.78014,61.633742 186.11971,62.641003 186.01002,63.655104 C185.90033,64.669205 186.3414,65.690146 186.20841,66.677174 C186.07542,67.664203 185.36838,68.617319 184.47492,68.92146 C183.58145,69.2256 182.50155,68.880766 181.4444,68.856916 C180.38725,68.833067 179.35285,69.130203 178.86934,69.894747 C177.90233,71.423835 179.13891,74.822555 178.08232,75.887156 C177.02573,76.951756 173.67597,75.682238 172.16435,76.582581 C171.40854,77.032752 171.11227,78.025389 171.10654,79.074882 C171.10082,80.124376 171.38565,81.230726 171.07364,82.155035 C170.76163,83.079344 169.85278,83.821613 168.87957,83.967505 C167.90636,84.113397 166.86879,83.662913 165.85473,83.785025 C164.84067,83.907137 163.85012,84.601846 163.55588,85.478008 C163.26165,86.354171 163.66373,87.411788 163.69316,88.508113 C163.7226,89.604438 163.3794,90.739471 162.62641,91.198955 C161.87342,91.658439 160.71065,91.442374 159.65949,91.405177 C158.60833,91.367979 157.66878,91.509649 156.6945,91.495805 C154.74596,91.468116 152.65851,90.818369 150.73542,91.472439 C149.77387,91.799474 148.85341,92.452463 148.50629,93.296125 C148.15917,94.139788 148.38539,95.174124 148.51115,96.211926 C148.76266,98.28753 148.61232,100.377 148.55158,102.29494 C148.49084,104.21288 148.51971,105.95929 148.62761,108.13505 C148.73551,110.31081 148.92243,112.91593 147.44259,113.66583 C146.70267,114.04079 145.54606,113.95193 144.39634,113.93247 C143.24661,113.91301 142.10378,113.96294 141.54316,114.58647 C140.98254,115.21 141.00413,116.40714 141.01886,117.49814 C141.03359,118.58913 141.04147,119.574 141.04758,120.56131 C141.09645,128.45982 141.03243,136.51528 141.0702,144.49737 C141.07964,146.49289 141.09545,148.48382 141.03968,150.47919 C141.0118,151.47688 140.96603,152.47567 141.04918,153.47077 C141.13233,154.46588 141.34441,155.45729 141.18855,156.504 C141.03268,157.55071 140.50888,158.65272 139.6731,159.00301 C138.83731,159.35331 137.68954,158.95189 136.59174,158.89944 C135.49393,158.847 134.44609,159.14353 133.93152,159.84947 C132.90237,161.26135 134.00631,164.31091 133.10656,165.68551 C132.20681,167.06012 129.30338,166.75977 127.17674,166.52955 C125.0501,166.29933 123.70026,166.13923 121.35968,166.56303 C120.18939,166.77493 118.77142,167.1328 118.72686,167.69311 C118.68229,168.25342 120.01113,169.01617 121.2627,169.12338 C122.51427,169.2306 123.68858,168.68228 124.47028,168.9232 C125.25199,169.16413 125.64109,170.1943 125.87827,171.21409 C126.35262,173.25365 126.21926,175.25164 126.13429,177.2522 C125.96435,181.25333 125.98798,185.26477 126.00608,189.27893 C126.07396,204.33201 126.0642,219.42337 126.04347,234.42234 C126.02136,250.42125 125.98678,266.31504 126.12549,281.52044 C126.13416,282.47078 126.14351,283.41843 125.98877,284.39535 C125.83403,285.37228 125.5152,286.37849 124.72411,286.59763 C123.93302,286.81677 122.66967,286.24885 121.94082,286.72412 C121.21197,287.19939 121.01761,288.71786 121.58906,289.1651 C122.1605,289.61234 123.49775,288.98836 124.38505,289.12667 C125.27235,289.26498 125.7097,290.16558 125.95426,291.09286 C126.44337,292.94742 126.16132,294.9087 126.04136,296.81526 C125.80146,300.62839 126.20996,304.22264 126.03368,308.35331 C125.98961,309.38598 125.909,310.45218 126.458,311.06706 C127.00701,311.68195 128.18563,311.84553 129.31819,311.75839 C130.45075,311.67125 131.53724,311.3334 132.27766,311.69716 C133.01808,312.06093 133.41243,313.12631 133.59761,314.14943 C133.96797,316.19566 133.50162,318.07285 133.44225,319.9907 C133.41256,320.94962 133.48461,321.91871 133.51146,322.96055 C133.5383,324.00239 133.51993,325.11698 133.95022,325.80715 C134.8108,327.18749 137.46601,326.87015 139.54644,326.73685 C141.62687,326.60354 143.13252,326.65428 145.23551,326.69508 C146.287,326.71548 147.48783,326.73339 148.11733,327.35138 C148.74684,327.96938 148.80502,329.18745 148.71674,330.21351 C148.62847,331.23957 148.39374,332.07361 148.4378,333.06935 C148.48186,334.06509 148.80471,335.22253 148.79709,336.21693 C148.78187,338.20571 147.44477,339.54231 145.07814,339.36342 C143.89482,339.27397 142.45413,338.80565 142.12068,339.31533 C141.78723,339.825 142.56103,341.31267 143.48778,341.76735 C144.41453,342.22203 145.49424,341.64373 146.4682,341.73713 C147.44217,341.83053 148.31039,342.59563 148.58571,343.52066 C148.86103,344.44568 148.54344,345.53063 148.53069,346.56668 C148.51794,347.60273 148.81003,348.58989 149.56429,349.03686 C151.07281,349.9308 154.42999,348.66399 155.51663,349.65802 C156.60327,350.65205 155.41936,353.90692 156.2303,355.5415 C156.63577,356.35879 157.53996,356.77101 158.53222,356.79966 C159.52448,356.82832 160.60482,356.47341 161.58213,356.68378 C162.55944,356.89415 163.43371,357.66979 163.66912,358.57005 C163.90453,359.4703 163.50108,360.49517 163.5122,361.56536 C163.52332,362.63555 163.94902,363.75105 164.68819,364.17304 C165.42735,364.59503 166.47999,364.32351 167.62719,364.22872 C168.77439,364.13392 170.01614,364.21585 170.60939,364.78439 C171.79589,365.92147 170.38838,369.005 171.23499,370.61676 C171.65829,371.42264 172.64512,371.86057 173.66921,371.87091 C174.6933,371.88124 175.75464,371.46397 176.70506,371.67929 C177.65548,371.8946 178.49497,372.7425 178.70655,373.67825 C178.91814,374.614 178.50183,375.6376 178.53568,376.69405 C178.56954,377.75049 179.05356,378.83979 179.83956,379.24086 C180.62555,379.64194 181.7135,379.35481 182.8273,379.27467 C183.9411,379.19454 185.08075,379.32141 185.67745,379.95307 C186.27415,380.58473 186.32791,381.72117 186.21966,382.84761 C186.11142,383.97404 185.84116,385.09046 186.27755,385.82778 C186.71394,386.5651 187.85698,386.92332 188.95163,386.89422 C190.04627,386.86512 191.09253,386.4487 191.96915,386.72853 C192.84576,387.00836 193.55273,387.98442 193.7035,388.98421 C193.85428,389.98399 193.44886,391.00749 193.57369,392.02135 C193.69852,393.0352 194.3536,394.03942 195.21853,394.34821 C196.08346,394.657 197.15825,394.27037 198.24726,394.22594 C199.33626,394.18151 200.43947,394.47928 200.92185,395.21104 C201.8866,396.67457 200.36801,399.87405 201.50023,401.11201 C202.06635,401.73099 203.29516,401.85958 204.37745,401.89656 C205.45973,401.93354 206.39547,401.8789 207.35974,401.84099 C209.28829,401.76517 211.33096,401.75625 213.30152,401.80957 C215.27207,401.86288 217.17051,401.97841 219.23903,401.75216 C220.27329,401.63903 221.35008,401.44046 222.20874,401.83685 C223.06741,402.23324 223.70797,403.22459 223.79647,404.2411 C223.88497,405.25761 223.42142,406.29927 223.59217,407.27612 C223.76292,408.25297 224.56797,409.165 225.49699,409.4052 C226.42602,409.6454 227.47901,409.21376 228.53381,409.26866 C229.58861,409.32355 230.64521,409.86497 231.05691,410.67255 C231.46861,411.48012 231.23541,412.55385 231.20484,413.69282 C231.17428,414.83178 231.34634,416.03597 232.00143,416.56444 C232.65652,417.09291 233.79464,416.94566 234.87657,416.86214 C239.20429,416.52808 242.63292,417.21382 246.83051,416.83204 C248.92931,416.64116 251.22034,416.18339 252.64769,417.31938 C253.36136,417.88738 253.85912,418.85381 253.86597,419.92 C253.87281,420.98618 253.38876,422.15212 253.70528,422.99763 C254.0218,423.84313 255.1389,424.36821 256.21648,424.42047 C257.29407,424.47274 258.33214,424.0522 259.29144,424.2682 C260.25074,424.48419 261.13126,425.33673 261.32818,426.29294 C261.52511,427.24915 261.03844,428.30905 261.10481,429.3445 C261.17119,430.37995 261.79061,431.39096 262.63517,431.81002 C263.47974,432.22907 264.54944,432.05618 265.59246,431.94964 C267.67851,431.73655 269.65785,431.78886 271.64298,431.82327 C275.61324,431.89207 279.60668,431.88925 283.61102,431.87801 C290.61863,431.85833 297.65965,431.81286 304.63697,431.84226 C312.61105,431.87587 320.50192,432.00727 328.67563,431.73139 C329.69734,431.6969 330.72348,431.65605 331.13322,430.95932 C331.54296,430.26258 331.3363,428.90996 331.26489,427.69701 C331.19347,426.48407 331.25729,425.4108 331.86107,424.84247 C332.46485,424.27414 333.6086,424.21074 334.77909,424.31741 C335.94958,424.42408 337.14682,424.70081 337.83488,424.24213 C338.52294,423.78345 338.70182,422.58935 338.81457,421.52479 C339.04006,419.39568 339.001,417.78471 338.81929,415.71656 C338.63758,413.64841 338.31322,411.12307 339.56291,409.95139 C340.18776,409.36555 341.20612,409.11812 342.40765,409.20358 C343.60919,409.28904 344.9939,409.70738 345.33085,409.17287 C345.6678,408.63837 344.95698,407.15102 344.02671,406.7398 C343.09645,406.32859 341.94673,406.9935 340.99353,406.92094 C340.04033,406.84839 339.28366,406.03837 338.9311,405.13166 C338.57854,404.22494 338.63009,403.22153 338.67348,402.2216 C339.02062,394.2221 338.84531,386.44496 338.75804,378.54776 C338.74713,377.56061 338.7376,376.57158 338.76176,375.53254 C338.78593,374.49349 338.84379,373.40441 339.31026,372.71607 C340.2432,371.33939 342.81057,371.56565 344.94622,371.72184 C347.08186,371.87803 348.78577,371.96416 350.70702,371.82525 C352.62828,371.68633 354.76688,371.32237 356.74898,371.84714 C357.74003,372.10953 358.69196,372.5941 358.93215,373.38958 C359.17233,374.18506 358.70078,375.29146 358.74136,376.50218 C358.78194,377.7129 359.33465,379.02794 359.95681,379.0441 C360.57898,379.06025 361.2706,377.77753 361.40461,376.62169 C361.53863,375.46585 361.11503,374.4369 361.37276,373.55931 C361.6305,372.68172 362.56957,371.95548 363.55893,371.77433 C364.5483,371.59318 365.58797,371.95711 366.59478,371.81367 C367.60159,371.67023 368.57554,371.01942 368.89532,370.14586 C369.21511,369.2723 368.88073,368.176 368.83398,367.10293 C368.78723,366.02986 369.02809,364.98003 369.75462,364.50125 C371.20766,363.54369 374.60333,364.87032 375.76106,363.8591 C376.9188,362.84788 375.8386,359.4988 376.57996,357.94531 C377.32133,356.39183 379.88426,356.63393 381.96599,356.72125 C384.04772,356.80856 385.64826,356.74109 387.79164,356.80468 C388.86333,356.83648 390.07073,356.90104 390.74263,356.35492 C391.41454,355.8088 391.55096,354.652 391.45964,353.53201 C391.36833,352.41201 391.04929,351.32882 391.42867,350.52073 C391.80805,349.71264 392.88585,349.17966 393.9365,349.13809 C394.98715,349.09653 396.01064,349.54638 396.96271,349.35073 C397.91478,349.15508 398.79542,348.31393 399.00878,347.37743 C399.22215,346.44093 398.76824,345.40908 398.79699,344.35541 C398.82574,343.30174 399.33715,342.22625 400.14784,341.80766 C400.95854,341.38908 402.06851,341.62741 403.11131,341.72328 C405.19691,341.91501 407.01385,341.53689 409.02417,341.74534 C410.02932,341.84956 411.08283,342.10043 412.02757,341.81968 C412.97231,341.53893 413.80828,340.72657 414.02998,339.77419 C414.25168,338.82181 413.8591,337.72941 413.88066,336.7152 C413.90221,335.70099 414.33789,334.76498 415.16478,334.34974 C416.81854,333.51925 420.03711,334.77186 421.0488,333.56048 C422.0605,332.3491 420.86534,328.67373 421.79248,327.42375 C422.71963,326.17377 425.76909,327.34918 427.50056,326.61098 C428.3663,326.24188 428.90254,325.39437 429.00488,324.41653 C429.10722,323.4387 428.77568,322.33053 428.92277,321.31619 C429.06987,320.30185 429.69561,319.38134 430.668,319.14926 C431.64039,318.91719 432.95944,319.37355 433.94796,319.32171 C435.92499,319.21803 436.57987,317.08153 436.67809,315.00017 C436.77631,312.91882 436.31785,310.89262 436.30168,308.9882 C436.2855,307.08378 436.71161,305.30113 436.58045,303.17486 C436.4493,301.04858 435.76088,298.57867 436.9862,297.44562 C437.59886,296.87909 438.68995,296.64678 439.79711,296.65865 C440.90427,296.67052 442.0275,296.92658 442.80371,296.49806 C443.57992,296.06953 444.0091,294.95642 444.02246,293.8784 C444.03581,292.80038 443.63334,291.75745 443.90715,290.86428 C444.18097,289.97111 445.13107,289.22771 446.11632,289.08087 C447.10156,288.93403 448.12196,289.38376 449.13209,289.28602 C450.14222,289.18829 451.14207,288.5431 451.49074,287.67113 C451.83942,286.79916 451.5369,285.7004 451.47159,284.69171 C451.40628,283.68302 451.57818,282.76439 451.57217,281.79288 C451.56016,279.84985 450.83657,277.69531 451.62623,275.8973 C452.02106,274.99829 452.7942,274.18842 453.71956,274.03662 C454.64492,273.88482 455.7225,274.39109 456.71107,274.27463 C457.69964,274.15817 458.59921,273.41897 458.96592,272.52957 C459.33264,271.64017 459.16651,270.60057 459.06775,269.59595 C458.87024,267.5867 458.94222,265.71738 458.98636,263.78254 C459.03049,261.84771 459.04678,259.84737 458.98439,257.9741 C458.95319,257.03746 458.90232,256.1326 458.90431,255.0693 C458.9063,254.006 458.96115,252.78427 459.49476,252.18589 C460.56197,250.98915 463.54422,252.28583 465.19826,251.46919 C466.02529,251.06087 466.52026,250.12421 466.57369,249.15233 C466.62711,248.18045 466.23899,247.17334 466.39524,246.20741 C466.55149,245.24148 467.25209,244.31672 468.11138,244.04063 C468.97067,243.76453 469.98863,244.1371 471.03284,244.19565 C472.07705,244.2542 473.14752,243.99874 473.66777,243.32176 C474.18803,242.64478 474.15808,241.5463 474.11443,240.51922 C474.02714,238.46505 473.88507,236.69651 473.95078,234.81546 C474.01649,232.9344 474.28998,230.94084 474.03143,229.04028 C473.90216,228.09 473.63987,227.16297 472.88941,226.74714 z" id="C33P1thinF_IMG_20150619_114756a_cell_179" class="data contour"/>
		<path d="M 435.29545 204.12063 C433.94111,203.37816 431.01702,204.73374 429.75106,203.79901 C429.11808,203.33165 428.89963,202.29171 428.84131,201.29426 C428.78298,200.29681 428.8848,199.34185 428.94237,198.41485 C429.17265,194.70684 428.69509,191.4462 428.9711,187.50507 C429.1091,185.5345 429.4355,183.39381 428.35339,182.28544 C427.81233,181.73126 426.91915,181.43516 425.90225,181.43172 C424.88535,181.42828 423.74474,181.7175 422.96331,181.50728 C421.40046,181.08684 421.27437,178.66864 421.30294,176.70653 C421.33151,174.74442 421.51474,173.2384 421.58009,171.38051 C421.61276,170.45156 421.61597,169.43465 421.35398,168.50062 C421.092,167.56659 420.56482,166.71544 419.79333,166.45977 C419.02184,166.20409 418.00602,166.5439 417.00758,166.57225 C416.00914,166.60061 415.02807,166.31752 414.4586,165.74462 C413.31965,164.59882 413.8271,162.29378 413.96654,160.39101 C414.10598,158.48823 413.87742,156.98772 413.9406,155.03092 C413.97219,154.05252 414.07672,152.96005 413.6341,152.28568 C413.19149,151.61131 412.20174,151.35503 411.19825,151.37339 C410.19476,151.39174 409.17754,151.68473 408.31987,151.55853 C407.4622,151.43234 406.76408,150.88696 406.47474,150.04704 C405.89606,148.36719 406.9525,145.50914 405.96585,144.53859 C404.97921,143.56804 401.94946,144.48499 400.39104,143.84323 C398.83261,143.20146 398.7455,141.00098 398.78971,139.12093 C398.83391,137.24089 399.00945,135.68128 399.03709,133.76285 C399.06474,131.84442 398.94451,129.56717 397.44508,128.98463 C395.94564,128.4021 393.06702,129.51428 391.93096,128.46156 C391.36293,127.9352 391.23054,126.86761 391.31217,125.84891 C391.3938,124.8302 391.68945,123.86039 391.44888,123.03889 C391.20831,122.21739 390.43153,121.54421 389.55692,121.36103 C388.68232,121.17785 387.7099,121.48468 386.72199,121.52615 C385.73407,121.56762 384.73065,121.34374 384.23465,120.71626 C383.73864,120.08878 383.75004,119.0577 383.86467,118.04199 C383.97931,117.02628 384.19718,116.02594 383.86429,115.26973 C383.5314,114.51353 382.64775,114.00146 381.71635,113.88337 C380.78494,113.76528 379.80578,114.04116 378.8507,113.99913 C377.89562,113.95711 376.96462,113.59717 376.5608,112.90901 C375.75317,111.53269 377.05429,108.84349 376.17722,107.45394 C375.73869,106.75916 374.75561,106.3893 373.78615,106.35755 C372.81669,106.32579 371.86085,106.63214 370.97523,106.48286 C370.0896,106.33358 369.2742,105.72867 368.94794,104.92896 C368.62168,104.12925 368.78456,103.13475 368.85895,102.12293 C368.93335,101.11111 368.91927,100.08197 368.40359,99.497909 C367.88791,98.913845 366.87062,98.77485 365.85431,98.831974 C364.838,98.889098 363.82266,99.14234 363.01779,98.926106 C362.21293,98.709872 361.61852,98.02416 361.37629,97.140164 C360.89181,95.37217 361.816,92.811036 360.63159,91.819098 C360.03938,91.323129 358.92003,91.219459 357.87295,91.302135 C356.82587,91.38481 355.85106,91.653832 355.12043,91.336924 C354.3898,91.020016 353.90335,90.117179 353.79901,89.169838 C353.69468,88.222497 353.97246,87.230652 353.91912,86.283725 C353.86578,85.336798 353.48132,84.434789 352.77612,84.049946 C351.3657,83.28026 348.67227,84.579239 347.31826,83.658426 C346.64125,83.198019 346.2991,82.182664 346.2856,81.195655 C346.27211,80.208646 346.58728,79.249983 346.43261,78.379075 C346.27793,77.508167 345.65342,76.725015 344.81616,76.409622 C343.97889,76.094229 342.92887,76.246594 341.98377,76.325163 C340.09356,76.482301 338.62302,76.344252 336.67976,76.404799 C334.7365,76.465345 332.32052,76.724488 331.58321,75.393572 C330.84591,74.062656 331.78726,71.141682 331.03904,69.822996 C330.29081,68.50431 327.85302,68.787913 325.90404,68.849885 C323.95506,68.911857 322.4949,68.7522 320.59381,68.921177 C319.64326,69.005665 318.58249,69.172312 317.75415,68.849616 C316.92581,68.526919 316.32992,67.714878 316.1928,66.823391 C316.05569,65.931904 316.37735,64.960969 316.37233,63.973593 C316.36731,62.986217 316.03561,61.982399 315.36024,61.539825 C314.0095,60.654677 311.28406,62.014504 309.8518,61.211543 C309.13568,60.810063 308.74284,59.867885 308.70922,58.903913 C308.67559,57.939941 309.00116,56.954175 308.86784,56.048487 C308.73452,55.1428 308.14229,54.31719 307.33915,53.948597 C306.53601,53.580005 305.52196,53.668429 304.57438,53.737326 C303.62681,53.806223 302.74572,53.855594 301.84573,53.880454 C300.04575,53.930174 298.17017,53.881855 296.35622,53.834732 C294.54227,53.787609 292.78997,53.741681 290.88062,53.907447 C289.92595,53.99033 288.93202,54.126136 288.08774,53.894956 C287.24347,53.663775 286.54884,53.065608 286.27578,52.21825 C285.72966,50.523535 286.86982,47.832058 285.7048,46.835478 C285.1223,46.337189 283.9635,46.262623 282.95606,46.263336 C281.94863,46.264049 281.09256,46.340041 280.15301,46.296654 C279.21346,46.253268 278.19043,46.090504 277.43225,46.462628 C276.67408,46.834753 276.18076,47.741766 276.12793,48.689418 C276.0751,49.63707 276.46276,50.625362 276.36892,51.549343 C276.27508,52.473324 275.69973,53.332994 274.90969,53.708267 C274.11965,54.08354 273.11492,53.974415 272.15796,53.918453 C271.201,53.862491 270.29181,53.859691 269.38173,53.857279 C255.73063,53.821093 241.8815,53.872067 228.27031,53.841213 C226.45549,53.837099 224.64489,53.831531 222.73561,53.930119 C221.78097,53.979413 220.80165,54.054747 220.02814,53.676808 C219.25463,53.298869 218.68691,52.467657 218.59701,51.551075 C218.50711,50.634493 218.89502,49.632541 218.76132,48.620284 C218.62762,47.608027 217.97231,46.585466 217.36526,46.606311 C216.7582,46.627156 216.19939,47.691408 216.08439,48.724699 C215.96939,49.75799 216.2982,50.76032 216.21148,51.680135 C216.12476,52.599951 215.62251,53.437252 214.82411,53.7831 C214.02571,54.128948 212.93117,53.983343 211.9715,53.908912 C210.05217,53.76005 208.67235,53.895883 206.71138,53.825903 C204.75041,53.755924 202.20829,53.480131 201.4529,54.737744 C200.69752,55.995357 201.72886,58.786376 200.95338,60.241261 C200.56564,60.968703 199.72619,61.362113 198.80283,61.421794 C197.87947,61.481475 196.8722,61.207427 195.91307,61.302281 C194.95393,61.397135 194.04293,61.86089 193.68694,62.597722 C193.33096,63.334555 193.53,64.344463 193.65333,65.366137 C193.77666,66.38781 193.82429,67.421248 193.35008,68.068223 C192.87588,68.715198 191.87985,68.975711 190.89529,68.952493 C189.91074,68.929274 188.93767,68.622323 188.04643,68.78726 C187.1552,68.952196 186.34582,69.589018 186.0886,70.390149 C185.83139,71.191279 186.12636,72.156717 186.21643,73.185303 C186.3065,74.213889 186.19168,75.305622 185.63247,75.848406 C184.51405,76.933976 181.61807,75.823751 180.10906,76.402842 C178.60006,76.981934 178.47804,79.250343 178.49543,81.138892 C178.51282,83.02744 178.66962,84.53613 178.72752,86.458201 C178.78541,88.380273 178.74439,90.715726 177.28256,91.318503 C175.82074,91.92128 172.9381,90.79138 171.74173,91.78696 C171.14355,92.284751 170.96693,93.313911 171.02517,94.318202 C171.0834,95.322494 171.37648,96.301917 171.15007,97.136148 C170.92365,97.970378 170.17775,98.659415 169.31169,98.897867 C168.44563,99.136319 167.45942,98.924185 166.45551,98.897881 C165.4516,98.871577 164.42999,99.031103 163.94588,99.630073 C163.46176,100.22904 163.51515,101.26746 163.60994,102.2913 C163.70472,103.31515 163.84091,104.32443 163.47176,105.0894 C163.10261,105.85436 162.22811,106.37501 161.30621,106.48827 C160.38431,106.60152 159.415,106.30738 158.47583,106.38388 C157.53665,106.46037 156.62761,106.90751 156.23052,107.6574 C155.43635,109.15718 156.68998,111.86797 155.77304,113.13854 C155.31456,113.77382 154.31344,114.04905 153.3221,114.02276 C152.33075,113.99647 151.34917,113.66867 150.47341,113.84538 C149.59764,114.02209 148.82769,114.70333 148.54494,115.5387 C148.26218,116.37407 148.46663,117.36358 148.55359,118.30758 C148.72749,120.19558 148.43141,121.90154 148.56422,123.73032 C148.63063,124.64472 148.80426,125.58982 148.69116,126.53714 C148.57805,127.48446 148.17819,128.43399 147.45787,128.8344 C146.01724,129.63523 143.29473,128.23954 141.99599,129.16066 C141.34662,129.62122 141.05319,130.66099 140.95802,131.62923 C140.86286,132.59748 140.96597,133.49421 141.02782,134.39934 C141.21335,137.11471 141.02748,139.9056 141.02558,142.60291 C141.02432,144.40111 141.10482,146.15772 141.1409,148.12188 C141.15893,149.10396 141.16586,150.13793 140.66571,150.76764 C140.16555,151.39734 139.15831,151.62278 138.14386,151.56212 C137.12941,151.50146 136.10775,151.15469 135.29896,151.38446 C134.49017,151.61423 133.89425,152.42054 133.59871,153.28818 C133.00762,155.02347 133.61801,157.00412 133.63568,158.81618 C133.64452,159.72221 133.50518,160.58609 133.55233,161.50269 C133.59949,162.41929 133.83314,163.38861 133.65624,164.29678 C133.47935,165.20495 132.89192,166.05197 132.09801,166.40088 C131.30409,166.74978 130.30369,166.60056 129.26499,166.54076 C128.22628,166.48096 127.14928,166.51057 126.59461,167.0325 C126.03993,167.55443 126.00759,168.56868 125.99158,169.54802 C125.95957,171.50671 125.9929,173.32581 126.02272,175.12894 C126.08238,178.7352 126.12801,182.27763 126.0211,186.15089 C125.99437,187.1192 125.95811,188.1082 125.39824,188.62501 C124.83836,189.14181 123.75487,189.18644 122.66317,189.07438 C121.57147,188.96232 120.47157,188.69358 119.78091,189.03512 C119.09025,189.37666 118.80883,190.32849 118.63505,191.26407 C117.93994,195.00642 118.96712,198.4889 118.51358,202.27834 C118.4002,203.2257 118.19426,204.19225 118.50191,205.01025 C118.80955,205.82826 119.63077,206.49773 120.53198,206.65627 C121.43319,206.81481 122.4144,206.46243 123.3851,206.47331 C124.35581,206.48419 125.31602,206.85832 125.7647,207.56936 C126.21338,208.28039 126.15053,209.32833 126.11361,210.29613 C126.03978,212.23174 126.06966,213.84682 126.07818,215.81215 C126.08243,216.79481 126.08134,217.86504 125.56771,218.47836 C125.05407,219.09169 124.02788,219.24811 122.99587,219.15853 C121.96385,219.06895 120.926,218.73337 120.14037,218.99631 C119.35474,219.25926 118.82132,220.12073 118.55359,221.00452 C118.01813,222.77208 118.54543,224.6289 118.6447,226.48539 C118.74397,228.34188 118.41523,230.19805 118.42043,231.99065 C118.42563,233.78326 118.76479,235.51229 118.63485,237.41894 C118.50491,239.3256 117.90589,241.40987 118.75904,242.86373 C119.18562,243.59066 119.97525,244.15999 120.88278,244.24553 C121.79031,244.33108 122.81574,243.93284 123.77077,243.99242 C124.72579,244.052 125.6104,244.5694 125.96253,245.33775 C126.31467,246.1061 126.13433,247.1254 126.06229,248.09128 C125.9182,250.02303 126.2073,251.74111 126.05961,253.53638 C125.98576,254.43402 125.80271,255.35095 125.86627,256.33713 C125.92983,257.32331 126.23999,258.37873 126.89086,258.85422 C128.19258,259.80519 130.85709,258.43642 132.34893,259.20723 C133.09486,259.59263 133.54762,260.51292 133.65677,261.43269 C133.76592,262.35246 133.53147,263.2717 133.48696,264.19696 C133.39795,266.04749 134.06874,267.92209 133.49368,269.67802 C133.20616,270.55599 132.60717,271.40429 131.80439,271.6745 C131.00161,271.94471 129.99503,271.63683 128.98489,271.57735 C127.97474,271.51787 126.96101,271.70678 126.4569,272.32425 C125.95279,272.94172 125.95829,273.98776 125.98002,274.95827 C126.00174,275.92879 126.03969,276.82379 125.98235,277.77839 C125.92501,278.73299 125.77239,279.7472 126.16405,280.44924 C126.55572,281.15127 127.49166,281.54113 128.45999,281.64468 C129.42832,281.74823 130.42903,281.56546 131.35569,281.69787 C132.28235,281.83027 133.13497,282.27784 133.48972,283.0333 C134.19922,284.54422 132.91727,287.28669 133.92265,288.49074 C134.42534,289.09277 135.49987,289.31019 136.52046,289.25054 C137.54105,289.19088 138.5077,288.85414 139.32421,289.07949 C140.14073,289.30484 140.80712,290.09228 141.08897,290.95986 C141.37082,291.82744 141.26813,292.77516 141.18213,293.71138 C141.01011,295.58382 140.90481,297.41027 140.9778,299.2025 C141.05079,300.99473 141.30208,302.75273 141.15609,304.62831 C141.0101,306.50388 140.46683,308.49702 141.18326,310.07977 C141.54147,310.87115 142.21461,311.55993 143.06951,311.74979 C143.92442,311.93966 144.9611,311.63061 145.9636,311.64212 C146.96609,311.65362 147.9344,311.98568 148.36069,312.67058 C148.78697,313.35548 148.67123,314.39321 148.6178,315.37239 C148.51095,317.33074 148.65333,319.05485 148.57174,320.82829 C148.53095,321.71502 148.43416,322.61407 148.46384,323.62553 C148.49351,324.63699 148.64966,325.76086 149.20496,326.29812 C150.31556,327.37262 153.0228,326.10067 154.61831,326.74386 C155.41607,327.06546 155.9359,327.86584 156.14024,328.73838 C156.34458,329.61092 156.23343,330.55561 156.15946,331.48985 C155.8636,335.22682 156.16265,338.79658 156.12928,342.41981 C156.12093,343.32561 156.09181,344.23476 156.00956,345.1935 C155.92732,346.15225 155.79194,347.16058 156.15438,347.93312 C156.51681,348.70565 157.37706,349.2424 158.29792,349.34452 C159.21877,349.44664 160.20024,349.11414 161.14548,349.18065 C162.09072,349.24715 162.99974,349.71267 163.39604,350.45483 C163.79235,351.19698 163.67595,352.21578 163.58785,353.26038 C163.49975,354.30498 163.43997,355.37538 163.94002,355.95923 C164.44008,356.54307 165.49998,356.64036 166.47257,356.72106 C168.41774,356.88245 170.01363,356.97747 171.88274,356.80059 C173.75185,356.62371 175.89417,356.17492 177.3356,357.01443 C178.05631,357.43418 178.6018,358.176 178.71066,359.06446 C178.81952,359.95292 178.49175,360.98801 178.55971,361.9633 C178.62768,362.9386 179.09138,363.85409 179.8315,364.21206 C180.57162,364.57002 181.58816,364.37046 182.61314,364.24659 C183.63812,364.12273 184.67155,364.07458 185.31916,364.54918 C185.96677,365.02378 186.22857,366.02114 186.2057,367.00839 C186.18284,367.99565 185.87531,368.97279 186.04487,369.86479 C186.21443,370.7568 186.86108,371.56366 187.66796,371.81295 C188.47485,372.06225 189.44196,371.75397 190.47531,371.68434 C191.50866,371.61471 192.60825,371.78372 193.14756,372.34227 C194.22618,373.45935 193.06369,376.13452 193.67101,377.77476 C193.97467,378.59488 194.72078,379.15627 195.62346,379.29519 C196.52613,379.43411 197.58537,379.15056 198.53154,379.21146 C199.47772,379.27236 200.31083,379.67772 200.78659,380.32329 C201.7381,381.61443 201.26021,383.86642 201.10196,385.75733 C200.94371,387.64825 201.10511,389.17808 201.14702,391.14177 C201.16797,392.12362 201.15905,393.21393 201.68212,393.80128 C202.20518,394.38863 203.26023,394.47303 204.28909,394.37654 C205.31795,394.28004 206.32063,394.00266 207.14388,394.26755 C207.96713,394.53244 208.61095,395.3396 208.74366,396.2543 C208.87636,397.169 208.49794,398.19124 208.5231,399.13257 C208.54826,400.07389 208.97699,400.9343 209.62576,401.42685 C210.92328,402.41195 213.1009,401.92562 215.02775,401.77059 C216.95459,401.61557 218.63066,401.79183 220.41908,401.86076 C222.20751,401.9297 224.10829,401.8913 225.94574,401.75513 C226.86446,401.68705 227.76736,401.59453 228.7071,401.72639 C229.64683,401.85825 230.62342,402.21448 231.04452,402.90893 C231.88671,404.29783 230.50696,407.03958 231.3842,408.40729 C231.82282,409.09115 232.82568,409.43149 233.81083,409.43234 C234.79598,409.4332 235.76342,409.09455 236.66814,409.22615 C237.57286,409.35774 238.41486,409.95957 238.70762,410.76525 C239.00039,411.57093 238.74392,412.58047 238.63687,413.61406 C238.52983,414.64765 238.5722,415.7053 239.13855,416.24092 C239.70489,416.77653 240.79522,416.79011 241.78258,416.82533 C243.7573,416.89579 245.32018,417.05283 247.19735,416.88162 C249.07453,416.7104 251.26601,416.21093 252.63679,417.19996 C253.32218,417.69448 253.80239,418.56113 253.84179,419.49939 C253.88119,420.43765 253.47977,421.44753 253.60945,422.34886 C253.73913,423.25019 254.39992,424.04296 255.23744,424.34098 C256.07496,424.63899 257.08923,424.44224 258.03606,424.36523 C258.98289,424.28823 259.86229,424.33095 260.75647,424.35369 C264.33319,424.44462 268.14642,424.2156 271.72105,424.3342 C273.50837,424.3935 275.23605,424.5397 277.14958,424.38688 C279.06312,424.23406 281.16253,423.78223 282.57909,424.64099 C283.28737,425.07037 283.82494,425.82739 283.87304,426.73537 C283.92114,427.64336 283.47977,428.70229 283.65928,429.69962 C283.83879,430.69695 284.63918,431.63267 285.26917,431.55151 C285.89916,431.47034 286.35875,430.37229 286.39281,429.32325 C286.42686,428.27422 286.03538,427.2742 286.14719,426.3741 C286.25899,425.474 286.87408,424.67383 287.6868,424.38058 C288.49951,424.08734 289.50984,424.30102 290.46186,424.34719 C291.41387,424.39336 292.30757,424.27201 293.20154,424.2635 C294.98948,424.24649 296.77852,424.68085 298.69992,424.44389 C299.66062,424.3254 300.65441,424.03909 301.09599,423.37753 C301.53757,422.71596 301.42694,421.67915 301.28412,420.61977 C301.14131,419.56039 300.96631,418.47845 301.39254,417.84304 C301.81876,417.20763 302.84622,417.01875 303.81026,416.88965 C305.73835,416.63145 307.41279,416.61239 309.26235,416.80294 C311.11191,416.99349 313.13658,417.39364 314.74693,416.63173 C315.55211,416.25078 316.2537,415.57932 316.42619,414.73493 C316.59867,413.89054 316.24204,412.87322 316.26258,411.88093 C316.28312,410.88864 316.68082,409.92138 317.4035,409.49627 C318.84886,408.64605 321.5941,409.96446 322.89783,409.06958 C323.54969,408.62214 323.84117,407.62138 323.94353,406.65785 C324.04589,405.69432 323.95913,404.76802 323.89364,403.84919 C323.76265,402.01152 323.71671,400.20372 323.73007,398.38073 C323.7568,394.73475 324.02072,391.02803 323.82274,387.39378 C323.72374,385.57665 323.50928,383.77764 323.77776,381.84799 C323.91201,380.88316 324.16699,379.88568 324.8354,379.45988 C325.50382,379.03408 326.58567,379.17997 327.57153,379.25031 C329.54323,379.39098 331.13092,379.22944 333.12348,379.20819 C334.11976,379.19757 335.21726,379.22203 335.76231,379.7853 C336.30737,380.34857 336.29998,381.45065 336.32205,382.44242 C336.3662,384.42596 336.52819,385.96824 336.36621,387.87441 C336.20423,389.78058 335.71829,392.05064 336.72949,393.32043 C337.23509,393.95533 338.11498,394.34015 339.03668,394.46871 C339.95837,394.59727 340.92187,394.46955 341.86309,394.38489 C343.74552,394.21556 345.53881,394.21844 347.35588,394.24235 C350.99003,394.29017 354.7193,394.42215 358.37438,394.36014 C362.02946,394.29813 365.61036,394.04213 369.35008,394.35788 C371.21994,394.51575 373.12951,394.81655 374.77754,394.04978 C375.60155,393.6664 376.36018,393.01612 376.53301,392.17902 C376.70583,391.34192 376.29286,390.31799 376.27726,389.32076 C376.26166,388.32353 376.64344,387.353 377.35627,386.95632 C378.0691,386.55964 379.11296,386.7368 380.15308,386.85461 C381.1932,386.97241 382.22957,387.03086 382.8791,386.5641 C383.52862,386.09734 383.79131,385.10539 383.91552,384.14641 C384.16394,382.22845 383.85846,380.44242 383.84858,378.64988 C383.84364,377.75361 383.9126,376.85571 383.85424,375.89931 C383.79589,374.94291 383.61021,373.92802 383.9472,373.14473 C384.28418,372.36144 385.14381,371.80977 386.06382,371.69028 C386.98383,371.5708 387.96422,371.88351 388.93455,371.84744 C389.90489,371.81137 390.86517,371.42654 391.27079,370.72111 C391.6764,370.01568 391.52734,368.98967 391.39597,367.96106 C391.26461,366.93246 391.15094,365.90126 391.584,365.21808 C392.01705,364.5349 392.99684,364.19973 393.97617,364.19058 C394.9555,364.18144 395.93438,364.49832 396.83785,364.3562 C397.74133,364.21408 398.56939,363.61296 398.88397,362.80956 C399.19856,362.00615 398.99967,361.00047 398.93932,360.04986 C398.87897,359.09926 398.95717,358.20375 398.95584,357.3103 C398.95317,355.5234 398.63238,353.74475 398.86592,351.81587 C398.98268,350.85143 399.23803,349.84944 399.87964,349.42987 C400.52125,349.01031 401.54912,349.17317 402.61733,349.28046 C403.68554,349.38776 404.7941,349.43948 405.4347,349.04411 C406.71591,348.25339 406.12532,345.67432 406.532,343.76708 C406.73535,342.81347 407.18801,342.02781 407.92755,341.74861 C408.66709,341.46942 409.69349,341.69669 410.74266,341.77232 C411.79182,341.84796 412.86373,341.77196 413.39799,341.19521 C413.93225,340.61847 413.92886,339.54098 413.94947,338.56471 C413.99069,336.61217 414.12792,335.06449 413.96197,333.18479 C413.79602,331.30509 413.32687,329.09336 414.31309,327.74705 C414.8062,327.0739 415.66315,326.6171 416.59944,326.59481 C417.53574,326.57251 418.55138,326.98473 419.43996,326.83415 C420.32853,326.68357 421.09003,325.97019 421.40527,325.12397 C421.72052,324.27775 421.58951,323.2987 421.5115,322.35094 C421.35549,320.45541 421.4115,318.68505 421.43563,316.8782 C421.4839,313.2645 421.40464,309.50488 421.43931,305.90078 C421.45664,304.09873 421.50246,302.33556 421.38117,300.38201 C421.32052,299.40524 421.21809,298.38086 421.64181,297.67256 C422.06554,296.96425 423.01542,296.57201 424.00904,296.57047 C425.00266,296.56893 426.04001,296.9581 426.89774,296.80678 C427.75546,296.65546 428.43354,295.96365 428.80016,295.16842 C429.53339,293.57797 429.02074,291.57384 428.87061,289.69065 C428.64543,286.86588 429.23593,284.31323 429.03708,281.52751 C428.90452,279.67036 428.42113,277.70962 429.03198,276.01569 C429.3374,275.16872 429.91638,274.38845 430.72591,274.13809 C431.53543,273.88772 432.5755,274.16724 433.58885,274.17362 C434.6022,274.18 435.58884,273.91323 436.08213,273.27697 C436.57543,272.64071 436.57538,271.63496 436.56734,270.66515 C436.55126,268.72553 436.5032,266.92964 436.47261,265.12949 C436.35025,257.92891 436.50743,250.66023 436.48776,243.48993 C436.47792,239.90478 436.42388,236.34422 436.43449,232.78804 C436.44511,229.23187 436.52039,225.68008 436.48703,222.1458 C436.45367,218.61152 436.31166,215.09475 436.48763,211.57686 C436.57561,209.81792 436.74309,208.05869 436.41927,206.27796 C436.25735,205.3876 435.97262,204.49186 435.29545,204.12063 z" id="C33P1thinF_IMG_20150619_114756a_cell_180" class="data contour"/>
		<path d="M 465.36196 189.11046 C464.86606,188.59887 463.73736,188.82913 462.68876,189.01392 C461.64017,189.19872 460.67167,189.33805 460.01892,188.91477 C459.36618,188.49149 459.02917,187.50561 458.90703,186.57871 C458.78489,185.6518 458.8776,184.78388 458.9378,183.90683 C459.17861,180.39866 458.8992,176.74456 458.95896,173.32817 C458.97389,172.47407 459.01003,171.63483 459.0758,170.66436 C459.14156,169.69389 459.23695,168.59219 458.93152,167.85923 C458.32064,166.39331 456.10644,166.40237 454.23525,166.40864 C452.36406,166.41491 450.83588,166.4184 449.0533,166.59957 C448.16202,166.69015 447.20713,166.82515 446.31205,166.6136 C445.41696,166.40205 444.58168,165.84394 444.15612,165.16348 C443.30499,163.80256 444.09274,161.95221 444.09505,160.0404 C444.09736,158.12859 443.31424,156.15533 444.3284,154.93382 C444.83548,154.32306 445.79188,153.90025 446.74247,153.90865 C447.69305,153.91705 448.63782,154.35667 449.49143,154.06279 C450.34505,153.76891 451.10752,152.74154 450.92784,152.11896 C450.74815,151.49639 449.6263,151.27863 448.56688,151.35195 C447.50745,151.42528 446.51045,151.78971 445.73987,151.59815 C444.96928,151.40659 444.42511,150.65905 444.11703,149.84186 C443.50088,148.20748 443.82909,146.29452 443.99358,144.53446 C444.15806,142.77439 444.1588,141.16723 443.95889,139.27135 C443.85893,138.32341 443.7088,137.3033 443.14993,136.81277 C442.59106,136.32224 441.62345,136.36131 440.68073,136.38974 C436.90984,136.50344 433.53717,136.4469 430.05831,136.45716 C428.31887,136.46228 426.55289,136.48411 424.66946,136.51658 C423.72775,136.53281 422.75668,136.55171 422.14662,136.06738 C421.53656,135.58305 421.2875,134.5955 421.34357,133.61639 C421.39963,132.63729 421.76082,131.66663 421.57089,130.85556 C421.38096,130.04449 420.63993,129.393 419.84252,129.05218 C418.2477,128.37052 416.42739,128.93151 414.6038,129.06291 C412.78022,129.19432 410.95334,128.89614 409.25487,128.83777 C407.55641,128.7794 405.98635,128.96083 404.05338,129.07468 C402.12042,129.18853 399.82454,129.2348 399.14288,127.88506 C398.46121,126.53531 399.39375,123.78957 398.69705,122.49392 C398.00034,121.19828 395.6744,121.35274 393.78735,121.39336 C391.90031,121.43397 390.45218,121.36075 388.61954,121.49697 C387.70323,121.56509 386.69079,121.68556 385.84509,121.47445 C384.9994,121.26334 384.32045,120.72065 384.01448,119.91929 C383.40254,118.31656 384.2825,115.67914 383.4198,114.58882 C382.5571,113.49849 379.95173,113.95526 378.14485,113.93848 C377.24141,113.93009 376.5376,113.80331 375.70935,113.82724 C374.05285,113.8751 371.8986,114.5258 370.33517,113.81713 C369.55345,113.46279 368.91944,112.76861 368.75863,111.94217 C368.59783,111.11572 368.91023,110.15701 368.94866,109.1848 C368.98708,108.21259 368.75151,107.22688 368.13077,106.73402 C367.51002,106.24115 366.5041,106.24112 365.52453,106.36359 C364.54496,106.48607 363.59176,106.73105 362.82883,106.42858 C362.06589,106.1261 361.49322,105.27617 361.32788,104.38832 C361.16254,103.50046 361.40453,102.57469 361.3935,101.62999 C361.38247,100.68528 361.11841,99.721638 360.48138,99.24134 C359.84436,98.761042 358.83436,98.764088 357.89233,98.786272 C356.95031,98.808457 356.07626,98.849779 355.20003,98.880917 C351.69507,99.005466 348.15504,98.967051 344.60174,98.882574 C342.8251,98.840336 341.04514,98.786582 339.29362,98.874453 C337.5421,98.962324 335.81902,99.19182 333.9422,98.972036 C333.00379,98.862144 332.02694,98.639933 331.56393,98.023849 C331.10092,97.407765 331.15174,96.397809 331.28857,95.374349 C331.4254,94.350889 331.64825,93.313925 331.29817,92.635633 C330.94809,91.957341 330.02509,91.63772 329.11648,91.451342 C327.29925,91.078588 325.5396,91.238809 323.77509,91.401417 C322.01058,91.564025 320.24121,91.729021 318.42477,91.317948 C317.51655,91.112411 316.59656,90.762858 316.28705,90.065856 C315.97755,89.368855 316.27853,88.324406 316.36058,87.313216 C316.44263,86.302027 316.30574,85.324097 315.85209,84.712869 C314.94478,83.490411 312.77044,83.73476 310.84475,83.844446 C308.91907,83.954131 307.24204,83.929155 305.5201,83.911233 C302.07623,83.875389 298.45272,83.867762 294.875,83.876139 C287.71957,83.892892 280.74732,83.97366 273.54989,83.802743 C272.65021,83.781379 271.74702,83.756082 270.87281,83.969072 C269.9986,84.182063 269.15338,84.633341 268.79971,85.371746 C268.09238,86.848558 269.35125,89.473882 268.35454,90.672779 C267.85618,91.272228 266.79393,91.51507 265.82883,91.571566 C264.86374,91.628063 263.9958,91.498213 263.12314,91.423322 C261.37783,91.27354 259.61366,91.343593 257.83724,91.382978 C254.28442,91.461749 250.68265,91.417847 247.18488,91.38514 C245.43599,91.368786 243.7131,91.355232 241.80866,91.359581 C240.85644,91.361755 239.85883,91.368405 239.27886,91.884951 C238.6989,92.401496 238.53657,93.427936 238.61286,94.407045 C238.68915,95.386154 239.00407,96.317931 238.78355,97.14242 C238.56303,97.966909 237.80708,98.684109 236.97294,98.958192 C236.1388,99.232274 235.22646,99.06324 234.32216,98.960958 C230.70495,98.551834 227.21625,99.210766 223.6869,98.959089 C221.92223,98.83325 220.14739,98.479759 218.32961,98.908858 C217.42072,99.123407 216.5011,99.533603 216.15272,100.2292 C215.80435,100.9248 216.02722,101.9058 216.18133,102.92528 C216.33543,103.94476 216.42077,105.00271 215.95762,105.58826 C215.49448,106.17381 214.48286,106.28697 213.53421,106.37587 C211.6369,106.55366 209.99149,106.63442 208.22928,106.47207 C206.46707,106.30973 204.58806,105.90429 202.90227,106.52009 C202.05937,106.82799 201.26478,107.3912 201.02831,108.15959 C200.79184,108.92798 201.1135,109.90156 201.21631,110.90422 C201.31913,111.90687 201.20309,112.93861 200.62524,113.43721 C200.0474,113.93581 199.00774,113.90127 198.0533,113.91326 C196.14442,113.93723 194.5764,114.14728 192.79572,113.99392 C191.01504,113.84056 189.0217,113.32379 187.50555,114.1381 C186.74748,114.54525 186.1087,115.28517 185.97483,116.12559 C185.84097,116.966 186.21201,117.90691 186.22663,118.858 C186.24124,119.80909 185.89944,120.77036 185.23216,121.21628 C184.56489,121.6622 183.57214,121.59278 182.59825,121.46109 C181.62436,121.32941 180.66932,121.13547 179.91865,121.47452 C179.16798,121.81358 178.62166,122.68564 178.50427,123.56578 C178.38688,124.44592 178.69842,125.33413 178.69874,126.28834 C178.69906,127.24255 178.38816,128.26276 177.76148,128.72377 C176.50811,129.64579 173.99157,128.331 172.47362,128.99264 C171.71464,129.32346 171.20531,130.14838 171.0677,131.02021 C170.93009,131.89203 171.1642,132.81076 171.14317,133.77005 C171.12214,134.72934 170.84597,135.72919 170.19254,136.17892 C169.53911,136.62865 168.50841,136.52827 167.57272,136.49569 C165.70134,136.43054 164.20997,136.63661 162.39176,136.49732 C160.57355,136.35804 158.42851,135.87341 157.14442,136.79319 C156.50238,137.25308 156.07558,138.06408 156.00771,138.95181 C155.93984,139.83954 156.2309,140.804 156.14112,141.73531 C156.05135,142.66662 155.58073,143.56478 154.86302,143.91799 C154.14531,144.27121 153.18051,144.07947 152.18228,143.93353 C151.18405,143.78758 150.15239,143.68742 149.53692,144.12714 C148.92145,144.56687 148.72215,145.54648 148.59905,146.47841 C148.35285,148.34227 148.41142,150.01541 148.57048,151.76892 C148.72954,153.52243 148.9891,155.35631 148.42697,157.08167 C148.1459,157.94435 147.65942,158.77989 146.9215,159.05348 C146.18357,159.32706 145.19421,159.03868 144.19798,158.9348 C143.20174,158.83092 142.19864,158.91155 141.64644,159.45543 C141.09424,159.99931 140.99295,161.00644 141.04179,161.9726 C141.09063,162.93876 141.28959,163.86395 141.05063,164.70797 C140.81167,165.55198 140.13477,166.31482 139.3311,166.55234 C138.52743,166.78985 137.59698,166.50205 136.61515,166.4377 C135.63333,166.37335 134.60013,166.53245 134.07341,167.08949 C133.54668,167.64653 133.52643,168.6015 133.51586,169.53589 C133.4736,173.27343 133.58633,176.68158 133.57938,180.19912 C133.57242,183.71666 133.44577,187.34359 133.58361,190.82738 C133.61807,191.69833 133.66906,192.56033 133.64404,193.50667 C133.61902,194.45302 133.51799,195.48371 132.96556,196.04801 C132.41312,196.61232 131.40928,196.71024 130.43241,196.61247 C129.45554,196.5147 128.50563,196.22124 127.70363,196.46876 C126.90162,196.71629 126.24751,197.50481 125.99541,198.36085 C125.7433,199.21689 125.89319,200.14045 125.98107,201.04658 C126.15684,202.85883 126.08457,204.60132 126.05088,206.36494 C125.98351,209.89218 126.07047,213.50393 126.03997,217.02435 C126.02471,218.78455 125.98009,220.52192 126.12131,222.3513 C126.19193,223.26599 126.309,224.20368 125.98452,225.0301 C125.66003,225.85652 124.89399,226.57167 124.02266,226.71309 C123.15132,226.85451 122.17469,226.42219 121.26261,226.43554 C120.35052,226.4489 119.50298,226.90792 118.99565,227.54523 C117.98099,228.81986 118.32718,230.80768 118.49258,232.6853 C118.74068,235.50174 118.58203,238.07026 118.52471,240.69669 C118.44829,244.19859 118.55203,247.80344 118.54731,251.37907 C118.54259,254.95471 118.4294,258.50112 118.54988,262.02198 C118.61013,263.78242 118.72879,265.53646 118.56668,267.36305 C118.40457,269.18964 117.96168,271.08878 118.7104,272.65396 C119.08476,273.43655 119.75702,274.13565 120.5891,274.28379 C121.42118,274.43193 122.41309,274.02912 123.36653,274.03114 C124.31997,274.03315 125.23496,274.44 125.69795,275.11531 C126.16095,275.79063 126.17194,276.73442 126.16956,277.66252 C126.16004,281.3749 125.93645,284.83624 125.9523,288.36409 C125.96816,291.89195 126.22345,295.48632 126.12381,299.02687 C126.02416,302.56741 125.56957,306.05413 126.27468,309.67131 C126.45096,310.5756 126.69972,311.48805 127.37753,311.75435 C128.05534,312.02065 129.16219,311.64079 130.2062,311.56431 C131.25021,311.48783 132.23138,311.71472 132.82339,312.23329 C134.00742,313.27043 133.63483,315.47431 133.55161,317.32528 C133.4684,319.17626 133.67456,320.67433 133.50539,322.51626 C133.42081,323.43722 133.24239,324.44415 133.55994,325.23745 C133.87749,326.03076 134.691,326.61045 135.58036,326.75509 C136.46972,326.89974 137.43494,326.60934 138.3573,326.63834 C139.27965,326.66734 140.15915,327.01574 140.65824,327.61526 C141.65642,328.81431 141.13297,331.01783 141.01099,332.85668 C140.889,334.69553 141.16849,336.16971 141.04496,338.04863 C140.9832,338.98809 140.82069,340.02873 141.22139,340.72629 C141.6221,341.42384 142.58604,341.77832 143.52276,341.81675 C144.45947,341.85519 145.36898,341.57758 146.27784,341.66061 C147.18671,341.74364 148.09494,342.18731 148.47691,342.90053 C149.24086,344.32697 147.8998,346.8316 148.71892,348.21669 C149.12848,348.90924 150.07809,349.3219 151.00132,349.36327 C151.92456,349.40464 152.82141,349.07472 153.73194,349.13147 C154.64248,349.18822 155.5667,349.63164 155.96173,350.34046 C156.35676,351.04928 156.2226,352.0235 156.08589,352.99852 C155.94918,353.97354 155.80993,354.94935 156.19659,355.66324 C156.58325,356.37713 157.49583,356.82911 158.43097,356.87232 C159.36611,356.91554 160.32381,356.54999 161.19724,356.61794 C162.07067,356.68589 162.85984,357.18732 163.30073,357.87137 C164.1825,359.23947 163.67114,361.33802 163.53708,363.14666 C163.40301,364.95529 163.64626,366.47401 163.58783,368.36059 C163.55862,369.30389 163.45399,370.33914 163.90124,370.98911 C164.34848,371.63908 165.3476,371.90376 166.30538,371.88945 C167.26317,371.87513 168.17961,371.58183 169.0491,371.70269 C169.9186,371.82354 170.74114,372.35857 171.07457,373.13142 C171.74141,374.67711 170.45176,377.17411 171.36261,378.43303 C171.81804,379.06249 172.82359,379.38243 173.7748,379.39144 C174.72602,379.40045 175.6229,379.09853 176.50739,379.21998 C177.39187,379.34143 178.26396,379.88625 178.59452,380.63747 C178.92509,381.38868 178.71414,382.34629 178.58504,383.32124 C178.45594,384.29619 178.40869,385.28849 178.86894,385.94104 C179.32918,386.59358 180.29692,386.90638 181.23639,386.90712 C182.17586,386.90787 183.08707,386.59655 183.97148,386.69205 C184.8559,386.78755 185.71352,387.28986 186.0646,388.04457 C186.76677,389.55399 185.44276,392.07302 186.31139,393.34858 C186.7457,393.98636 187.72816,394.31327 188.67115,394.4287 C189.61414,394.54413 190.51765,394.44809 191.38894,394.37929 C193.13152,394.2417 194.7452,394.21313 196.60883,394.21938 C198.47245,394.22563 200.58602,394.2667 201.12317,395.77376 C201.66033,397.28081 200.62108,400.25386 201.54566,401.27534 C202.47025,402.29682 205.35866,401.36674 206.93446,401.85137 C208.51025,402.336 208.77342,404.23535 208.77047,406.22549 C208.769,407.22057 208.70099,408.23834 209.16699,408.77743 C209.63299,409.31653 210.633,409.37694 211.59822,409.39969 C214.49388,409.46797 217.0765,409.19737 219.64913,409.27375 C221.36421,409.32468 223.07486,409.52982 224.94265,409.384 C226.81045,409.23819 228.83539,408.74142 230.14939,409.68237 C230.8064,410.15284 231.28567,410.98275 231.32341,411.89155 C231.36115,412.80034 230.95736,413.78803 231.09133,414.66024 C231.22529,415.53246 231.897,416.28921 232.68287,416.65198 C233.46874,417.01475 234.36876,416.98354 235.26639,416.95686 C242.44737,416.74342 249.47463,416.81959 256.55563,416.8447 C263.63663,416.86981 270.77138,416.84386 277.78938,416.80834 C278.66664,416.8039 279.54206,416.79932 280.49018,416.7865 C281.43829,416.77368 282.4591,416.75264 283.05536,417.24455 C283.65162,417.73645 283.82333,418.74131 283.79113,419.71083 C283.75894,420.68035 283.52284,421.61452 283.737,422.46555 C283.95115,423.31657 284.61555,424.08444 285.42271,424.36627 C286.22986,424.6481 287.17976,424.44389 288.09343,424.37781 C289.0071,424.31172 289.88454,424.38377 290.75419,424.38538 C292.49347,424.38859 294.20156,424.11002 296.07497,424.31429 C297.01168,424.41643 297.98972,424.63927 298.45491,425.25381 C298.9201,425.86835 298.87244,426.87459 298.78131,427.88708 C298.69018,428.89956 298.55559,429.91829 298.94599,430.59004 C299.33639,431.2618 300.25179,431.58658 301.14833,431.79286 C302.94141,432.20543 304.65907,432.14402 306.50154,431.77279 C307.42278,431.58718 308.37522,431.32412 308.75089,430.69343 C309.12656,430.06275 308.92546,429.06444 308.77656,428.01259 C308.62765,426.96074 308.53093,425.85534 308.95111,425.24314 C309.37129,424.63093 310.30836,424.51193 311.22928,424.42937 C314.91297,424.09914 318.33814,424.35217 321.84769,424.39238 C325.35723,424.43258 328.95115,424.25997 332.4187,424.32364 C333.28559,424.33956 334.14458,424.37025 335.07074,424.43259 C335.9969,424.49492 336.99024,424.5889 337.7146,424.19141 C338.43897,423.79392 338.89437,422.90496 338.95008,422.00225 C339.0058,421.09954 338.66183,420.18307 338.70753,419.26848 C338.75323,418.35389 339.18859,417.44118 339.88373,417.02738 C340.57886,416.61357 341.53375,416.69868 342.46237,416.75711 C344.31961,416.87396 346.07177,416.88408 347.79714,416.86684 C350.38519,416.84099 352.91298,416.7536 355.74319,416.79632 C356.68659,416.81056 357.66359,416.83925 358.23797,417.34212 C358.81235,417.84498 358.9841,418.82202 358.88445,419.80065 C358.78479,420.77927 358.41372,421.75948 358.81318,422.52782 C359.21265,423.29615 360.38266,423.85262 360.96687,423.58812 C361.55109,423.32362 361.54952,422.23815 361.43897,421.16134 C361.32842,420.08453 361.10889,419.01637 361.34462,418.28305 C361.81607,416.81643 364.10857,416.68919 365.97052,416.71238 C367.83247,416.73557 369.26388,416.9092 371.0834,416.962 C372.90292,417.0148 375.11054,416.94678 376.00602,415.76425 C376.9015,414.58173 376.48482,412.28471 376.3639,410.45149 C376.24298,408.61826 376.41782,407.24884 376.34306,405.31265 C376.30568,404.34456 376.2059,403.23478 376.65468,402.62606 C377.10345,402.01734 378.10079,401.90969 379.03945,401.83085 C380.91677,401.67317 382.55941,401.63074 384.31765,401.78395 C386.0759,401.93716 387.94977,402.28601 389.62108,401.71791 C390.45674,401.43386 391.24177,400.92057 391.48496,400.16461 C391.72816,399.40865 391.42953,398.41002 391.33041,397.41672 C391.23129,396.42342 391.33169,395.43546 391.87891,394.87101 C392.42613,394.30657 393.42019,394.16565 394.38773,394.22883 C395.35527,394.292 396.29631,394.55927 397.11801,394.37893 C397.93971,394.19859 398.64208,393.57064 398.91288,392.7418 C399.45446,391.08414 398.26975,388.62294 399.28768,387.4742 C399.79664,386.89982 400.85626,386.65356 401.83478,386.6928 C402.81329,386.73204 403.71069,387.05679 404.54013,386.8972 C405.36956,386.73762 406.13104,386.0937 406.42663,385.2533 C406.72222,384.41289 406.55193,383.37599 406.46778,382.46283 C406.29948,380.63649 406.47577,379.30509 406.41073,377.39682 C406.34568,375.48854 406.0393,373.00341 407.16998,372.1975 C408.30065,371.3916 410.86837,372.26492 412.48447,371.67638 C413.29253,371.38211 413.86267,370.72238 414.00881,369.90516 C414.15495,369.08794 413.87709,368.11323 413.83708,367.13604 C413.79707,366.15885 413.9949,365.17917 414.59336,364.66623 C415.19182,364.15329 416.19091,364.1071 417.15916,364.2122 C418.12741,364.31731 419.06482,364.57371 419.87082,364.30899 C420.67681,364.04426 421.35138,363.25841 421.52941,362.41966 C421.70744,361.58091 421.38892,360.68927 421.34319,359.71042 C421.29746,358.73156 421.52452,357.6655 422.09159,357.15031 C423.22575,356.11993 425.72001,357.29306 427.3528,356.76926 C428.1692,356.50737 428.77022,355.82123 428.99329,354.975 C429.21636,354.12877 429.06148,353.12244 428.98636,352.21015 C428.83612,350.38556 429.00494,348.93713 428.93794,347.0616 C428.87093,345.18607 428.56809,342.88345 429.84752,342.05153 C430.48723,341.63557 431.52251,341.58728 432.51594,341.67945 C433.50936,341.77163 434.46093,342.00426 435.19672,341.67381 C435.93252,341.34336 436.45255,340.44981 436.55983,339.54746 C436.66711,338.6451 436.36165,337.73393 436.39663,336.80618 C436.4316,335.87843 436.80701,334.93409 437.47345,334.4856 C438.13988,334.0371 439.09734,334.08446 440.10067,334.17217 C441.10399,334.25988 442.15317,334.38795 442.83814,334.07312 C444.20808,333.44348 444.12115,331.04225 444.05065,329.16799 C443.98015,327.29374 443.92608,325.94645 443.8846,324.07191 C443.84312,322.19738 443.81423,319.7956 445.27234,319.27891 C446.0014,319.02056 447.10221,319.23349 448.11253,319.27947 C449.12286,319.32544 450.0427,319.20447 450.62829,318.75417 C451.79947,317.85358 451.63366,315.63569 451.54332,313.71223 C451.45299,311.78878 451.43813,310.15975 451.44512,308.44622 C451.45908,305.01914 451.56041,301.25399 451.49905,297.76363 C451.46838,296.01845 451.39703,294.34198 451.39873,292.43679 C451.39958,291.4842 451.41868,290.47442 451.91799,289.85445 C452.4173,289.23448 453.3968,289.00431 454.40486,289.06989 C455.41292,289.13548 456.44952,289.49683 457.22092,289.28527 C457.99232,289.07371 458.49852,288.28925 458.79871,287.46149 C459.39909,285.80596 459.17547,283.97724 459.05146,282.17093 C458.80344,278.55832 458.95389,275.03536 459.00416,271.49175 C459.04185,268.83404 459.02319,266.16472 459.00985,263.49904 C458.93871,249.28211 459.019,235.16887 458.99676,221.42011 C458.98564,214.54573 458.94888,207.76247 459.02059,201.06813 C459.03852,199.39454 459.06323,197.72651 458.93025,196.06874 C458.86376,195.23986 458.75785,194.41354 458.92239,193.55394 C459.08692,192.69434 459.52189,191.80147 460.23316,191.48677 C461.6557,190.85737 464.18339,192.54069 465.20846,191.43055 C465.721,190.87548 465.85787,189.62205 465.36196,189.11046 z" id="C33P1thinF_IMG_20150619_114756a_cell_181" class="data contour"/>
		<path d="M 510.42011 158.99709 C509.95959,158.44762 508.574,158.98534 507.39055,159.09003 C506.2071,159.19471 505.2258,158.86636 504.6354,158.23094 C503.4546,156.9601 503.8374,154.46099 504.05647,152.39161 C504.27553,150.32222 504.33085,148.68255 503.98302,146.56127 C503.80911,145.50063 503.5344,144.31959 502.79549,143.93869 C502.05658,143.5578 500.85345,143.97706 499.70033,144.06038 C498.54721,144.14369 497.44409,143.89108 496.90684,143.20938 C496.36958,142.52769 496.39819,141.41692 496.44152,140.34827 C496.52819,138.21095 496.67373,136.24206 496.61381,134.31551 C496.5539,132.38896 496.28852,130.50473 496.46025,128.42888 C496.63199,126.35303 497.24084,124.08555 496.20323,122.58746 C495.68443,121.83841 494.75401,121.2817 493.72104,121.27344 C492.68808,121.26518 491.55257,121.80537 490.66294,121.5458 C489.7733,121.28624 489.12955,120.22693 488.92057,119.19705 C488.71159,118.16717 488.93739,117.16672 489.03147,116.19257 C489.21963,114.24428 488.8809,112.40118 489.04295,110.27343 C489.12397,109.20956 489.33019,108.07453 488.83643,107.3624 C488.34266,106.65027 487.14892,106.36105 486.0466,106.38276 C484.94428,106.40448 483.93339,106.73714 483.07423,106.38338 C482.21507,106.02963 481.50764,104.98945 481.40537,103.97556 C481.30311,102.96167 481.806,101.97405 481.64947,101.00976 C481.49293,100.04548 480.67698,99.10451 479.73887,98.822599 C478.80076,98.540688 477.7405,98.917831 476.70811,98.952075 C475.67571,98.98632 474.67117,98.677666 474.20884,97.906534 C473.28418,96.36427 474.52835,92.972093 473.4835,91.895241 C472.43864,90.818388 469.10476,92.05686 467.52531,91.183207 C466.73559,90.746381 466.38448,89.781524 466.41868,88.760295 C466.45289,87.739067 466.8724,86.661467 466.60982,85.719066 C466.34723,84.776664 465.40254,83.969461 464.44449,83.791136 C463.48644,83.612812 462.51502,84.063365 461.47483,83.987277 C460.43463,83.911188 459.32566,83.308458 458.96418,82.48657 C458.6027,81.664681 458.98871,80.623633 459.07916,79.518725 C459.1696,78.413816 458.96448,77.245047 458.26039,76.709033 C457.55631,76.173019 456.35327,76.269761 455.28638,76.322919 C453.15261,76.429235 451.56344,76.361215 449.48134,76.423898 C447.39924,76.486582 444.82421,76.67997 444.11556,75.103927 C443.40691,73.527885 444.56466,70.182413 443.33412,69.192696 C442.10358,68.202979 438.48475,69.569016 437.21848,68.608133 C435.9522,67.647249 437.03847,64.359445 436.33615,62.758585 C435.63384,61.157725 433.14293,61.243809 431.07153,61.285766 C429.00012,61.327723 427.34823,61.325554 425.19654,61.43685 C424.12069,61.492498 422.91989,61.576513 422.23247,61.05056 C421.54504,60.524608 421.371,59.388688 421.42882,58.238768 C421.48664,57.088849 421.77634,55.924929 421.36496,55.179082 C420.95358,54.433235 419.84113,54.105462 418.79065,53.916832 C415.6392,53.350942 413.04546,54.037345 409.82065,54.000466 C408.74571,53.988173 407.60066,53.895516 406.98628,53.287738 C406.37189,52.679961 406.28819,51.557063 406.37911,50.39607 C406.47004,49.235076 406.7356,48.035987 406.30326,47.333591 C405.87091,46.631195 404.74065,46.425492 403.66681,46.31944 C401.51913,46.107336 399.59709,46.293836 397.63945,46.360894 C395.68181,46.427952 393.68856,46.375568 391.6926,46.345917 C383.70879,46.227313 375.68172,46.472432 367.78611,46.309026 C365.81221,46.268174 363.84653,46.20179 361.69276,46.35925 C360.61588,46.43798 359.49198,46.572672 359.03916,47.24911 C358.58634,47.925548 358.8046,49.143732 358.92202,50.327061 C359.03943,51.51039 359.05601,52.658864 358.42652,53.244094 C357.79704,53.829325 356.52149,53.851313 355.42428,53.868939 C353.22987,53.904189 351.74881,53.921987 349.61324,53.806219 C347.47767,53.690451 344.68758,53.441116 344.02942,55.001518 C343.70034,55.781718 343.90424,57.014353 343.88795,58.139812 C343.87166,59.265271 343.63517,60.283555 343.04126,60.859657 C341.85343,62.011861 339.23587,61.395338 337.12893,61.276414 C336.07546,61.216953 335.14964,61.281891 334.20053,61.325024 C330.4041,61.497554 326.23505,61.321196 322.24406,61.326212 C318.25307,61.331227 314.44014,61.517618 310.26357,61.255637 C309.21943,61.190142 308.15256,61.096623 307.38895,61.613192 C306.62534,62.12976 306.165,63.256416 306.17038,64.383697 C306.17575,65.510979 306.64684,66.638887 306.33908,67.425298 C306.03131,68.211709 304.94469,68.656624 303.88907,68.873068 C301.77784,69.305958 299.79062,68.824968 297.89525,68.773723 C296.94756,68.748101 296.02284,68.829915 294.89891,68.841188 C293.77498,68.852461 292.45185,68.793192 291.81761,69.313185 C290.54912,70.353171 292.03619,73.710202 291.1287,75.233963 C290.67495,75.995844 289.62257,76.299407 288.59546,76.422612 C287.56835,76.545817 286.56652,76.488664 285.56571,76.446906 C281.5625,76.279874 277.57575,76.359166 273.5843,76.388056 C266.59925,76.438612 259.5998,76.334811 252.61508,76.35333 C244.63254,76.374494 236.66925,76.555425 228.67447,76.231805 C227.67512,76.191352 226.67528,76.143016 225.70788,76.432897 C224.74048,76.722779 223.80552,77.350877 223.56341,78.263744 C223.3213,79.17661 223.77204,80.374245 223.74905,81.406771 C223.72605,82.439297 223.22933,83.306715 222.38265,83.708715 C220.68929,84.512716 217.59613,83.455046 216.5831,84.612463 C215.57006,85.76988 216.63717,89.142383 215.76557,90.590889 C214.89398,92.039395 212.08369,91.563904 209.95927,91.374669 C207.83485,91.185433 206.3963,91.282454 204.21502,91.436841 C203.12438,91.514034 201.84805,91.605568 201.32762,92.260435 C200.80718,92.915302 201.04262,94.133502 201.13574,95.238019 C201.32199,97.447051 200.93894,99.201349 201.13911,101.1663 C201.2392,102.14878 201.4851,103.18392 201.26173,104.20187 C201.03835,105.21981 200.34571,106.22057 199.47321,106.50818 C198.60071,106.79578 197.54836,106.37023 196.47147,106.32764 C195.39459,106.28505 194.29316,106.62543 193.81501,107.38806 C192.8587,108.91332 194.39548,112.12759 193.23455,113.29444 C192.65409,113.87787 191.39919,113.94943 190.29863,113.98887 C189.19808,114.0283 188.25186,114.0356 187.3025,113.99678 C185.40379,113.91914 183.49252,113.65701 181.36534,113.90686 C180.30175,114.03179 179.18419,114.28472 178.73605,114.99883 C178.28791,115.71294 178.5092,116.88824 178.59834,117.96785 C178.77662,120.12707 178.42633,121.90353 178.62202,123.88451 C178.71986,124.875 178.95419,125.91663 178.68826,126.90274 C178.42233,127.88886 177.65612,128.81947 176.73298,129.07373 C175.80984,129.32798 174.72976,128.90588 173.71395,128.91548 C172.69814,128.92508 171.74659,129.36638 171.30616,130.20563 C170.42529,131.88414 171.58888,135.15446 170.40688,136.11487 C169.22489,137.07527 165.6973,135.72576 164.39314,136.75801 C163.74106,137.27413 163.64483,138.3857 163.58115,139.44694 C163.51748,140.50818 163.48635,141.51911 163.50637,142.4956 C163.54643,144.44857 163.79112,146.2638 163.68386,148.40627 C163.63023,149.47751 163.48861,150.63057 162.82809,151.16098 C162.16756,151.6914 160.98812,151.59918 159.8354,151.48625 C158.68267,151.37332 157.55667,151.23967 156.90224,151.74684 C156.24782,152.254 156.06496,153.40197 155.99973,154.48593 C155.86926,156.65384 156.20927,158.5657 156.18187,160.47797 C156.15448,162.39024 155.75968,164.30291 156.03277,166.45832 C156.16931,167.53603 156.47283,168.67442 157.2756,169.02147 C158.07837,169.36851 159.3804,168.92421 160.46814,168.88243 C162.64362,168.79888 163.96196,170.32546 163.8139,172.51309 C163.73987,173.60691 163.29924,174.86599 163.71463,175.63459 C164.13002,176.40318 165.40144,176.6813 166.53852,176.61316 C167.6756,176.54502 168.67835,176.13063 169.50055,176.43462 C170.32276,176.7386 170.96442,177.76096 171.1991,178.7779 C171.43379,179.79484 171.2615,180.80635 171.15813,181.80034 C170.74462,185.77629 171.43365,189.47179 171.10013,193.68807 C171.01675,194.74214 170.86946,195.82875 170.19864,196.31015 C169.52782,196.79155 168.33348,196.66773 167.17784,196.55695 C166.0222,196.44617 164.90526,196.34844 164.25381,196.89521 C163.60236,197.44197 163.4164,198.63324 163.5096,199.75069 C163.60279,200.86815 163.97515,201.9118 163.5982,202.71918 C163.22124,203.52657 162.09498,204.09769 161.04367,204.15594 C159.99236,204.2142 159.01601,203.75959 158.07056,203.95368 C157.12511,204.14777 156.21057,204.99057 155.96696,205.95233 C155.72336,206.91409 156.15069,207.99481 156.16786,209.00307 C156.18502,210.01133 155.79202,210.94711 154.9798,211.36898 C153.35536,212.21272 150.05407,211.00079 149.03876,212.11212 C148.02345,213.22344 149.29412,216.65801 148.34297,218.15382 C147.8674,218.90173 146.83637,219.16494 145.78238,219.11084 C144.72839,219.05673 143.65145,218.6853 142.75135,219.00336 C141.85126,219.32142 141.12802,220.32897 140.98893,221.32073 C140.84985,222.31248 141.29492,223.28845 141.15287,224.30036 C141.01081,225.31227 140.28164,226.36013 139.41469,226.66123 C138.54774,226.96233 137.54302,226.51669 136.44218,226.47671 C135.34135,226.43673 134.14441,226.80243 133.69638,227.55903 C133.24836,228.31564 133.54925,229.46315 133.59581,230.51643 C133.64237,231.5697 133.43458,232.52874 133.41966,233.49793 C133.38983,235.43632 134.13146,237.41534 133.57608,239.43546 C133.29839,240.44552 132.69645,241.46585 131.84848,241.72675 C131.00051,241.98765 129.90651,241.48911 128.82455,241.47876 C127.74258,241.46841 126.67265,241.94625 126.19901,242.72951 C125.72536,243.51278 125.84799,244.60147 125.93397,245.64992 C126.10594,247.7468 126.13131,249.68267 126.10726,251.64486 C126.05914,255.56923 125.81331,259.59887 126.07484,263.57263 C126.20561,265.5595 126.46322,267.53241 125.90704,269.52836 C125.62896,270.52633 125.14743,271.53006 124.31398,271.77135 C123.48052,272.01263 122.29515,271.49147 121.18379,271.50752 C120.07243,271.52358 119.03508,272.07685 118.60995,272.89856 C118.18483,273.72027 118.37192,274.81041 118.47493,275.85781 C118.68093,277.95261 118.55057,279.87645 118.5184,281.85183 C118.48622,283.8272 118.55223,285.85411 118.55442,287.85452 C118.55661,289.85493 118.49498,291.82886 118.49307,293.82086 C118.48924,297.80487 118.72427,301.8612 118.47544,305.77667 C118.41323,306.75553 118.32078,307.7256 118.42343,308.80783 C118.52607,309.89007 118.82381,311.08449 119.52877,311.55057 C120.23372,312.01665 121.34588,311.7544 122.51344,311.65596 C123.681,311.55753 124.90395,311.62292 125.50832,312.22773 C126.11269,312.83254 126.09846,313.97678 126.09021,315.05523 C126.07371,317.21214 126.0811,319.10593 126.05219,321.06105 C126.02329,323.01617 125.9581,325.03262 126.0007,327.04425 C126.0433,329.05587 126.19369,331.06267 126.11429,333.01713 C126.03489,334.97159 125.7257,336.87371 125.98939,339.01999 C126.12123,340.09313 126.3963,341.22731 127.10728,341.6585 C127.81827,342.0897 128.96518,341.8179 130.13113,341.6981 C131.29708,341.57831 132.48208,341.6105 133.05577,342.24628 C133.62947,342.88205 133.59187,344.12141 133.57988,345.20775 C133.55591,347.38045 133.63439,348.94111 133.52962,351.03614 C133.42485,353.13118 133.13683,355.76058 134.68505,356.53591 C136.23327,357.31124 139.61773,356.2325 140.64337,357.36498 C141.669,358.49746 140.33582,361.84117 141.3021,363.35059 C141.78524,364.1053 142.84325,364.40145 143.90024,364.34579 C144.95723,364.29014 146.01321,363.8827 146.92151,364.18441 C147.82981,364.48611 148.59042,365.49696 148.71361,366.4855 C148.8368,367.47404 148.32255,368.44027 148.42784,369.45502 C148.53314,370.46976 149.25796,371.53301 150.12498,371.84352 C150.992,372.15404 152.00122,371.71182 153.09462,371.65575 C154.18802,371.59968 155.3656,371.92975 155.864,372.65029 C156.36241,373.37082 156.18163,374.48182 156.04819,375.60827 C155.91475,376.73472 155.82865,377.87662 156.37689,378.5482 C156.92512,379.21977 158.1077,379.42103 159.21349,379.34236 C160.31929,379.26369 161.34832,378.9051 162.18417,379.27135 C163.02002,379.6376 163.66271,380.72869 163.72974,381.7607 C163.79678,382.79271 163.28817,383.76564 163.4561,384.72455 C163.62403,385.68346 164.46849,386.62834 165.40681,386.89063 C166.34513,387.15291 167.3773,386.73259 168.41781,386.7191 C169.45832,386.70561 170.50718,387.09895 170.96134,387.88456 C171.86966,389.45579 170.39919,392.59613 171.60894,393.74741 C172.21382,394.32306 173.48875,394.40143 174.58662,394.42412 C175.6845,394.4468 176.60532,394.41379 177.54543,394.35265 C179.42564,394.23038 181.38298,393.99557 183.46653,394.33654 C184.50831,394.50702 185.58164,394.82145 186.00538,395.55547 C186.42912,396.28948 186.20328,397.44309 186.128,398.59574 C186.05273,399.7484 186.12802,400.90011 186.78933,401.44337 C187.45065,401.98663 188.69798,401.92143 189.78117,401.88138 C191.94756,401.80129 193.45739,401.82182 195.56073,401.75949 C197.66407,401.69717 200.36093,401.55198 201.01408,403.09491 C201.34066,403.86637 201.15631,405.05986 201.12413,406.21267 C201.09196,407.36548 201.21195,408.47761 201.88056,408.99525 C202.54917,409.51288 203.76639,409.43602 204.83968,409.37764 C205.91297,409.31926 206.84233,409.27936 207.81017,409.30785 C208.77801,409.33634 209.78434,409.43323 210.76787,409.35523 C211.7514,409.27722 212.71213,409.02433 213.74432,409.19981 C214.77651,409.37529 215.88015,409.97914 216.21801,410.80161 C216.55587,411.62407 216.12793,412.66514 216.05436,413.77358 C215.98079,414.88202 216.26158,416.05783 216.99216,416.575 C217.72273,417.09217 218.90308,416.9507 219.95913,416.88344 C221.01519,416.81618 221.94695,416.82313 222.90423,416.82763 C226.73333,416.84566 230.97073,416.82464 234.78035,416.8462 C236.68516,416.85698 238.48302,416.87841 240.63689,416.79139 C242.79077,416.70436 245.30064,416.50887 246.00172,418.05453 C246.70281,419.60018 245.5951,422.88697 246.84377,423.91604 C247.46811,424.43057 248.68154,424.38067 249.76652,424.38375 C250.8515,424.38682 251.80803,424.44286 252.75778,424.41866 C254.65727,424.37025 256.52962,424.00086 258.64461,424.35468 C259.7021,424.53159 260.82024,424.8893 261.21329,425.58948 C261.60633,426.28966 261.27428,427.3323 261.16258,428.56745 C261.05088,429.80261 261.15955,431.23026 261.7993,431.39521 C262.43906,431.56016 263.60991,430.4624 263.86684,429.39117 C264.12377,428.31995 263.46678,427.27525 263.60948,426.40882 C263.75218,425.5424 264.69457,424.85424 265.65639,424.49581 C267.58003,423.77894 269.58139,424.38096 271.50636,424.40697 C272.46885,424.41997 273.41224,424.28898 274.41729,424.36602 C275.42234,424.44307 276.48905,424.72817 277.33984,424.3413 C278.19063,423.95444 278.8255,422.89561 278.8914,421.88888 C278.9573,420.88215 278.45422,419.92752 278.60118,418.98001 C278.74814,418.03251 279.54513,417.09212 280.45244,416.76671 C281.35975,416.4413 282.37739,416.73087 283.36377,416.84519 C285.33654,417.07383 287.18431,416.60152 289.15542,416.83156 C290.14097,416.94658 291.15737,417.23719 292.0505,416.91328 C292.94364,416.58937 293.71352,415.65093 293.87871,414.7078 C294.04391,413.76467 293.60441,412.81684 293.66777,411.81702 C293.73113,410.8172 294.29735,409.76538 295.09845,409.35465 C295.89955,408.94392 296.93555,409.17427 297.93246,409.28876 C299.92629,409.51774 301.76382,409.28326 303.63222,409.28313 C305.50062,409.283 307.39989,409.51721 309.27051,409.30957 C310.20582,409.20576 311.13397,408.99148 312.04797,409.25834 C312.96196,409.52521 313.8618,410.27323 313.93015,411.23249 C313.99851,412.19174 313.23537,413.36224 313.68525,413.91977 C314.13512,414.4773 315.798,414.42186 316.30158,413.74396 C316.80516,413.06605 316.14944,411.76568 316.30734,410.92528 C316.46523,410.08488 317.43675,409.70446 318.38131,409.46505 C320.27044,408.98621 322.05174,409.07139 323.92894,409.29533 C325.80613,409.51927 327.77921,409.88198 329.55816,409.15278 C330.44764,408.78819 331.28858,408.15061 331.47389,407.30099 C331.65921,406.45136 331.18891,405.38968 331.24291,404.36018 C331.29692,403.33069 331.87523,402.33338 332.66792,401.92721 C333.4606,401.52105 334.46766,401.70603 335.53787,401.78351 C336.60808,401.861 337.74144,401.83099 338.35181,401.24617 C338.96217,400.66136 339.04953,399.52175 338.92375,398.43126 C338.79796,397.34078 338.45903,396.29943 338.8544,395.53776 C339.24976,394.7761 340.37942,394.29413 341.41618,394.24493 C342.45293,394.19572 343.39678,394.57929 344.33248,394.35134 C345.26817,394.12339 346.19571,393.28393 346.43895,392.39674 C346.68218,391.50954 346.24112,390.57461 346.2237,389.49772 C346.20628,388.42084 346.6125,387.202 347.42168,386.82572 C348.23086,386.44945 349.44299,386.91575 350.50554,386.99261 C352.63064,387.14633 354.15738,385.74231 354.02322,383.63628 C353.95614,382.58326 353.47384,381.35473 353.8257,380.50605 C354.17756,379.65737 355.3636,379.18853 356.43303,379.17745 C357.50247,379.16637 358.45532,379.61304 359.36508,379.39428 C360.27484,379.17552 361.14151,378.29133 361.39349,377.33191 C361.64547,376.37249 361.28275,375.33783 361.31091,374.32175 C361.33907,373.30567 361.7581,372.30816 362.56722,371.88823 C364.18545,371.04839 367.36397,372.5189 368.37704,371.26877 C368.88357,370.6437 368.84874,369.33848 368.87701,368.22851 C368.90527,367.11854 368.99663,366.20383 368.98119,365.27081 C368.95032,363.40476 368.49227,361.46549 368.79963,359.36078 C368.9533,358.30843 369.29833,357.21471 370.03411,356.80914 C370.7699,356.40357 371.89643,356.68614 373.03964,356.80268 C374.18286,356.91922 375.34275,356.86973 375.90833,356.22207 C376.47392,355.57442 376.44519,354.32861 376.42897,353.24809 C376.39653,351.08704 376.41415,349.58715 376.33157,347.4876 C376.249,345.38805 376.06625,342.68884 377.55761,341.93088 C379.04898,341.17293 382.21446,342.35624 383.40084,341.10763 C383.99403,340.48333 384.09244,339.25105 384.04461,338.1779 C383.99678,337.10475 383.80271,336.19073 383.79867,335.23048 C383.79463,334.27024 383.98062,333.26377 383.93974,332.2813 C383.89886,331.29883 383.63111,330.34035 383.77725,329.31449 C383.92339,328.28863 384.48343,327.19539 385.29035,326.7913 C386.09726,326.38721 387.15106,326.67227 388.26516,326.73142 C389.37926,326.79057 390.55366,326.62382 391.09061,325.94154 C391.62757,325.25927 391.52707,324.06147 391.46805,322.98856 C391.35001,320.84272 391.39785,319.1964 391.34501,317.12852 C391.29216,315.06065 391.13863,312.57121 392.73494,311.84803 C394.33124,311.12484 397.6774,312.16791 398.63335,310.95558 C399.58929,309.74325 398.15503,306.27552 399.2147,304.89651 C399.74453,304.20701 400.89785,304.03968 401.9952,304.13255 C403.09256,304.22541 404.13395,304.57846 404.9829,304.21618 C405.83185,303.8539 406.48836,302.7763 406.56062,301.75399 C406.63289,300.73167 406.1209,299.76463 406.28273,298.78162 C406.44457,297.79862 407.28021,296.79964 408.19814,296.56013 C409.11607,296.32062 410.11627,296.84057 411.1649,296.81792 C412.21354,296.79526 413.3106,296.22999 413.7858,295.42494 C414.261,294.61989 414.11433,293.57504 414.02142,292.54849 C413.64981,288.44229 414.13843,284.62874 413.92204,280.68251 C413.86794,279.69595 413.76978,278.7011 413.81029,277.64872 C413.8508,276.59634 414.02998,275.48644 414.56631,274.83194 C415.63899,273.52292 418.14029,274.03548 420.26862,274.1921 C422.39696,274.34873 424.15232,274.14941 426.07023,274.08503 C427.98815,274.02064 430.06861,274.09118 432.09645,274.26946 C433.11037,274.3586 434.11114,274.47467 434.97023,274.0325 C435.82933,273.59033 436.54675,272.58993 436.62878,271.58303 C436.7108,270.57613 436.15743,269.56273 436.35655,268.62256 C436.55568,267.68238 437.50729,266.81543 438.46767,266.59155 C439.42806,266.36767 440.39722,266.78685 441.44538,266.7133 C442.49354,266.63975 443.62069,266.07347 443.99156,265.26316 C444.36243,264.45285 443.97702,263.39851 443.87629,262.28974 C443.77556,261.18097 443.95952,260.01777 444.65871,259.48038 C445.3579,258.94299 446.57233,259.03142 447.64271,259.07687 C449.78347,259.16778 451.34805,259.08678 453.43206,259.16055 C455.51607,259.23432 458.1195,259.46287 458.8519,257.8982 C459.58431,256.33354 458.44567,252.97566 459.66915,251.96163 C460.89263,250.94759 464.47821,252.2774 465.73817,251.33551 C466.99814,250.39361 465.93249,247.18001 466.61861,245.57128 C467.30474,243.96255 469.74265,243.9587 471.80324,243.99784 C473.86384,244.03699 475.54712,244.11914 477.631,244.23063 C478.67294,244.28638 479.81502,244.34947 480.56602,243.81619 C481.31702,243.28291 481.67692,242.15326 481.63181,241.07872 C481.5867,240.00419 481.13657,238.98476 481.44699,238.1275 C481.75741,237.27025 482.82838,236.57516 483.84826,236.47315 C484.86814,236.37113 485.83693,236.8622 486.80214,236.71086 C487.76734,236.55953 488.72895,235.7658 489.03455,234.85128 C489.34015,233.93676 488.98973,232.90144 488.98415,231.84845 C488.97858,230.79546 489.31785,229.72479 490.06011,229.26529 C491.54461,228.34627 494.64105,229.87188 495.88402,228.70236 C496.5055,228.1176 496.66361,226.85906 496.57771,225.73 C496.4918,224.60095 496.16187,223.60137 496.56313,222.82838 C496.9644,222.05539 498.09685,221.50898 499.14433,221.47132 C500.19181,221.43365 501.1543,221.90474 502.07719,221.70162 C503.00007,221.49851 503.88336,220.62121 504.15458,219.66832 C504.4258,218.71544 504.08496,217.68698 504.01554,216.71753 C503.94613,215.74808 504.14815,214.83763 504.14939,213.86394 C504.15188,211.91657 503.35127,209.71625 504.25314,208.04262 C504.70407,207.20581 505.58063,206.50067 506.54851,206.41694 C507.5164,206.3332 508.57562,206.87087 509.49922,206.71474 C510.42281,206.55861 511.21078,205.70867 511.55475,204.77658 C511.89873,203.8445 511.79871,202.83026 511.69927,201.85537 C511.5004,199.90558 511.30386,198.11314 511.47877,196.16253 C511.65368,194.21192 512.20004,192.10315 511.35649,190.45944 C510.93471,189.63759 510.16545,188.932 509.25292,188.85345 C508.34039,188.77489 507.28459,189.32337 506.3164,189.21229 C505.34821,189.10121 504.46764,188.33058 504.09793,187.47105 C503.72823,186.61152 503.86938,185.6631 503.96095,184.71409 C504.32723,180.91806 503.90011,177.11268 504.01032,173.46196 C504.06542,171.63659 504.25487,169.84989 504.09911,167.90873 C503.94335,165.96756 503.4424,163.87192 504.44918,162.47027 C504.95257,161.76944 505.83289,161.24212 506.81277,161.32931 C507.79264,161.41649 508.87207,162.11819 509.64407,161.65071 C510.41606,161.18323 510.88063,159.54656 510.42011,158.99709 z" id="C33P1thinF_IMG_20150619_114756a_cell_182" class="data contour"/>
	</g>
	<g id="scale bar" class="layer">
		<g id="scalebar lines">
			<line id="scalebar" class="scalebar" x1="30" x2="80.067516" y1="480" y2="480"/>
			<line id="scalebar left tic" class="scalebar tic" x1="30" x2="30" y1="478.5" y2="481.5"/>
			<line id="scalebar right tic" class="scalebar tic" x1="80.067516" x2="80.067516" y1="478.5" y2="481.5"/>
		</g>
		<text font-size="12" class="scalebar label" text-anchor="middle" x="55.033758" y="493.5">20 pixels</text>
	</g>
</svg>
