<?xml version='1.0' encoding='UTF-8'?>
<!DOCTYPE svg PUBLIC "-//W3C//DTD SVG 1.0//EN" "http://www.w3.org/TR/2001/REC-SVG-20010904/DTD/svg10.dtd ">
<svg height="480" viewBox="0 0 640 480" width="640" xmlns:xlink="http://www.w3.org/1999/xlink" xmlns="http://www.w3.org/2000/svg" >
	<defs>
		<style type="text/css">
			<![CDATA[
				.data {
					fill: none;
					stroke: black;
					stroke-linecap: round;
					stroke-width: 1.5;
				}
				[class~="density"][id="Parasitized"] {
					fill: none;
					stroke: rgb(67, 0, 246);
				}
				[class~="density"][id="Uninfected"] {
					fill: none;
					stroke: rgb(255, 147, 0);
				}
				[class~="legend"][id="Parasitized"] {
					fill: none;
					stroke: rgb(67, 0, 246);
				}
				[class~="legend"][id="Uninfected"] {
					fill: none;
					stroke: rgb(255, 147, 0);
				}
				line.axis {
					stroke: dimgrey;
					stroke-width: 0.75;
				}
				line.colorbar.tic {
					stroke: black;
					stroke-linecap: butt;
					stroke-width: 0.5;
				}
				line.scalebar {
					stroke: black;
					stroke-width: 0.75;
				}
				line.tic {
					stroke-linecap: round;
				}
				rect.colorbar {
					fill: none;
					stroke: black;
					stroke-width: 0.5;
				}
				rect.plot {
					fill: none;
					stroke: none;
				}
				text {
					font-family: Times;
				}
				text.axis {
					fill: dimgrey;
				}
				text.colorbar.label {
					fill: black;
				}
				text.label {
					font-weight: normal;
				}
				text.title {
					font-weight: bold;
				}
			]]>
		</style>
	</defs>
	<g id="axes" class="layer">
		<g id="x-axis">
			<line id="x-axis" class="axis" x1="24" x2="606" y1="432" y2="432"/>
			<g id="x-axis tics">
				<line id="tic at 0" class="axis tic" x1="35.450176" x2="35.450176" y1="429" y2="435"/>
				<line id="tic at 5000" class="axis tic" x1="99.233419" x2="99.233419" y1="429" y2="435"/>
				<line id="tic at 10000" class="axis tic" x1="163.01666" x2="163.01666" y1="429" y2="435"/>
				<line id="tic at 15000" class="axis tic" x1="226.7999" x2="226.7999" y1="429" y2="435"/>
				<line id="tic at 20000" class="axis tic" x1="290.58315" x2="290.58315" y1="429" y2="435"/>
				<line id="tic at 25000" class="axis tic" x1="354.36639" x2="354.36639" y1="429" y2="435"/>
				<line id="tic at 30000" class="axis tic" x1="418.14963" x2="418.14963" y1="429" y2="435"/>
				<line id="tic at 35000" class="axis tic" x1="481.93288" x2="481.93288" y1="429" y2="435"/>
				<line id="tic at 40000" class="axis tic" x1="545.71612" x2="545.71612" y1="429" y2="435"/>
			</g>
			<g id="x-axis small tics">
				<line id="small tic at 2500" class="axis tic small" x1="67.341798" x2="67.341798" y1="430.5" y2="433.5"/>
				<line id="small tic at 7500" class="axis tic small" x1="131.12504" x2="131.12504" y1="430.5" y2="433.5"/>
				<line id="small tic at 12500" class="axis tic small" x1="194.90828" x2="194.90828" y1="430.5" y2="433.5"/>
				<line id="small tic at 17500" class="axis tic small" x1="258.69153" x2="258.69153" y1="430.5" y2="433.5"/>
				<line id="small tic at 22500" class="axis tic small" x1="322.47477" x2="322.47477" y1="430.5" y2="433.5"/>
				<line id="small tic at 27500" class="axis tic small" x1="386.25801" x2="386.25801" y1="430.5" y2="433.5"/>
				<line id="small tic at 32500" class="axis tic small" x1="450.04125" x2="450.04125" y1="430.5" y2="433.5"/>
				<line id="small tic at 37500" class="axis tic small" x1="513.8245" x2="513.8245" y1="430.5" y2="433.5"/>
				<line id="small tic at 42500" class="axis tic small" x1="577.60774" x2="577.60774" y1="430.5" y2="433.5"/>
			</g>
		</g>
		<g id="x-axis labels">
			<text font-size="12" class="axis label" text-anchor="middle" x="35.450176" y="450">0</text>
			<text font-size="12" class="axis label" text-anchor="middle" x="99.233419" y="450">5000</text>
			<text font-size="12" class="axis label" text-anchor="middle" x="163.01666" y="450">10000</text>
			<text font-size="12" class="axis label" text-anchor="middle" x="226.7999" y="450">15000</text>
			<text font-size="12" class="axis label" text-anchor="middle" x="290.58315" y="450">20000</text>
			<text font-size="12" class="axis label" text-anchor="middle" x="354.36639" y="450">25000</text>
			<text font-size="12" class="axis label" text-anchor="middle" x="418.14963" y="450">30000</text>
			<text font-size="12" class="axis label" text-anchor="middle" x="481.93288" y="450">35000</text>
			<text font-size="12" class="axis label" text-anchor="middle" x="545.71612" y="450">40000</text>
		</g>
		<g id="y-axis">
			<line id="y-axis" class="axis" x1="35.450176" x2="35.450176" y1="432" y2="24"/>
			<g id="y-axis tics">
				<line id="tic at 2e-05" class="axis tic" x1="38.450176" x2="32.450176" y1="379.41461" y2="379.41461"/>
				<line id="tic at 4e-05" class="axis tic" x1="38.450176" x2="32.450176" y1="326.82922" y2="326.82922"/>
				<line id="tic at 6e-05" class="axis tic" x1="38.450176" x2="32.450176" y1="274.24383" y2="274.24383"/>
				<line id="tic at 8e-05" class="axis tic" x1="38.450176" x2="32.450176" y1="221.65844" y2="221.65844"/>
				<line id="tic at 0.0001" class="axis tic" x1="38.450176" x2="32.450176" y1="169.07305" y2="169.07305"/>
				<line id="tic at 0.00012" class="axis tic" x1="38.450176" x2="32.450176" y1="116.48766" y2="116.48766"/>
				<line id="tic at 0.00014" class="axis tic" x1="38.450176" x2="32.450176" y1="63.902272" y2="63.902272"/>
			</g>
			<g id="y-axis small tics">
				<line id="small tic at 1e-05" class="axis tic small" x1="36.950176" x2="33.950176" y1="405.70731" y2="405.70731"/>
				<line id="small tic at 1e-05" class="axis tic small" x1="36.950176" x2="33.950176" y1="405.70731" y2="405.70731"/>
				<line id="small tic at 3e-05" class="axis tic small" x1="36.950176" x2="33.950176" y1="353.12192" y2="353.12192"/>
				<line id="small tic at 5e-05" class="axis tic small" x1="36.950176" x2="33.950176" y1="300.53653" y2="300.53653"/>
				<line id="small tic at 7e-05" class="axis tic small" x1="36.950176" x2="33.950176" y1="247.95114" y2="247.95114"/>
				<line id="small tic at 9e-05" class="axis tic small" x1="36.950176" x2="33.950176" y1="195.36575" y2="195.36575"/>
				<line id="small tic at 0.00011" class="axis tic small" x1="36.950176" x2="33.950176" y1="142.78036" y2="142.78036"/>
				<line id="small tic at 0.00013" class="axis tic small" x1="36.950176" x2="33.950176" y1="90.194967" y2="90.194967"/>
				<line id="small tic at 0.00015" class="axis tic small" x1="36.950176" x2="33.950176" y1="37.609577" y2="37.609577"/>
			</g>
		</g>
		<g id="y-axis labels">
			<text font-size="12" class="axis label" text-anchor="end" x="29.450176" y="383.91461">2e-05</text>
			<text font-size="12" class="axis label" text-anchor="end" x="29.450176" y="331.32922">4e-05</text>
			<text font-size="12" class="axis label" text-anchor="end" x="29.450176" y="278.74383">6e-05</text>
			<text font-size="12" class="axis label" text-anchor="end" x="29.450176" y="226.15844">8e-05</text>
			<text font-size="12" class="axis label" text-anchor="end" x="29.450176" y="173.57305">0.0001</text>
			<text font-size="12" class="axis label" text-anchor="end" x="29.450176" y="120.98766">0.00012</text>
			<text font-size="12" class="axis label" text-anchor="end" x="29.450176" y="68.402272">0.00014</text>
		</g>
	</g>
	<g id="Parasitized" class="layer">
		<path d="M 50.454546 431.77134 C54.017448,431.74499 57.580349,431.68565 61.143251,431.52079 C62.924702,431.43836 64.706153,431.32955 66.487604,431.17984 C68.269055,431.03013 70.050505,430.83952 71.831956,430.60598 C73.613407,430.37245 75.394858,430.09599 77.176309,429.77102 C78.95776,429.44606 80.739211,429.07258 82.520662,428.57576 C84.302112,428.07893 86.083563,427.45877 87.865014,426.71859 C89.646465,425.97842 91.427916,425.11823 93.209367,424.16186 C94.990818,423.20549 96.772268,422.15295 98.553719,420.91993 C100.33517,419.68692 102.11662,418.27342 103.89807,416.60282 C105.67952,414.93222 107.46097,413.00451 109.24242,410.73078 C111.02388,408.45704 112.80533,405.83728 114.58678,402.81193 C116.36823,399.78658 118.14968,396.35565 119.93113,392.4324 C121.71258,388.50914 123.49403,384.09357 125.27548,378.97759 C127.05693,373.86162 128.83838,368.04524 130.61984,361.17357 C132.40129,354.30191 134.18274,346.37496 135.96419,337.41478 C137.74564,328.45461 139.52709,318.4612 141.30854,308.2132 C143.08999,297.96519 144.87144,287.46259 146.65289,277.08191 C148.43434,266.70123 150.21579,256.44248 151.99725,246.13109 C153.7787,235.8197 155.56015,225.45568 157.3416,214.69027 C159.12305,203.92486 160.9045,192.75807 162.68595,182.31474 C164.4674,171.87141 166.24885,162.15155 168.0303,153.68816 C169.81175,145.22476 171.59321,138.01781 173.37466,130.68699 C175.15611,123.35617 176.93756,115.90146 178.71901,108.23553 C180.50046,100.5696 182.28191,92.692448 184.06336,85.862627 C185.84481,79.032806 187.62626,73.250319 189.40771,69.940115 C191.18916,66.629912 192.97062,65.791991 194.75207,67.416995 C196.53352,69.041999 198.31497,73.129928 200.09642,78.311281 C201.87787,83.492634 203.65932,89.767412 205.44077,96.581264 C207.22222,103.39512 209.00367,110.74804 210.78512,118.22709 C212.56658,125.70614 214.34803,133.31132 216.12948,141.0075 C217.91093,148.70368 219.69238,156.49088 221.47383,165.11972 C223.25528,173.74856 225.03673,183.21904 226.81818,193.41831 C228.59963,203.61758 230.38108,214.54564 232.16253,225.0944 C233.94399,235.64315 235.72544,245.81259 237.50689,255.01202 C239.28834,264.21144 241.06979,272.44085 242.85124,280.21082 C244.63269,287.98079 246.41414,295.29131 248.19559,302.50491 C249.97704,309.71851 251.75849,316.83518 253.53995,323.92142 C255.3214,331.00766 257.10285,338.06347 258.8843,344.72373 C260.66575,351.38399 262.4472,357.6487 264.22865,363.22917 C266.0101,368.80964 267.79155,373.70588 269.573,378.02356 C271.35445,382.34125 273.1359,386.08038 274.91736,389.39845 C276.69881,392.71652 278.48026,395.61353 280.26171,398.36787 C282.04316,401.12221 283.82461,403.73387 285.60606,406.18859 C287.38751,408.6433 289.16896,410.94108 290.95041,412.78651 C292.73186,414.63195 294.51332,416.02504 296.29477,417.15249 C298.07622,418.27994 299.85767,419.14174 301.63912,420.03369 C303.42057,420.92564 305.20202,421.84774 306.98347,422.65145 C308.76492,423.45515 310.54637,424.14046 312.32782,424.71571 C314.10927,425.29096 315.89073,425.75615 317.67218,426.1835 C319.45363,426.61085 321.23508,427.00036 323.01653,427.25571 C324.79798,427.51106 326.57943,427.63225 328.36088,427.64456 C330.14233,427.65686 331.92378,427.56028 333.70523,427.4722 C335.48668,427.38412 337.26814,427.30454 339.04959,427.31284 C340.83104,427.32114 342.61249,427.41731 344.39394,427.58048 C346.17539,427.74364 347.95684,427.9738 349.73829,428.17466 C351.51974,428.37551 353.30119,428.54706 355.08264,428.59831 C356.8641,428.64955 358.64555,428.58048 360.427,428.58776 C362.20845,428.59504 363.9899,428.67867 365.77135,428.88869 C367.5528,429.09871 369.33425,429.43512 371.1157,429.6847 C372.89715,429.93428 374.6786,430.09701 376.46005,430.16973 C378.24151,430.24244 380.02296,430.22514 381.80441,430.25117 C383.58586,430.27719 385.36731,430.34653 387.14876,430.44018 C388.93021,430.53382 390.71166,430.65176 392.49311,430.72337 C394.27456,430.79498 396.05601,430.82025 397.83747,430.83509 C399.61892,430.84992 401.40037,430.85432 403.18182,430.85103 C404.96327,430.84774 406.74472,430.83675 408.52617,430.80629 C410.30762,430.77583 412.08907,430.72588 413.87052,430.73969 C415.65197,430.75349 417.43342,430.83105 419.21488,430.94782 C420.99633,431.06459 422.77778,431.22058 424.55923,431.3206 C426.34068,431.42061 428.12213,431.46466 429.90358,431.49759 C431.68503,431.53052 433.46648,431.55234 435.24793,431.57032 C437.02938,431.58829 438.81084,431.60243 440.59229,431.58359 C442.37374,431.56476 444.15519,431.51294 445.93664,431.47204 C447.71809,431.43114 449.49954,431.40116 451.28099,431.40402 C453.06244,431.40689 454.84389,431.44261 456.62534,431.50466 C458.40679,431.56671 460.18825,431.65509 461.9697,431.73238 C463.75115,431.80966 465.5326,431.87586 467.31405,431.91563 C469.0955,431.9554 470.87695,431.96874 472.6584,431.96118 C474.43985,431.95361 476.2213,431.92516 478.00275,431.87366 C479.78421,431.82216 481.56566,431.74762 483.34711,431.69453 C485.12856,431.64143 486.91001,431.60978 488.69146,431.62663 C490.47291,431.64347 492.25436,431.70881 494.03581,431.77112 C495.81726,431.83343 497.59871,431.89271 499.38016,431.92965 C501.16162,431.9666 502.94307,431.9812 504.72452,431.98916 C506.50597,431.99713 508.28742,431.99846 510.06887,431.99916 C511.85032,431.99986 513.63177,431.99993 515.41322,431.99991 C517.19467,431.99989 518.97612,431.99977 520.75758,431.99882 C522.53903,431.99787 524.32048,431.9961 526.10193,431.98798 C527.88338,431.97986 529.66483,431.96541 531.44628,431.93933 C533.22773,431.91325 535.00918,431.87555 536.79063,431.84811 C538.57208,431.82066 540.35353,431.80347 542.13499,431.81106 C543.91644,431.81866 545.69789,431.85103 547.47934,431.87899 C549.26079,431.90694 551.04224,431.93047 552.82369,431.93129 C554.60514,431.93211 556.38659,431.91022 558.16804,431.88191 C559.94949,431.8536 561.73095,431.81887 563.5124,431.80406 C565.29385,431.78925 567.0753,431.79436 568.85675,431.79752 C572.41965,431.80383 575.98255,431.80234 579.54545,431.79592" id="Parasitized" class="data density"/>
	</g>
	<g id="Uninfected" class="layer">
		<path d="M 57.195159 431.54715 C59.726156,431.3959 62.257152,431.26834 64.788149,431.15748 C66.053647,431.10205 67.319145,431.0508 68.584643,430.97938 C69.850141,430.90797 71.11564,430.81639 72.381138,430.68999 C73.646636,430.5636 74.912134,430.40238 76.177632,430.19251 C77.443131,429.98263 78.708629,429.7241 79.974127,429.40172 C81.239625,429.07934 82.505123,428.69311 83.770622,428.309 C85.03612,427.9249 86.301618,427.54291 87.567116,427.23652 C88.832614,426.93013 90.098113,426.69933 91.363611,426.43847 C92.629109,426.17761 93.894607,425.88669 95.160106,425.3447 C96.425604,424.8027 97.691102,424.00963 98.9566,422.91773 C100.2221,421.82582 101.4876,420.43508 102.75309,418.90381 C104.01859,417.37255 105.28409,415.70077 106.54959,414.04601 C107.81509,412.39125 109.08059,410.75353 110.34608,409.23216 C111.61158,407.71079 112.87708,406.30577 114.14258,404.9809 C115.40808,403.65603 116.67358,402.4113 117.93907,400.95747 C119.20457,399.50364 120.47007,397.84071 121.73557,395.66364 C123.00107,393.48657 124.26656,390.79535 125.53206,387.69933 C126.79756,384.60332 128.06306,381.1025 129.32856,377.33877 C130.59406,373.57504 131.85955,369.54841 133.12505,365.01988 C134.39055,360.49134 135.65605,355.46091 136.92155,349.76279 C138.18704,344.06466 139.45254,337.69884 140.71804,330.80478 C141.98354,323.91072 143.24904,316.48843 144.51454,308.5793 C145.78003,300.67017 147.04553,292.2742 148.31103,283.2349 C149.57653,274.19561 150.84203,264.513 152.10752,254.75522 C153.37302,244.99745 154.63852,235.16451 155.90402,226.18281 C157.16952,217.20111 158.43502,209.07065 159.70051,201.19366 C160.96601,193.31667 162.23151,185.69314 163.49701,177.15002 C164.76251,168.6069 166.02801,159.14419 167.2935,149.13296 C168.559,139.12173 169.8245,128.562 171.09,118.78472 C172.3555,109.00745 173.62099,100.01265 174.88649,92.360357 C176.15199,84.708067 177.41749,78.398292 178.68299,72.834327 C179.94849,67.270362 181.21398,62.452207 182.47948,57.862673 C183.74498,53.273139 185.01048,48.912227 186.27598,44.899973 C187.54147,40.887719 188.80697,37.224124 190.07247,34.147337 C191.33797,31.07055 192.60347,28.580571 193.86897,26.797452 C195.13446,25.014333 196.39996,23.938074 197.66546,24 C198.93096,24.061926 200.19646,25.262037 201.46196,28.023215 C202.72745,30.784393 203.99295,35.106638 205.25845,40.579851 C206.52395,46.053063 207.78945,52.677243 209.05494,59.975816 C210.32044,67.274389 211.58594,75.247356 212.85144,83.845845 C214.11694,92.444335 215.38244,101.66835 216.64793,111.30689 C217.91343,120.94543 219.17893,130.9985 220.44443,141.44873 C221.70993,151.89896 222.97542,162.74634 224.24092,173.76548 C225.50642,184.78463 226.77192,195.97552 228.03742,206.36044 C229.30292,216.74536 230.56841,226.32431 231.83391,235.05341 C233.09941,243.78252 234.36491,251.66178 235.63041,259.55452 C236.8959,267.44726 238.1614,275.35347 239.4269,283.28147 C240.6924,291.20948 241.9579,299.15927 243.2234,306.88284 C244.48889,314.60641 245.75439,322.10377 247.01989,329.16999 C248.28539,336.2362 249.55089,342.87126 250.81639,348.49984 C252.08188,354.12842 253.34738,358.75052 254.61288,362.49427 C255.87838,366.23801 257.14388,369.1034 258.40937,371.90493 C259.67487,374.70646 260.94037,377.44413 262.20587,380.3961 C263.47137,383.34807 264.73687,386.51433 266.00236,389.4682 C267.26786,392.42207 268.53336,395.16353 269.79886,397.37529 C271.06436,399.58705 272.32985,401.26911 273.59535,402.60773 C274.86085,403.94636 276.12635,404.94157 277.39185,405.94142 C278.65735,406.94127 279.92284,407.94577 281.18834,409.03893 C282.45384,410.13208 283.71934,411.31389 284.98484,412.38705 C286.25034,413.4602 287.51583,414.42471 288.78133,415.20856 C290.04683,415.99241 291.31233,416.5956 292.57783,417.23907 C293.84332,417.88253 295.10882,418.56627 296.37432,419.41884 C297.63982,420.27141 298.90532,421.29281 300.17082,422.31541 C301.43631,423.33801 302.70181,424.36181 303.96731,425.20991 C305.23281,426.05801 306.49831,426.73042 307.7638,427.2238 C309.0293,427.71719 310.2948,428.03156 311.5603,428.24736 C312.8258,428.46317 314.0913,428.58041 315.35679,428.67046 C316.62229,428.76051 317.88779,428.82336 319.15329,428.88464 C320.41879,428.94592 321.68428,429.00563 322.94978,429.06447 C324.21528,429.12332 325.48078,429.18132 326.74628,429.27251 C328.01178,429.3637 329.27727,429.48809 330.54277,429.67359 C331.80827,429.85909 333.07377,430.1057 334.33927,430.35496 C335.60477,430.60421 336.87026,430.85611 338.13576,431.04477 C339.40126,431.23342 340.66676,431.35883 341.93226,431.43499 C343.19775,431.51115 344.46325,431.53806 345.72875,431.55208 C346.99425,431.5661 348.25975,431.56723 349.52525,431.56361 C350.79074,431.56 352.05624,431.55164 353.32174,431.53802 C354.58724,431.5244 355.85274,431.5055 357.11823,431.49474 C358.38373,431.48397 359.64923,431.48132 360.91473,431.49217 C362.18023,431.50301 363.44573,431.52734 364.71122,431.55513 C365.97672,431.58292 367.24222,431.61417 368.50772,431.64941 C369.77322,431.68464 371.03872,431.72387 372.30421,431.76511 C373.56971,431.80635 374.83521,431.8496 376.10071,431.88432 C377.36621,431.91903 378.6317,431.9452 379.8972,431.96234 C381.1627,431.97947 382.4282,431.98756 383.6937,431.99227 C384.9592,431.99697 386.22469,431.99829 387.49019,431.999 C388.75569,431.99971 390.02119,431.99981 391.28669,431.99967 C392.55218,431.99953 393.81768,431.99914 395.08318,431.99705 C396.34868,431.99496 397.61418,431.99116 398.87968,431.97899 C400.14517,431.96682 401.41067,431.94627 402.67617,431.90772 C403.94167,431.86917 405.20717,431.81262 406.47266,431.75057 C407.73816,431.68852 409.00366,431.62096 410.26916,431.585 C411.53466,431.54904 412.80016,431.54468 414.06565,431.5738 C415.33115,431.60291 416.59665,431.6655 417.86215,431.72023 C419.12765,431.77496 420.39315,431.82185 421.65864,431.83447 C422.92414,431.8471 424.18964,431.82548 425.45514,431.78219 C427.98613,431.69562 430.51713,431.52242 433.04813,431.55676" id="Uninfected" class="data density"/>
	</g>
	<g id="axis titles" class="layer">
		<text font-size="12" class="axis title" text-anchor="middle" x="606" y="426">Area</text>
	</g>
	<g id="legend" class="layer">
		<g id="Parasitized row">
			<line id="Parasitized" class="data legend" x1="550" x2="600" y1="19" y2="19"/>
			<text font-size="12" class="legend label" text-anchor="start" x="603" y="22">Parasitized</text>
		</g>
		<g id="Uninfected row">
			<line id="Uninfected" class="data legend" x1="550" x2="600" y1="34" y2="34"/>
			<text font-size="12" class="legend label" text-anchor="start" x="603" y="37">Uninfected</text>
		</g>
	</g>
</svg>
