<?xml version='1.0' encoding='UTF-8'?>
<!DOCTYPE svg PUBLIC "-//W3C//DTD SVG 1.0//EN" "http://www.w3.org/TR/2001/REC-SVG-20010904/DTD/svg10.dtd ">
<svg height="480" viewBox="0 0 640 480" width="640" xmlns:xlink="http://www.w3.org/1999/xlink" xmlns="http://www.w3.org/2000/svg" >
	<defs>
		<title>trainModel</title>
		<style type="text/css">
			<![CDATA[
				.data {
					fill: none;
					stroke: black;
					stroke-linecap: round;
					stroke-width: 1.5;
				}
				[id~="position--1"] {
					stroke: rgb(58,0,212);
				}
				[id~="position--2"] {
					stroke: rgb(0,0,0);
				}
				[id~="position-0"] {
					stroke: rgb(162,35,127);
				}
				[id~="position-1"] {
					stroke: rgb(255,83,0);
				}
				[id~="position-2"] {
					stroke: rgb(255,150,0);
				}
				line.axis {
					stroke: dimgrey;
					stroke-width: 0.75;
				}
				line.colorbar.tic {
					stroke: black;
					stroke-linecap: butt;
					stroke-width: 0.5;
				}
				line.scalebar {
					stroke: black;
					stroke-width: 0.75;
				}
				line.tic {
					stroke-linecap: round;
				}
				rect.colorbar {
					fill: none;
					stroke: black;
					stroke-width: 0.5;
				}
				rect.plot {
					fill: none;
					stroke: none;
				}
				text {
					font-family: Times;
				}
				text.axis {
					fill: dimgrey;
				}
				text.colorbar.label {
					fill: black;
				}
				text.label {
					font-weight: normal;
				}
				text.title {
					font-weight: bold;
				}
			]]>
		</style>
	</defs>
	<g id="Shape Mode 1" class="layer">
		<path d="M 73.597902 210.82159 C71.022557,209.36133 68.087366,208.62815 65.179454,208.54303 C62.686959,208.47008 60.214505,208.87326 57.798123,209.55167 C55.38174,210.23008 53.021429,211.18372 50.733422,212.15544 C49.589419,212.64131 48.463493,213.13169 47.370854,213.649 C46.278216,214.1663 45.218865,214.71052 44.230643,215.36444 C42.913013,216.23633 41.721834,217.30323 40.814474,218.63349 C40.133954,219.63118 39.613082,220.77701 39.300999,221.99092 C38.676832,224.41873 38.887818,227.11885 39.607783,229.6358 C39.967765,230.89427 40.454992,232.10695 41.028711,233.28214 C41.602431,234.45733 42.262642,235.59503 43.00482,236.68291 C44.489178,238.85866 46.301407,240.83508 48.411928,242.42199 C50.874202,244.27339 53.742486,245.5946 56.759433,246.29124 C59.345388,246.88835 62.040564,247.02658 64.682042,246.66987 C69.964996,245.95644 75.033154,243.26322 78.440832,239.18122 C80.428644,236.80005 81.851432,233.94631 82.496389,230.93357 C83.04921,228.35122 83.030564,225.65206 82.467832,223.08447 C81.905099,220.51689 80.79828,218.0809 79.27334,215.96998 C77.748401,213.85907 75.80534,212.07324 73.597902,210.82159 z" id="mode-1 position--2" class="data contour"/>
		<path d="M 75.652416 208.31434 C72.622801,206.67371 69.190345,205.90146 65.792633,205.87741 C62.880309,205.85679 59.99351,206.38588 57.18492,207.20794 C54.376329,208.03001 51.645947,209.14505 48.979582,210.20662 C46.313218,211.2682 43.710871,212.27631 41.381515,213.73506 C39.828611,214.70756 38.397036,215.88034 37.319956,217.39936 C36.512145,218.53863 35.903738,219.87266 35.560099,221.27106 C34.872821,224.06787 35.244617,227.12217 36.122718,229.97228 C37.000819,232.8224 38.385225,235.46832 40.117369,237.92598 C41.849513,240.38364 43.929395,242.65304 46.359382,244.47789 C51.624352,248.43173 58.532866,250.29866 65.19092,249.50446 C71.336817,248.77135 77.269303,245.77076 81.30199,241.09679 C83.65439,238.37031 85.360331,235.07442 86.13661,231.57584 C86.801992,228.57705 86.784356,225.42935 86.122906,222.44341 C85.461456,219.45746 84.156191,216.63327 82.353135,214.19905 C80.550078,211.76484 78.24923,209.7206 75.652416,208.31434 z" id="mode-1 position--1" class="data contour"/>
		<path d="M 77.707036 205.80867 C74.222884,203.98669 70.291985,203.16904 66.405596,203.20956 C63.074405,203.24428 59.775915,203.9095 56.57283,204.8693 C53.369745,205.8291 50.262066,207.08349 47.224077,208.25083 C44.186088,209.41818 41.217791,210.49848 38.528005,212.09696 C36.734815,213.16261 35.065408,214.45857 33.824068,216.16951 C32.893063,217.45272 32.202846,218.96935 31.827312,220.55023 C31.076243,223.712 31.583905,227.13076 32.629715,230.31 C33.675525,233.48924 35.259483,236.42896 37.228812,239.17385 C39.19814,241.91873 41.552839,244.46877 44.305978,246.52904 C50.271112,250.99294 58.106704,253.15762 65.698551,252.33756 C72.70641,251.58057 79.506582,248.28038 84.164082,243.01417 C86.880958,239.94221 88.868729,236.20126 89.776224,232.21688 C90.554076,228.8017 90.538256,225.20768 89.778246,221.80331 C89.018237,218.39894 87.514039,215.18422 85.432842,212.42707 C83.351646,209.66993 80.693452,207.37037 77.707036,205.80867 z" id="mode-1 position-0" class="data contour"/>
		<path d="M 79.761883 203.30342 C75.823025,201.2998 71.392912,200.43535 67.018218,200.54116 C63.268481,200.63186 59.559459,201.4354 55.961411,202.53159 C52.363362,203.62777 48.876287,205.01659 45.467189,206.29293 C42.05809,207.56928 38.726967,208.73314 35.676723,210.4633 C33.643227,211.61674 31.734565,213.02187 30.327546,214.92743 C29.272281,216.3566 28.499189,218.06726 28.091764,219.83568 C27.276915,223.3725 27.924734,227.14031 29.138937,230.64423 C30.35314,234.14816 32.133727,237.38819 34.339327,240.42263 C36.544926,243.45706 39.175537,246.2859 42.252425,248.58057 C48.919015,253.55235 57.680627,256.01654 66.206008,255.17096 C74.075591,254.39042 81.743888,250.78972 87.026286,244.9313 C90.107685,241.51389 92.377215,237.32824 93.415876,232.85811 C94.306157,229.02657 94.292126,224.98604 93.433517,221.1631 C92.574908,217.34016 90.871721,213.73482 88.512506,210.65499 C86.153291,207.57515 83.138048,205.02081 79.761883,203.30342 z" id="mode-1 position-1" class="data contour"/>
		<path d="M 81.816593 200.79908 C77.422678,198.61404 72.493558,197.70003 67.630851,197.87176 C63.462817,198.01895 59.343576,198.96382 55.350258,200.19541 C51.35694,201.427 47.489546,202.9453 43.709674,204.33261 C39.929803,205.71992 36.237455,206.97624 32.826477,208.83292 C30.552492,210.0707 28.40356,211.57531 26.830124,213.67804 C25.650048,215.25509 24.793689,217.16858 24.354805,219.12733 C23.477037,223.04482 24.269172,227.14336 25.65047,230.97173 C27.031768,234.80011 29.00223,238.35832 31.445591,241.68071 C33.888953,245.00311 36.805215,248.08968 40.205792,250.61821 C44.173131,253.56815 48.799676,255.75855 53.713336,256.99297 C57.925045,258.05105 62.347696,258.40678 66.716647,257.99814 C75.454549,257.18084 83.977653,253.30602 89.885177,246.85497 C93.331232,243.09185 95.887264,238.4521 97.057544,233.49539 C98.060641,229.24679 98.045635,224.76531 97.087829,220.52483 C96.130023,216.28435 94.229417,212.28487 91.592613,208.88177 C88.955809,205.47868 85.582807,202.67197 81.816593,200.79908" id="mode-1 position-2" class="data contour"/>
		<text font-size="14" class="shapemode label" text-anchor="middle" x="60.899406" y="454.5">Shape Mode 1</text>
		<text font-size="12" class="shapemode label" text-anchor="middle" x="60.899406" y="467"> (56.0% of total variance)</text>
	</g>
	<g id="Shape Mode 2" class="layer">
		<path d="M 158.25659 206.94128 C155.2499,204.11917 151.46085,201.97473 147.46964,200.86436 C144.04861,199.91261 140.47907,199.72058 137.09272,200.1519 C133.70637,200.58323 130.50322,201.63789 127.47082,203.51598 C124.43842,205.39407 121.57677,208.09559 119.34175,211.42563 C117.85173,213.64566 116.64022,216.14503 115.90013,218.62239 C115.34506,220.4804 115.05516,222.32604 114.90716,224.0974 C114.75916,225.86876 114.75306,227.56585 114.83818,229.25955 C114.92329,230.95324 115.09963,232.64355 115.41223,234.32464 C116.03743,237.68684 117.20765,241.0122 118.93719,243.96601 C120.66673,246.91982 122.95558,249.50208 125.65967,251.4682 C128.81444,253.762 132.53438,255.21717 136.3396,255.78073 C139.60122,256.26378 142.92548,256.09177 146.11378,255.34617 C152.4904,253.85496 158.32319,250.06938 162.15155,244.83545 C164.38476,241.78233 165.93591,238.23636 166.73203,234.53519 C167.41443,231.36276 167.54211,228.0763 167.13406,224.83375 C166.72602,221.59119 165.78224,218.39255 164.30917,215.33481 C162.83611,212.27707 160.83375,209.36024 158.25659,206.94128" id="mode-2 position--2" class="data contour"/>
		<path d="M 158.11433 207.19639 C156.25961,205.86105 154.2019,204.77678 152.04535,204.01885 C150.42794,203.4504 148.75494,203.06551 147.06691,202.84499 C143.69085,202.40395 140.2547,202.62038 136.96239,203.30981 C133.67007,203.99925 130.5216,205.16168 127.4808,206.6861 C124.44,208.21052 121.50687,210.09694 119.05534,212.56607 C117.42098,214.21215 116.00066,216.11722 115.01177,218.20305 C114.2701,219.76742 113.7711,221.43348 113.49787,223.11064 C112.95142,226.46497 113.30805,229.86372 114.15982,233.12526 C115.0116,236.3868 116.35852,239.51114 118.2038,242.36514 C120.04908,245.21914 122.39271,247.8028 125.12392,249.81507 C131.04155,254.17497 138.77863,255.85247 146.04026,254.65 C152.7433,253.54004 159.04123,249.97614 163.28293,244.72097 C165.75727,241.65545 167.53191,238.01443 168.38585,234.17907 C169.1178,230.89162 169.17331,227.4614 168.58745,224.1303 C167.41572,217.4681 163.67849,211.2024 158.11433,207.19639 z" id="mode-2 position--1" class="data contour"/>
		<path d="M 157.96686 207.41396 C154.4827,205.59198 150.55181,204.77433 146.66542,204.81484 C143.33422,204.84957 140.03573,205.51479 136.83265,206.47459 C133.62956,207.43439 130.52189,208.68878 127.4839,209.85612 C124.44591,211.02346 121.47761,212.10376 118.78783,213.70224 C116.99463,214.7679 115.32523,216.06386 114.08389,217.7748 C113.15288,219.058 112.46267,220.57464 112.08713,222.15552 C111.33606,225.31729 111.84373,228.73604 112.88954,231.91528 C113.93535,235.09452 115.5193,238.03425 117.48863,240.77913 C119.45796,243.52402 121.81266,246.07406 124.5658,248.13432 C130.53093,252.59823 138.36652,254.76291 145.95837,253.94284 C152.96623,253.18586 159.7664,249.88567 164.4239,244.61945 C167.14078,241.5475 169.12855,237.80655 170.03604,233.82217 C170.8139,230.40699 170.79808,226.81297 170.03807,223.40859 C169.27806,220.00422 167.77386,216.7895 165.69266,214.03236 C163.61147,211.27522 160.95327,208.97565 157.96686,207.41396 z" id="mode-2 position-0" class="data contour"/>
		<path d="M 157.82286 207.65119 C154.10018,206.32909 150.09592,206.17198 146.26237,206.78911 C142.97648,207.31807 139.816,208.41585 136.70387,209.63743 C133.59175,210.85902 130.52797,212.2044 127.48813,213.02207 C124.44829,213.83975 121.43239,214.12972 118.51381,214.85231 C116.56809,215.33404 114.66562,216.00804 113.17587,217.32474 C112.05855,218.31227 111.17339,219.66131 110.68013,221.17038 C110.18687,222.67944 110.08552,224.34853 110.2881,225.97105 C110.49068,227.59358 110.99719,229.16953 111.63229,230.68937 C112.90247,233.72906 114.68697,236.54432 116.76769,239.20155 C118.8484,241.85878 121.22534,244.35797 124.0063,246.45669 C130.03172,251.00392 137.95383,253.67116 145.87413,253.23828 C153.18519,252.83871 160.49471,249.79763 165.56651,244.51535 C168.52506,241.43402 170.72216,237.59006 171.6844,233.46346 C172.50917,229.92638 172.42668,226.18164 171.49169,222.69691 C170.5567,219.21218 168.76919,215.98745 166.38345,213.38051 C163.9977,210.77357 161.01372,208.78443 157.82286,207.65119 z" id="mode-2 position-1" class="data contour"/>
		<path d="M 157.67724 207.89257 C153.71536,207.06747 149.64251,207.55476 145.86099,208.75744 C142.61969,209.7883 139.59244,211.34475 136.57285,212.81265 C133.55326,214.28054 130.54134,215.65986 127.49543,216.17484 C125.97247,216.43233 124.44102,216.47374 122.90106,216.37822 C121.3611,216.2827 119.81263,216.05027 118.2404,215.95804 C116.14408,215.83507 114.00552,215.96136 112.26567,216.90698 C110.96077,217.6162 109.88015,218.78628 109.27198,220.19968 C108.6638,221.61308 108.52807,223.2698 108.77111,224.8685 C109.01415,226.46721 109.63596,228.00792 110.37827,229.47637 C111.86291,232.41327 113.82961,235.06118 116.0316,237.61685 C118.23358,240.17252 120.67085,242.63596 123.47718,244.77955 C126.75122,247.2804 130.52759,249.34591 134.6533,250.71586 C138.18962,251.8901 141.98261,252.55332 145.80446,252.53229 C153.44816,252.49023 161.20734,249.71118 166.69425,244.41198 C169.89495,241.32078 172.32244,237.37203 173.34149,233.10393 C174.21497,229.44555 174.05368,225.55255 172.94127,221.98656 C171.82887,218.42058 169.76536,215.18161 167.07642,212.72641 C164.38749,210.27122 161.07313,208.59979 157.67724,207.89257 z" id="mode-2 position-2" class="data contour"/>
		<text font-size="14" class="shapemode label" text-anchor="middle" x="141.27843" y="454.5">Shape Mode 2</text>
		<text font-size="12" class="shapemode label" text-anchor="middle" x="141.27843" y="467"> (16.0% of total variance)</text>
	</g>
	<g id="Shape Mode 3" class="layer">
		<path d="M 234.71107 207.64929 C231.24041,205.91756 227.31476,204.93271 223.13624,204.38232 C219.55466,203.91056 215.78729,203.75799 212.09494,203.8553 C208.4026,203.95262 204.78528,204.29983 201.37913,205.38048 C199.67606,205.9208 198.02578,206.64448 196.44066,207.61361 C194.85554,208.58275 193.33558,209.79733 191.95182,211.15945 C190.10679,212.9756 188.50389,215.05403 187.29355,217.20209 C186.3858,218.81314 185.69886,220.46335 185.26791,222.14459 C184.83696,223.82583 184.662,225.53809 184.77886,227.21959 C184.89573,228.90108 185.30442,230.55182 185.93484,232.09296 C187.19567,235.17524 189.34339,237.81913 191.85616,240.06474 C194.36893,242.31035 197.24675,244.15767 200.28979,245.55303 C206.88305,248.57631 214.25198,249.47789 221.23401,248.56317 C224.45648,248.14099 227.59653,247.33191 230.59817,246.14861 C233.59981,244.96532 236.46303,243.40781 238.93369,241.31876 C241.81613,238.88153 244.16424,235.72082 245.43629,232.16758 C246.52662,229.12195 246.82638,225.78792 246.28307,222.57856 C245.73977,219.36919 244.35341,216.28448 242.33995,213.72559 C240.32649,211.16671 237.68592,209.13363 234.71107,207.64929" id="mode-3 position--2" class="data contour"/>
		<path d="M 233.84802 206.46935 C227.39344,203.17112 219.43434,202.98912 211.97187,204.10758 C208.52765,204.62379 205.18923,205.41702 201.95773,206.56761 C198.72622,207.7182 195.60164,209.22616 192.8786,211.37079 C191.06324,212.80054 189.42635,214.51326 188.20225,216.44906 C187.28417,217.90092 186.59828,219.47825 186.20268,221.10564 C185.4115,224.36041 185.7815,227.81537 186.91357,230.94645 C188.04564,234.07754 189.93978,236.88475 192.19148,239.38336 C194.44319,241.88197 197.05246,244.07199 199.94656,245.7953 C206.21712,249.52915 213.82481,251.0721 221.11257,250.20799 C224.47616,249.80917 227.77159,248.8976 230.85165,247.51503 C233.93171,246.13246 236.7964,244.2789 239.1959,241.91814 C241.99531,239.16391 244.16155,235.71933 245.25064,231.9493 C246.18414,228.71783 246.32628,225.24726 245.67663,221.94315 C245.02698,218.63905 243.58556,215.5014 241.53558,212.83955 C239.48559,210.17769 236.82705,207.99161 233.84802,206.46935 z" id="mode-3 position--1" class="data contour"/>
		<path d="M 232.99899 205.31888 C229.51484,203.4969 225.58394,202.67925 221.69755,202.71977 C218.36636,202.75449 215.06787,203.41971 211.86478,204.37951 C208.6617,205.33931 205.55402,206.5937 202.51603,207.76104 C199.47804,208.92839 196.50975,210.00869 193.81996,211.60717 C192.02677,212.67282 190.35736,213.96878 189.11602,215.67972 C188.18502,216.96293 187.4948,218.47956 187.11927,220.06044 C186.3682,223.22221 186.87586,226.64097 187.92167,229.82021 C188.96748,232.99945 190.55144,235.93917 192.52077,238.68406 C194.49009,241.42894 196.84479,243.97898 199.59793,246.03925 C205.56307,250.50315 213.39866,252.66783 220.99051,251.84777 C227.99837,251.09078 234.79854,247.79059 239.45604,242.52438 C242.17291,239.45242 244.16068,235.71147 245.06818,231.72709 C245.84603,228.31191 245.83021,224.71789 245.0702,221.31352 C244.31019,217.90915 242.80599,214.69443 240.7248,211.93728 C238.6436,209.18014 235.98541,206.88058 232.99899,205.31888 z" id="mode-3 position-0" class="data contour"/>
		<path d="M 232.15183 204.17932 C230.1583,203.09481 228.01239,202.34282 225.84272,202.00604 C224.21547,201.75346 222.57485,201.73442 220.9724,201.89809 C217.7675,202.22541 214.71528,203.28351 211.75494,204.64387 C208.7946,206.00422 205.92614,207.66682 203.07842,208.93788 C201.65456,209.57341 200.23588,210.11106 198.8424,210.54786 C197.44891,210.98467 196.08061,211.32063 194.75444,211.81047 C192.98622,212.46359 191.2929,213.39027 190.03249,214.8917 C189.08718,216.01777 188.38539,217.46714 188.03436,219.01874 C187.68333,220.57034 187.68306,222.22417 187.87468,223.84909 C188.0663,225.474 188.44982,227.07 188.92171,228.65973 C189.86549,231.8392 191.16277,234.99358 192.85477,238.00776 C194.54677,241.02195 196.63349,243.89592 199.24257,246.27756 C204.89559,251.43777 213.00084,254.28674 220.87512,253.49943 C228.14368,252.77269 235.21544,248.94757 239.73757,243.14148 C242.37548,239.75459 244.1458,235.69362 244.86983,231.49589 C245.49042,227.89783 245.34232,224.1993 244.47539,220.69257 C242.74154,213.67912 238.13241,207.43286 232.15183,204.17932" id="mode-3 position-1" class="data contour"/>
		<path d="M 231.28156 203.01815 C229.28895,201.90109 227.16353,201.15082 225.01977,200.8907 C223.41194,200.69561 221.7938,200.77622 220.2486,201.07253 C217.1582,201.66515 214.35957,203.12055 211.64501,204.90428 C208.93046,206.68802 206.29997,208.80009 203.64253,210.12688 C202.31381,210.79027 200.97835,211.25733 199.64863,211.51553 C198.31891,211.77373 196.99494,211.82306 195.68447,212.0279 C193.93718,212.30102 192.21391,212.8506 190.94419,214.13087 C189.99189,215.09107 189.29471,216.46228 188.96707,217.96854 C188.63942,219.47479 188.6813,221.1161 188.89728,222.72394 C189.11326,224.33177 189.50334,225.90614 189.92602,227.51257 C190.77137,230.72544 191.74713,234.0666 193.16871,237.33174 C194.59028,240.59687 196.45767,243.78599 198.92402,246.50091 C201.80142,249.66832 205.49407,252.1903 209.60836,253.67338 C213.13489,254.94459 216.9712,255.45253 220.76154,255.11178 C224.55189,254.77103 228.29627,253.58161 231.60543,251.61653 C234.91458,249.65145 237.7885,246.91072 239.97897,243.7268 C242.53452,240.01223 244.15982,235.69442 244.70035,231.28668 C245.16366,227.50862 244.82999,223.66449 243.85554,220.05495 C242.88109,216.44541 241.26585,213.07046 239.1132,210.13254 C236.96054,207.19463 234.27047,204.69374 231.28156,203.01815" id="mode-3 position-2" class="data contour"/>
		<text font-size="14" class="shapemode label" text-anchor="middle" x="215.65714" y="454.5">Shape Mode 3</text>
		<text font-size="12" class="shapemode label" text-anchor="middle" x="215.65714" y="467"> (6.8% of total variance)</text>
	</g>
	<g id="Shape Mode 4" class="layer">
		<path d="M 304.43553 206.89435 C302.71763,205.81711 300.84164,205.05023 298.92877,204.69443 C297.49412,204.42757 296.03871,204.39196 294.59526,204.50374 C291.70835,204.72731 288.86924,205.54049 285.82766,206.20352 C282.78607,206.86655 279.54201,207.37945 276.42081,208.06199 C274.86021,208.40327 273.33032,208.78695 271.85989,209.30192 C270.38945,209.81688 268.97847,210.46312 267.62576,211.26037 C264.46941,213.12061 261.63025,215.80298 259.66482,219.65269 C258.82249,221.30256 258.14064,223.16685 257.75186,225.10843 C257.36308,227.05002 257.26737,229.06891 257.50537,230.98764 C257.98138,234.8251 259.79227,238.26189 262.36573,241.0608 C263.65246,242.46026 265.12984,243.70024 266.69092,244.82025 C268.252,245.94025 269.89677,246.94028 271.58065,247.83262 C275.50969,249.91474 279.65161,251.41055 283.87108,252.24288 C287.48777,252.95631 291.16143,253.18229 294.72874,252.79086 C298.29604,252.39944 301.75698,251.39061 304.89322,249.77213 C308.02947,248.15366 310.84103,245.92554 312.94125,243.17067 C315.39151,239.95666 316.87358,236.02568 317.16059,232.06222 C317.40661,228.66496 316.77463,225.24385 315.67731,222.08591 C314.57999,218.92798 313.01734,216.03322 311.12543,213.42878 C309.23353,210.82433 307.01237,208.5102 304.43553,206.89435 z" id="mode-4 position--2" class="data contour"/>
		<path d="M 304.89044 206.63347 C303.03421,205.57672 301.0298,204.81726 298.98378,204.42445 C297.44927,204.12984 295.89135,204.04148 294.33785,204.10715 C291.23085,204.23851 288.14154,204.98604 285.01736,205.79605 C281.89319,206.60606 278.73416,207.47855 275.65854,208.41041 C272.58291,209.34228 269.5907,210.33352 266.89099,211.92723 C265.09118,212.9897 263.42137,214.31993 262.05599,216.01079 C261.03196,217.27893 260.17918,218.74992 259.57293,220.36371 C258.36043,223.5913 258.13408,227.3901 258.88602,230.89336 C259.63796,234.39661 261.36819,237.60434 263.63226,240.38401 C265.89634,243.16368 268.69426,245.51531 271.76564,247.42926 C278.4203,251.57615 286.35865,253.6684 294.0262,252.82135 C301.10394,252.03947 307.95093,248.75309 312.37031,243.35899 C314.94829,240.21244 316.70021,236.34867 317.29923,232.38462 C317.81267,228.98686 317.4791,225.51543 316.55085,222.22683 C314.69435,215.64963 310.45915,209.80373 304.89044,206.63347 z" id="mode-4 position--1" class="data contour"/>
		<path d="M 305.36056 206.32317 C301.87641,204.50119 297.94551,203.68354 294.05912,203.72406 C290.72793,203.75878 287.42944,204.424 284.22636,205.3838 C281.02327,206.3436 277.91559,207.59799 274.8776,208.76533 C271.83961,209.93268 268.87132,211.01297 266.18153,212.61146 C264.38834,213.67711 262.71893,214.97307 261.47759,216.68401 C260.54659,217.96721 259.85637,219.48385 259.48084,221.06473 C258.72977,224.2265 259.23743,227.64525 260.28324,230.82449 C261.32905,234.00374 262.91301,236.94346 264.88234,239.68834 C266.85167,242.43323 269.20636,244.98327 271.9595,247.04353 C277.92464,251.50744 285.76023,253.67212 293.35208,252.85205 C300.35994,252.09507 307.16011,248.79488 311.81761,243.52867 C314.53448,240.45671 316.52225,236.71576 317.42975,232.73138 C318.2076,229.3162 318.19178,225.72218 317.43177,222.31781 C316.67176,218.91343 315.16756,215.69871 313.08637,212.94157 C311.00517,210.18443 308.34698,207.88486 305.36056,206.32317 z" id="mode-4 position-0" class="data contour"/>
		<path d="M 305.81401 206.05122 C298.89808,202.68275 290.5437,202.62156 283.41403,204.97159 C280.12342,206.05622 277.09369,207.65449 274.1092,209.10972 C272.61696,209.83734 271.13603,210.5292 269.68299,211.19067 C268.22996,211.85213 266.80482,212.48321 265.45718,213.26627 C263.66033,214.31034 262.00126,215.62459 260.89517,217.35838 C260.06561,218.65871 259.5471,220.19504 259.40112,221.75637 C259.25515,223.3177 259.48171,224.90405 259.92066,226.40378 C260.35961,227.90352 261.01095,229.31664 261.6832,230.72014 C263.02771,233.52713 264.45588,236.29561 266.12822,239.02314 C267.80057,241.75066 269.7171,244.43723 272.15415,246.63262 C274.99738,249.19391 278.54909,251.08665 282.39615,252.11661 C285.69363,252.99944 289.20811,253.2484 292.67702,252.87139 C299.61485,252.11737 306.37045,248.85948 311.26623,243.70891 C314.1221,240.70442 316.34512,237.05589 317.55857,233.06433 C318.59867,229.64299 318.89704,225.96963 318.30983,222.43762 C317.72263,218.9056 316.24986,215.51494 314.0707,212.69001 C311.89153,209.86508 309.00598,207.6059 305.81401,206.05122 z" id="mode-4 position-1" class="data contour"/>
		<path d="M 306.28992 205.78529 C302.32118,203.9795 297.9214,203.07658 293.52634,202.96287 C289.75915,202.8654 285.99541,203.34776 282.62482,204.56229 C279.25422,205.77682 276.27677,207.72353 273.32757,209.45499 C271.85298,210.32073 270.38544,211.13265 268.94737,211.8437 C267.5093,212.55474 266.1007,213.1649 264.75639,213.9309 C262.96398,214.95223 261.28587,216.25059 260.30119,218.01932 C259.56268,219.34587 259.21421,220.93699 259.311,222.47458 C259.40778,224.01218 259.9498,225.49625 260.65268,226.84565 C261.35556,228.19505 262.21928,229.4098 263.04762,230.63239 C263.87595,231.85498 264.66888,233.08541 265.37531,234.37027 C266.08174,235.65513 266.70166,236.99441 267.36687,238.35684 C268.69727,241.08171 270.20878,243.8992 272.34863,246.22552 C274.84512,248.93957 278.19686,250.98508 281.90817,252.08114 C285.08929,253.02062 288.53459,253.26254 291.97756,252.89029 C295.42052,252.51804 298.86116,251.53162 302.03996,250.00269 C305.21876,248.47376 308.13572,246.40234 310.69289,243.88333 C313.67625,240.94449 316.16988,237.39644 317.69902,233.40023 C319.0097,229.9749 319.61177,226.2203 319.18749,222.55795 C318.7632,218.89561 317.31256,215.3255 315.04469,212.43488 C312.77681,209.54425 309.69171,207.33311 306.28992,205.78529 z" id="mode-4 position-2" class="data contour"/>
		<text font-size="14" class="shapemode label" text-anchor="middle" x="288.36216" y="454.5">Shape Mode 4</text>
		<text font-size="12" class="shapemode label" text-anchor="middle" x="288.36216" y="467"> (3.7% of total variance)</text>
	</g>
	<g id="Shape Mode 5" class="layer">
		<path d="M 379.63992 205.51589 C377.7919,204.33494 375.72288,203.4824 373.58572,203.02711 C371.98286,202.68563 370.34166,202.56761 368.68424,202.58677 C365.36939,202.62509 361.98961,203.21215 358.6501,204.13104 C356.98034,204.59048 355.32065,205.13289 353.69077,205.80836 C352.06089,206.48383 350.46082,207.29237 348.85694,208.14719 C347.25305,209.002 345.64534,209.9031 344.07197,210.73406 C342.4986,211.56502 340.95956,212.32586 339.44453,213.04926 C337.42451,214.01381 335.44718,214.91182 333.7266,216.33203 C332.43617,217.39719 331.29015,218.75609 330.68328,220.3381 C330.0764,221.92012 330.00866,223.72524 330.42226,225.38231 C330.83585,227.03938 331.73077,228.54838 332.77071,229.9299 C334.8506,232.69292 337.51056,234.94595 340.00932,237.37019 C342.50808,239.79443 344.84565,242.38988 347.4487,244.80869 C350.4856,247.63063 353.88387,250.21214 357.69199,251.74933 C360.95609,253.06692 364.52131,253.61727 368.01071,253.34926 C371.5001,253.08125 374.91367,251.99489 377.90968,250.2146 C380.90569,248.43432 383.48414,245.96011 385.46139,243.11745 C387.76817,239.80101 389.25664,235.98307 389.91836,232.09791 C390.48554,228.76777 390.44531,225.38824 389.83958,222.10264 C389.23385,218.81704 388.06262,215.62537 386.36299,212.73246 C385.51317,211.286 384.53126,209.91424 383.40945,208.69314 C382.28764,207.47204 381.02594,206.40159 379.63992,205.51589" id="mode-5 position--2" class="data contour"/>
		<path d="M 379.38998 205.56913 C376.04258,203.63741 372.14761,202.79668 368.25977,202.81326 C364.92733,202.82748 361.60013,203.47155 358.33615,204.42886 C355.07218,205.38617 351.87143,206.65673 348.74977,208.10045 C347.18894,208.8223 345.64788,209.58745 344.13693,210.31616 C342.62599,211.04487 341.14516,211.73713 339.70974,212.48896 C337.79586,213.49139 335.9627,214.59971 334.48722,216.17038 C333.38062,217.34838 332.4752,218.78646 331.98507,220.37041 C331.49494,221.95435 331.4201,223.68416 331.70546,225.33406 C331.99082,226.98396 332.6364,228.55396 333.41988,230.03614 C334.98684,233.00052 337.10542,235.61367 339.3387,238.20041 C341.57199,240.78716 343.91998,243.3475 346.59846,245.58584 C349.72335,248.19724 353.29808,250.37035 357.18502,251.62036 C360.51668,252.6918 364.07773,253.08503 367.575,252.76073 C371.07228,252.43644 374.50577,251.39462 377.58225,249.71683 C380.65873,248.03905 383.3782,245.72529 385.53173,242.98653 C388.04417,239.79132 389.7863,236.01765 390.56919,232.08211 C391.24024,228.70879 391.20654,225.21654 390.52639,221.87296 C389.84624,218.52937 388.51963,215.33444 386.62287,212.50832 C384.72611,209.6822 382.25919,207.22489 379.38998,205.56913 z" id="mode-5 position--1" class="data contour"/>
		<path d="M 379.14767 205.65421 C375.66351,203.83224 371.73261,203.01458 367.84623,203.0551 C364.51503,203.08983 361.21654,203.75504 358.01346,204.71484 C354.81037,205.67465 351.70269,206.92903 348.66471,208.09637 C345.62672,209.26372 342.65842,210.34402 339.96863,211.9425 C338.17544,213.00815 336.50604,214.30411 335.2647,216.01505 C334.33369,217.29826 333.64348,218.81489 333.26794,220.39577 C332.51687,223.55754 333.02453,226.9763 334.07034,230.15554 C335.11615,233.33478 336.70011,236.2745 338.66944,239.01939 C340.63877,241.76427 342.99347,244.31431 345.74661,246.37458 C351.71174,250.83848 359.54733,253.00316 367.13918,252.1831 C374.14704,251.42611 380.94721,248.12592 385.60471,242.85971 C388.32159,239.78775 390.30936,236.0468 391.21685,232.06242 C391.99471,228.64724 391.97889,225.05322 391.21888,221.64885 C390.45887,218.24448 388.95467,215.02976 386.87347,212.27261 C384.79228,209.51547 382.13408,207.21591 379.14767,205.65421" id="mode-5 position-0" class="data contour"/>
		<path d="M 378.90505 205.74377 C375.28266,204.02706 371.31641,203.21477 367.4325,203.29028 C364.10344,203.355 360.83488,204.07198 357.69164,205.01502 C354.54839,205.95806 351.53046,207.12716 348.57799,208.07149 C345.62553,209.01582 342.73853,209.73538 340.22608,211.38116 C338.55112,212.47835 337.04262,213.98719 336.04881,215.83664 C335.30345,217.22373 334.8476,218.80242 334.56981,220.40501 C334.01421,223.61019 334.17082,226.91099 334.74195,230.24447 C335.31308,233.57795 336.29872,236.94411 337.98575,239.86541 C339.67277,242.7867 342.06116,245.26313 344.89992,247.13716 C348.2118,249.32354 352.13667,250.68998 356.17336,251.36586 C359.63338,251.94518 363.17555,252.01716 366.69302,251.57976 C373.72796,250.70498 380.6641,247.79275 385.66383,242.72435 C388.58034,239.76779 390.83794,236.07753 391.87322,232.04806 C392.76061,228.59423 392.74997,224.89118 391.90718,221.42282 C391.06439,217.95445 389.38944,214.72077 387.12584,212.03596 C384.86223,209.35115 382.00996,207.21523 378.90505,205.74377 z" id="mode-5 position-1" class="data contour"/>
		<path d="M 378.66272 205.82634 C374.90521,204.22154 370.90465,203.44353 367.01924,203.53537 C363.68889,203.61408 360.44313,204.33186 357.36991,205.30001 C355.8333,205.78408 354.33982,206.33074 352.85884,206.80538 C351.37785,207.28002 349.90936,207.68264 348.47409,208.02633 C345.60355,208.7137 342.86588,209.16536 340.50304,210.82474 C339.71543,211.37787 338.96946,212.06518 338.33757,212.88622 C337.70568,213.70725 337.18786,214.662 336.81193,215.67444 C336.24804,217.19309 336.00341,218.84152 335.84787,220.44386 C335.69233,222.04619 335.62588,223.60242 335.54585,225.23628 C335.46582,226.87014 335.37221,228.58163 335.38779,230.34552 C335.41896,233.87329 335.88692,237.61066 337.3178,240.69803 C338.74868,243.78541 341.14249,246.22279 344.05115,247.91413 C347.44459,249.88737 351.53879,250.84518 355.66144,251.23601 C359.19514,251.57101 362.74974,251.48945 366.27034,250.99431 C369.79094,250.49917 373.27754,249.59045 376.59688,248.22249 C379.91622,246.85452 383.0683,245.02731 385.74798,242.59742 C388.87427,239.76255 391.35758,236.10736 392.51433,232.02892 C393.50582,228.53312 393.52269,224.72636 392.6025,221.19769 C391.68231,217.66903 389.82505,214.41845 387.37533,211.80166 C384.92562,209.18488 381.88345,207.20189 378.66272,205.82634 z" id="mode-5 position-2" class="data contour"/>
		<text font-size="14" class="shapemode label" text-anchor="middle" x="361.72266" y="454.5">Shape Mode 5</text>
		<text font-size="12" class="shapemode label" text-anchor="middle" x="361.72266" y="467"> (2.6% of total variance)</text>
	</g>
	<g id="Shape Mode 6" class="layer">
		<path d="M 451.79447 204.98502 C449.7884,204.1855 447.57586,203.94731 445.4086,204.09697 C443.78315,204.20922 442.18318,204.53964 440.57684,204.93266 C437.36416,205.71871 434.12601,206.7552 430.67325,207.56084 C428.94687,207.96365 427.16683,208.30876 425.38801,208.56514 C423.60918,208.82153 421.83156,208.9892 420.09756,209.13428 C416.62958,209.42443 413.33611,209.6242 410.39216,211.20955 C408.42953,212.26645 406.62225,213.93917 405.53961,216.02851 C404.72764,217.59553 404.32328,219.39689 404.1792,221.15387 C403.89104,224.66783 404.644,228.00424 405.80039,231.21187 C406.95679,234.4195 408.51662,237.49836 410.40739,240.3557 C412.29816,243.21304 414.51986,245.84886 417.17257,247.98622 C420.26739,250.47982 423.94887,252.29496 427.8575,253.14845 C431.20776,253.88001 434.72491,253.90504 438.15096,253.30685 C441.57702,252.70865 444.91199,251.48722 447.90656,249.70787 C450.90113,247.92851 453.5553,245.59123 455.7161,242.87183 C458.23704,239.69919 460.08644,236.00643 461.14511,232.08714 C462.05254,228.72775 462.37901,225.20191 462.07343,221.67779 C461.76785,218.15367 460.83021,214.63125 459.08914,211.63891 C457.34807,208.64657 454.80356,206.1843 451.79447,204.98502 z" id="mode-6 position--2" class="data contour"/>
		<path d="M 451.14731 205.68963 C449.14998,204.76731 446.96304,204.28351 444.78204,204.14981 C443.14629,204.04954 441.51388,204.14621 439.87918,204.35529 C436.60979,204.77345 433.33126,205.64126 430.0062,206.50845 C426.68114,207.37564 423.30956,208.24221 420.05159,208.98535 C416.79361,209.72848 413.64925,210.34817 410.84083,211.93751 C408.96854,212.99706 407.24556,214.48757 406.08119,216.3882 C405.20792,217.81368 404.64887,219.46985 404.38394,221.1377 C403.85407,224.4734 404.50067,227.85581 405.60599,231.0504 C406.71131,234.24498 408.27535,237.25173 410.20294,240.05202 C412.13052,242.85232 414.42165,245.44617 417.12637,247.54455 C420.28189,249.99266 424.00035,251.7664 427.93653,252.67815 C431.3104,253.45965 434.84422,253.60785 438.30687,253.1159 C445.23216,252.13198 451.87272,248.58742 456.34519,243.23963 C461.19035,237.44618 463.49101,229.53645 462.34223,222.03182 C461.81202,218.56815 460.54702,215.19077 458.62984,212.31701 C456.71266,209.44325 454.1433,207.07312 451.14731,205.68963 z" id="mode-6 position--1" class="data contour"/>
		<path d="M 450.48064 206.38395 C446.99648,204.56197 443.06559,203.74432 439.1792,203.78484 C435.84801,203.81956 432.54952,204.48478 429.34643,205.44458 C426.14335,206.40438 423.03567,207.65877 419.99768,208.82611 C416.95969,209.99345 413.99139,211.07375 411.30161,212.67223 C409.50842,213.73789 407.83901,215.03385 406.59767,216.74479 C405.66666,218.02799 404.97645,219.54463 404.60091,221.12551 C403.84984,224.28728 404.35751,227.70603 405.40332,230.88527 C406.44913,234.06451 408.03308,237.00424 410.00241,239.74912 C411.97174,242.49401 414.32644,245.04405 417.07958,247.10431 C423.04471,251.56822 430.8803,253.7329 438.47215,252.91283 C445.48001,252.15585 452.28018,248.85566 456.93768,243.58944 C459.65456,240.51749 461.64233,236.77654 462.54982,232.79216 C463.32768,229.37698 463.31186,225.78296 462.55185,222.37858 C461.79184,218.97421 460.28764,215.75949 458.20644,213.00235 C456.12525,210.24521 453.46705,207.94564 450.48064,206.38395 z" id="mode-6 position-0" class="data contour"/>
		<path d="M 449.83953 207.09316 C446.34316,205.04451 442.41577,203.59543 438.49248,203.21783 C435.12966,202.89418 431.76985,203.35774 428.67774,204.38664 C425.58564,205.41554 422.76124,207.00979 419.94783,208.65325 C418.54113,209.47498 417.13717,210.30901 415.76391,211.09126 C414.39064,211.87351 413.04808,212.60397 411.76048,213.38485 C410.04369,214.42602 408.42463,215.55681 407.11634,217.08651 C406.13513,218.23379 405.32872,219.60545 404.83157,221.11708 C404.33442,222.62871 404.14653,224.28029 404.24058,225.90149 C404.33464,227.5227 404.71066,229.11351 405.21961,230.67236 C407.25543,236.90774 411.41831,242.63155 417.04135,246.63727 C423.13297,250.97681 430.93823,253.29997 438.62677,252.70782 C445.72388,252.16123 452.72152,249.13059 457.53972,243.94421 C460.35033,240.91883 462.41933,237.15989 463.25649,233.14639 C463.97405,229.70625 463.78659,226.07909 462.79248,222.73053 C461.79838,219.38198 459.99763,216.31203 457.75715,213.67882 C455.51666,211.04561 452.83643,208.84914 449.83953,207.09316 z" id="mode-6 position-1" class="data contour"/>
		<path d="M 449.16734 207.80962 C447.18907,206.50832 445.12499,205.26077 442.91102,204.29011 C441.25055,203.56212 439.50577,202.98987 437.7826,202.65113 C434.33626,201.97364 430.97636,202.23014 428.01933,203.3286 C425.06231,204.42705 422.50816,206.36746 419.89934,208.47895 C418.59494,209.53469 417.27686,210.6332 415.98661,211.58467 C414.69636,212.53614 413.43394,213.34057 412.21628,214.10852 C410.59272,215.13245 409.04873,216.09153 407.65901,217.43229 C406.61671,218.43786 405.6612,219.65813 405.03802,221.0892 C404.41485,222.52027 404.12401,224.16214 404.15539,225.77735 C404.18677,227.39256 404.54037,228.98111 405.0322,230.52451 C406.01587,233.61131 407.55247,236.51752 409.58001,239.17065 C411.60755,241.82377 414.12602,244.22382 416.99238,246.19709 C420.33647,248.49924 424.15408,250.2205 428.1674,251.29512 C431.6074,252.21623 435.19118,252.66226 438.78072,252.49787 C445.9598,252.16909 453.1619,249.39863 458.14367,244.30056 C461.04971,241.32668 463.20022,237.56078 463.96427,233.50068 C464.29172,231.76064 464.36451,229.96657 464.20029,228.20911 C464.03606,226.45164 463.63481,224.73078 463.02405,223.09144 C461.80254,219.81274 459.74299,216.86008 457.32604,214.34729 C454.9091,211.8345 452.13475,209.76158 449.16734,207.80962 z" id="mode-6 position-2" class="data contour"/>
		<text font-size="14" class="shapemode label" text-anchor="middle" x="434.20017" y="454.5">Shape Mode 6</text>
		<text font-size="12" class="shapemode label" text-anchor="middle" x="434.20017" y="467"> (2.3% of total variance)</text>
	</g>
	<g id="Shape Mode 7" class="layer">
		<path d="M 522.20754 204.17587 C520.14115,202.99129 517.84026,202.28603 515.5461,202.11119 C513.82549,201.98006 512.10867,202.14729 510.45235,202.48693 C507.1397,203.16622 504.06902,204.53516 500.97687,205.76571 C497.88472,206.99626 494.77109,208.08842 491.64672,208.62364 C490.08454,208.89125 488.51968,209.01962 487.00632,209.33498 C485.49297,209.65033 484.03112,210.15266 482.67893,211.04714 C480.87602,212.23978 479.26807,214.12956 478.29861,216.28697 C477.57151,217.90503 477.20356,219.67362 476.94345,221.36086 C476.68333,223.04809 476.53106,224.65397 476.51276,226.32369 C476.49447,227.99342 476.61016,229.72699 476.93782,231.36825 C477.59315,234.65078 479.09639,237.5641 481.2526,239.90481 C483.40881,242.24552 486.218,244.01363 489.14587,245.50951 C492.56172,247.25469 496.13911,248.62933 499.89785,249.74824 C503.11963,250.7073 506.47465,251.47847 509.94177,251.70841 C513.4089,251.93836 516.98813,251.62708 520.30908,250.46787 C523.63002,249.30865 526.69268,247.30151 528.98144,244.59392 C531.65167,241.43506 533.26854,237.32281 533.88764,233.12699 C534.41829,229.53057 534.21587,225.87275 533.52093,222.28524 C532.82598,218.69774 531.63851,215.18055 529.75879,211.9943 C527.87908,208.80805 525.30713,205.95273 522.20754,204.17587 z" id="mode-7 position--2" class="data contour"/>
		<path d="M 522.15363 204.99999 C520.12373,203.88575 517.90107,203.17165 515.6588,202.87593 C513.97709,202.65413 512.28435,202.66768 510.62486,202.84874 C507.30588,203.21087 504.1199,204.24308 500.96922,205.33029 C497.81855,206.4175 494.70319,207.55971 491.63142,208.42884 C490.09554,208.8634 488.57056,209.2297 487.07845,209.69748 C485.58634,210.16527 484.12709,210.73454 482.78013,211.5772 C480.98418,212.70075 479.38783,214.3103 478.27906,216.23115 C477.44749,217.67179 476.89018,219.28754 476.56639,220.928 C476.2426,222.56845 476.15234,224.23361 476.22873,225.90656 C476.30513,227.57951 476.54819,229.26026 476.97132,230.86432 C478.66387,237.28056 483.23768,242.46987 488.91085,246.03947 C492.22021,248.12174 495.90366,249.65286 499.76885,250.68828 C503.08188,251.57577 506.52843,252.09908 510.01212,252.02804 C513.49582,251.95701 517.01665,251.29162 520.25738,249.92195 C523.49811,248.55228 526.45874,246.47833 528.7665,243.80812 C531.45889,240.69287 533.26266,236.76606 534.02692,232.67644 C534.68199,229.17105 534.57334,225.54606 533.84503,222.04917 C533.11673,218.55228 531.76877,215.18349 529.78921,212.21326 C527.80964,209.24303 525.19849,206.67135 522.15363,204.99999 z" id="mode-7 position--1" class="data contour"/>
		<path d="M 522.09646 205.81736 C518.61231,203.99538 514.68141,203.17773 510.79502,203.21824 C507.46383,203.25297 504.16534,203.91819 500.96226,204.87799 C497.75917,205.83779 494.65149,207.09218 491.6135,208.25952 C488.57552,209.42686 485.60722,210.50716 482.91743,212.10564 C481.12424,213.1713 479.45483,214.46725 478.21349,216.1782 C477.28249,217.4614 476.59227,218.97804 476.21674,220.55892 C475.46567,223.72068 475.97333,227.13944 477.01914,230.31868 C478.06495,233.49792 479.64891,236.43765 481.61824,239.18253 C483.58757,241.92741 485.94227,244.47746 488.6954,246.53772 C494.66054,251.00163 502.49613,253.1663 510.08798,252.34624 C517.09584,251.58926 523.89601,248.28907 528.55351,243.02285 C531.27038,239.95089 533.25816,236.20994 534.16565,232.22557 C534.9435,228.81039 534.92768,225.21636 534.16767,221.81199 C533.40766,218.40762 531.90347,215.1929 529.82227,212.43576 C527.74107,209.67862 525.08288,207.37905 522.09646,205.81736 z" id="mode-7 position-0" class="data contour"/>
		<path d="M 522.062 206.6452 C515.69476,203.44291 508.04475,202.69143 500.97193,204.42084 C497.70755,205.21902 494.56612,206.54568 491.58249,208.07598 C490.09067,208.84114 488.63831,209.6572 487.21018,210.42074 C485.78205,211.18428 484.37815,211.89529 483.03825,212.62096 C482.14497,213.10474 481.28014,213.59504 480.45714,214.15575 C479.63413,214.71646 478.85295,215.34758 478.16212,216.09759 C477.12587,217.22259 476.29288,218.61507 475.85818,220.16208 C475.42348,221.70908 475.38707,223.41062 475.64206,225.03903 C475.89705,226.66745 476.44344,228.22274 477.07271,229.76552 C478.33124,232.85107 479.92124,235.88655 481.79071,238.84569 C483.66018,241.80484 485.80912,244.68766 488.47792,247.0263 C491.59153,249.75472 495.41273,251.74247 499.4849,252.61991 C502.97533,253.372 506.65013,253.30836 510.17177,252.62691 C517.21505,251.264 523.64565,247.42985 528.34777,242.21406 C531.09067,239.17152 533.2454,235.65884 534.29842,231.78884 C535.20101,228.47169 535.29416,224.89203 534.49814,221.57068 C533.70211,218.24933 532.01689,215.1863 529.84155,212.65476 C527.6662,210.12322 525.00073,208.12318 522.062,206.6452" id="mode-7 position-1" class="data contour"/>
		<path d="M 521.98096 207.48406 C520.06197,206.56694 518.09275,205.78855 516.00654,205.14142 C514.44188,204.65608 512.81141,204.24458 511.13755,203.96081 C507.78983,203.39326 504.26856,203.33665 500.951,203.99194 C497.63344,204.64723 494.51958,206.01443 491.5725,207.88141 C490.09896,208.81489 488.66711,209.87332 487.2702,210.78784 C485.87329,211.70235 484.51131,212.47295 483.16871,213.14297 C481.37858,214.03634 479.62289,214.75089 478.11615,216.03073 C476.98609,216.99061 475.99606,218.26846 475.50101,219.7684 C475.00596,221.26833 475.0059,222.99036 475.35037,224.60412 C475.69484,226.21789 476.38385,227.72339 477.11457,229.23627 C478.57601,232.26202 480.20432,235.31726 481.97366,238.48526 C482.85833,240.06926 483.77825,241.68146 484.80363,243.22255 C485.82901,244.76363 486.95985,246.23361 488.25362,247.54073 C491.27241,250.59069 495.17825,252.754 499.35055,253.56289 C502.9268,254.25623 506.69882,253.95448 510.24007,252.96165 C513.78133,251.96882 517.09182,250.28491 520.08979,248.29555 C523.08776,246.30619 525.77321,244.01137 528.13486,241.44696 C530.89011,238.45515 533.20463,235.0964 534.43646,231.32581 C534.9644,229.70985 535.29347,228.01824 535.35922,226.33043 C535.42498,224.64261 535.22743,222.95859 534.7996,221.34556 C533.94394,218.1195 532.16717,215.1774 529.89605,212.86246 C527.62493,210.54752 524.85945,208.85973 521.98096,207.48406" id="mode-7 position-2" class="data contour"/>
		<text font-size="14" class="shapemode label" text-anchor="middle" x="505.23948" y="454.5">Shape Mode 7</text>
		<text font-size="12" class="shapemode label" text-anchor="middle" x="505.23948" y="467"> (1.7% of total variance)</text>
	</g>
	<g id="Shape Mode 8" class="layer">
		<path d="M 593.13279 206.41893 C591.00869,205.80013 588.82021,205.56349 586.66293,205.38007 C585.04498,205.24251 583.44457,205.13488 581.80813,205.06165 C580.17168,204.98841 578.4992,204.94956 576.8122,204.98028 C575.1252,205.01099 573.42368,205.11128 571.76007,205.25257 C568.43284,205.53516 565.25726,205.98178 562.39822,207.04324 C560.9687,207.57397 559.61831,208.25841 558.3285,209.19118 C557.0387,210.12395 555.80947,211.30505 554.71951,212.55729 C553.26624,214.22693 552.06055,216.02302 550.9216,217.7795 C550.06738,219.09686 549.25071,220.39194 548.53932,221.82507 C547.82792,223.2582 547.2218,224.82939 546.96772,226.43819 C546.71363,228.047 546.81158,229.69343 547.23455,231.20165 C548.08051,234.21808 550.22657,236.68167 552.54998,238.99464 C554.8734,241.30762 557.37416,243.46998 560.076,245.60244 C563.22814,248.0903 566.65396,250.53744 570.51142,252.09624 C573.81781,253.43235 577.44132,254.11581 581.04125,253.90657 C584.64119,253.69732 588.21755,252.59539 591.37664,250.75908 C594.53573,248.92277 597.27755,246.3521 599.50079,243.4232 C602.09458,240.00615 603.98252,236.10152 605.04682,231.98945 C605.95907,228.46481 606.26619,224.78778 605.72446,221.25135 C605.18273,217.71491 603.79214,214.31907 601.57619,211.72712 C599.36025,209.13517 596.31894,207.34713 593.13279,206.41893" id="mode-8 position--2" class="data contour"/>
		<path d="M 593.19353 206.30428 C591.13927,205.4666 588.98441,204.97097 586.80948,204.67099 C585.17827,204.44601 583.53578,204.33108 581.87975,204.31562 C578.5677,204.28471 575.20155,204.65169 571.94612,205.24461 C568.6907,205.83752 565.54601,206.65637 562.58372,207.81836 C559.62144,208.98035 556.84157,210.48549 554.41611,212.49027 C552.79914,213.82679 551.33969,215.38538 550.13873,217.13716 C549.23801,218.45099 548.48268,219.8735 547.9465,221.39011 C547.41032,222.90671 547.09328,224.51741 547.05176,226.13448 C547.01024,227.75154 547.24425,229.37497 547.71131,230.91509 C548.64542,233.99532 550.51174,236.74229 552.6608,239.28044 C554.80987,241.81858 557.24167,244.1479 559.96953,246.23842 C563.15203,248.67737 566.73749,250.7913 570.64896,252.05414 C574.00164,253.13658 577.59385,253.59373 581.14632,253.29768 C584.6988,253.00163 588.21155,251.95238 591.36975,250.24749 C594.52796,248.5426 597.33163,246.18207 599.60796,243.39942 C602.26368,240.153 604.20163,236.33204 605.18723,232.28526 C606.03203,228.8166 606.17713,225.18204 605.52681,221.70902 C604.87648,218.23599 603.43073,214.9245 601.28034,212.2557 C599.12995,209.5869 596.27491,207.56079 593.19353,206.30428 z" id="mode-8 position--1" class="data contour"/>
		<path d="M 593.2581 206.17177 C589.77394,204.3498 585.84304,203.53215 581.95666,203.57266 C578.62546,203.60739 575.32697,204.2726 572.12389,205.23241 C568.9208,206.19221 565.81312,207.44659 562.77514,208.61394 C559.73715,209.78128 556.76885,210.86158 554.07906,212.46006 C552.28587,213.52571 550.61647,214.82167 549.37513,216.53261 C548.44412,217.81582 547.75391,219.33245 547.37837,220.91334 C546.6273,224.0751 547.13496,227.49386 548.18077,230.6731 C549.22658,233.85234 550.81054,236.79207 552.77987,239.53695 C554.7492,242.28183 557.1039,244.83187 559.85704,246.89214 C565.82217,251.35605 573.65776,253.52072 581.24961,252.70066 C588.25747,251.94368 595.05764,248.64348 599.71514,243.37727 C602.43202,240.30531 604.41979,236.56436 605.32728,232.57998 C606.10514,229.1648 606.08931,225.57078 605.32931,222.16641 C604.5693,218.76204 603.0651,215.54732 600.9839,212.79018 C598.90271,210.03303 596.24451,207.73347 593.2581,206.17177 z" id="mode-8 position-0" class="data contour"/>
		<path d="M 593.3227 206.0633 C591.39557,204.79745 589.27979,203.8085 587.07076,203.28652 C585.41399,202.89504 583.70476,202.76623 582.02885,202.83986 C578.67702,202.98713 575.45846,203.94415 572.30701,205.22799 C569.15556,206.51182 566.07121,208.12246 562.96,209.38606 C561.40439,210.01786 559.84206,210.56289 558.29786,211.01863 C556.75365,211.47436 555.22757,211.84079 553.74922,212.39547 C551.7781,213.13505 549.89184,214.20931 548.60798,215.89555 C547.64509,217.16023 547.02106,218.76915 546.80472,220.44182 C546.58837,222.11448 546.77972,223.85089 547.1526,225.51722 C547.52549,227.18356 548.07991,228.77983 548.66273,230.3864 C549.82836,233.59953 551.10756,236.85389 552.89046,239.82859 C554.67336,242.80329 556.95997,245.49834 559.74577,247.51667 C562.99588,249.87138 566.92543,251.30501 570.93594,251.96914 C574.37352,252.5384 577.87057,252.5423 581.33399,252.07606 C588.26081,251.14358 595.05309,248.33052 599.80148,243.34667 C602.57137,240.43942 604.64577,236.7935 605.48039,232.87895 C606.19577,229.52362 606.00029,225.97094 605.12605,222.62584 C604.25182,219.28073 602.69883,216.1432 600.68922,213.31354 C598.67962,210.48387 596.2134,207.96207 593.3227,206.0633 z" id="mode-8 position-1" class="data contour"/>
		<path d="M 593.38727 205.94815 C591.5284,204.46345 589.43895,203.21441 587.21024,202.58169 C585.53872,202.10716 583.78886,201.97931 582.09894,202.10348 C578.7191,202.35182 575.57903,203.60823 572.48809,205.22389 C569.39716,206.83956 566.35538,208.81448 563.14849,210.16013 C561.54505,210.83296 559.90033,211.34847 558.2743,211.64747 C556.64828,211.94647 555.04095,212.02895 553.43922,212.34021 C551.30358,212.75522 549.17791,213.57693 547.83283,215.25096 C546.82403,216.50649 546.25432,218.24145 546.21032,219.99829 C546.16632,221.75512 546.64803,223.53383 547.23116,225.21341 C547.81429,226.89299 548.49884,228.47345 549.12931,230.11184 C550.39025,233.38863 551.4349,236.89714 553.01598,240.10371 C553.80652,241.70699 554.73118,243.23478 555.83756,244.60029 C556.94393,245.96581 558.23204,247.16904 559.65131,248.15337 C562.96293,250.45014 566.98863,251.55513 571.05355,251.9271 C574.53777,252.24594 578.0508,252.02623 581.46528,251.47082 C584.87976,250.91541 588.19569,250.0243 591.34904,248.71341 C594.50239,247.40253 597.49317,245.67187 599.92904,243.32733 C602.77089,240.59204 604.85746,237.02119 605.60815,233.17157 C606.25159,229.87189 605.91358,226.36741 604.93441,223.08629 C603.95524,219.80518 602.3349,216.74743 600.38999,213.83993 C598.44507,210.93243 596.17557,208.17518 593.38727,205.94815 z" id="mode-8 position-2" class="data contour"/>
		<text font-size="14" class="shapemode label" text-anchor="middle" x="576.10028" y="454.5">Shape Mode 8</text>
		<text font-size="12" class="shapemode label" text-anchor="middle" x="576.10028" y="467"> (1.5% of total variance)</text>
	</g>
	<g id="scale bar" class="layer">
		<g id="scalebar lines">
			<line id="scalebar" class="scalebar" x1="30" x2="72.447531" y1="480" y2="480"/>
			<line id="scalebar left tic" class="scalebar tic" x1="30" x2="30" y1="478.5" y2="481.5"/>
			<line id="scalebar right tic" class="scalebar tic" x1="72.447531" x2="72.447531" y1="478.5" y2="481.5"/>
		</g>
		<text font-size="12" class="scalebar label" text-anchor="middle" x="51.223766" y="493.5">100 pixels</text>
	</g>
	<g id="legend" class="layer">
		<g id="-2 s.d. row">
			<line id="position--2" class="data legend" x1="550" x2="600" y1="19" y2="19"/>
			<text font-size="12" class="legend label" text-anchor="start" x="603" y="22">-2 s.d.</text>
		</g>
		<g id="-1 s.d. row">
			<line id="position--1" class="data legend" x1="550" x2="600" y1="34" y2="34"/>
			<text font-size="12" class="legend label" text-anchor="start" x="603" y="37">-1 s.d.</text>
		</g>
		<g id="mean row">
			<line id="position-0" class="data legend" x1="550" x2="600" y1="49" y2="49"/>
			<text font-size="12" class="legend label" text-anchor="start" x="603" y="52">mean</text>
		</g>
		<g id="1 s.d. row">
			<line id="position-1" class="data legend" x1="550" x2="600" y1="64" y2="64"/>
			<text font-size="12" class="legend label" text-anchor="start" x="603" y="67">1 s.d.</text>
		</g>
		<g id="2 s.d. row">
			<line id="position-2" class="data legend" x1="550" x2="600" y1="79" y2="79"/>
			<text font-size="12" class="legend label" text-anchor="start" x="603" y="82">2 s.d.</text>
		</g>
	</g>
	<g id="title" class="layer">
		<text font-size="14" class="plot title" text-anchor="middle" x="320" y="14">trainModel</text>
	</g>
</svg>
