<?xml version='1.0' encoding='UTF-8'?>
<!DOCTYPE svg PUBLIC "-//W3C//DTD SVG 1.0//EN" "http://www.w3.org/TR/2001/REC-SVG-20010904/DTD/svg10.dtd ">
<svg height="480" viewBox="0 0 640 480" width="640" xmlns:xlink="http://www.w3.org/1999/xlink" xmlns="http://www.w3.org/2000/svg" >
	<defs>
		<title>trainModel</title>
		<style type="text/css">
			<![CDATA[
				.data {
					fill: none;
					stroke: black;
					stroke-linecap: round;
					stroke-width: 1.5;
				}
				[id~="position--1"] {
					stroke: rgb(58,0,212);
				}
				[id~="position--2"] {
					stroke: rgb(0,0,0);
				}
				[id~="position-0"] {
					stroke: rgb(162,35,127);
				}
				[id~="position-1"] {
					stroke: rgb(255,83,0);
				}
				[id~="position-2"] {
					stroke: rgb(255,150,0);
				}
				line.axis {
					stroke: dimgrey;
					stroke-width: 0.75;
				}
				line.colorbar.tic {
					stroke: black;
					stroke-linecap: butt;
					stroke-width: 0.5;
				}
				line.scalebar {
					stroke: black;
					stroke-width: 0.75;
				}
				line.tic {
					stroke-linecap: round;
				}
				rect.colorbar {
					fill: none;
					stroke: black;
					stroke-width: 0.5;
				}
				rect.plot {
					fill: none;
					stroke: none;
				}
				text {
					font-family: Times;
				}
				text.axis {
					fill: dimgrey;
				}
				text.colorbar.label {
					fill: black;
				}
				text.label {
					font-weight: normal;
				}
				text.title {
					font-weight: bold;
				}
			]]>
		</style>
	</defs>
	<g id="Shape Mode 1" class="layer">
		<path d="M 80.142147 236.78209 C81.740066,234.13941 82.715067,231.10497 82.867658,228.03879 C82.998449,225.41064 82.525021,222.75918 81.576769,220.31288 C80.628517,217.86659 79.205441,215.62546 77.389169,213.79891 C75.572897,211.97236 73.363429,210.5604 70.997627,209.68512 C68.237524,208.66395 65.264632,208.37328 62.370188,208.66456 C59.889236,208.91424 57.465918,209.59148 55.103759,210.43612 C52.741599,211.28077 50.440599,212.29283 48.214316,213.31344 C45.988033,214.33406 43.836469,215.36323 42.154018,217.0349 C41.032384,218.14935 40.119244,219.54935 39.566224,221.12457 C39.151458,222.30598 38.939259,223.58595 38.914728,224.86589 C38.865664,227.42575 39.567269,229.98546 40.610777,232.39953 C41.654285,234.81361 43.039696,237.08204 44.768916,239.07174 C46.498136,241.06144 48.571165,242.77241 50.886032,244.06107 C53.58671,245.56452 56.616558,246.49317 59.700197,246.76809 C62.343317,247.00373 65.025958,246.75907 67.602162,246.05132 C70.178366,245.34357 72.648134,244.17273 74.796667,242.59865 C76.945201,241.02457 78.772501,239.04724 80.142147,236.78209 z" id="mode-1 position--2" class="data contour"/>
		<path d="M 83.345605 238.35716 C85.245232,235.31239 86.392417,231.77409 86.582273,228.20101 C86.745007,225.13838 86.204397,222.05019 85.086848,219.20877 C83.969299,216.36735 82.274811,213.7727 80.127717,211.67564 C77.980622,209.57858 75.380921,207.97913 72.605928,207.02299 C69.368436,205.9075 65.892352,205.66762 62.512923,206.07817 C59.616271,206.43006 56.790631,207.2598 54.04778,208.24361 C51.30493,209.22742 48.64487,210.36528 46.046081,211.48448 C43.447291,212.60368 40.909772,213.7042 38.912341,215.5822 C37.58072,216.83419 36.489139,218.43172 35.867621,220.24335 C35.401483,221.60207 35.199755,223.08121 35.203804,224.54635 C35.211903,227.47661 36.043112,230.35083 37.28463,233.0788 C39.767666,238.53475 43.891941,243.40572 49.2027,246.36622 C54.956023,249.57343 62.101817,250.53849 68.61197,248.87839 C74.621342,247.34599 80.089102,243.57677 83.345605,238.35716 z" id="mode-1 position--1" class="data contour"/>
		<path d="M 86.54175 239.93177 C88.738199,236.48127 90.072392,232.44283 90.301667,228.36368 C90.498187,224.86727 89.882931,221.34095 88.594429,218.10427 C87.305927,214.86758 85.34418,211.92053 82.867464,209.55287 C80.390748,207.18521 77.399063,205.39696 74.213968,204.36016 C70.498024,203.15056 66.518826,202.96379 62.655551,203.49272 C59.344171,203.94609 56.117959,204.92528 52.992737,206.049 C49.867515,207.17272 46.843284,208.44097 43.875046,209.65884 C40.906808,210.8767 37.994562,212.04418 35.677473,214.12696 C34.132747,215.51548 32.852535,217.3108 32.157809,219.35892 C31.636765,220.89501 31.445057,222.5733 31.482148,224.22507 C31.556329,227.52861 32.545706,230.72608 33.981252,233.76707 C36.852342,239.84906 41.508104,245.30516 47.525363,248.66455 C54.04406,252.3039 62.160625,253.48252 69.60519,251.68941 C76.477096,250.03423 82.77641,245.84691 86.54175,239.93177 z" id="mode-1 position-0" class="data contour"/>
		<path d="M 89.746801 241.51029 C92.239026,237.65364 93.747933,233.1097 94.015608,228.524 C94.245043,224.5934 93.562553,220.63212 92.104626,217.00083 C90.646698,213.36955 88.413334,210.06824 85.605933,207.42958 C82.798533,204.79092 79.417095,202.81489 75.82256,201.69763 C71.628936,200.39415 67.145264,200.25954 62.797824,200.90696 C59.071447,201.4619 55.44516,202.59138 51.937928,203.85495 C48.430695,205.11852 45.042518,206.51617 41.703678,207.83224 C38.364838,209.1483 35.075337,210.38279 32.444638,212.67349 C30.690839,214.20063 29.229841,216.19719 28.450823,218.47623 C27.86656,220.18552 27.665911,222.05369 27.734785,223.89126 C27.872533,227.5664 29.088374,231.1191 30.718638,234.47393 C32.348902,237.82876 34.393588,240.98573 36.924895,243.79809 C39.456201,246.61046 42.474128,249.07822 45.855581,250.9661 C53.182063,255.05651 62.215103,256.4247 70.585633,254.4948 C78.312276,252.71336 85.474414,248.12171 89.746801,241.51029" id="mode-1 position-1" class="data contour"/>
		<path d="M 92.947966 243.07681 C94.554684,240.63742 95.812279,237.94401 96.624904,235.14098 C97.234374,233.03871 97.593548,230.87478 97.714194,228.69612 C97.955484,224.3388 97.242659,219.92255 95.624273,215.89163 C94.005888,211.86071 91.481943,208.21512 88.33938,205.30863 C85.196817,202.40214 81.435636,200.23475 77.4339,199.03486 C72.765208,197.63498 67.769095,197.55196 62.937783,198.32061 C58.796657,198.97944 54.77661,200.26398 50.885614,201.66361 C46.994619,203.06323 43.232676,204.57794 39.529261,206.00058 C35.825846,207.42323 32.180959,208.75381 29.208908,211.22004 C28.218224,212.04212 27.3023,212.99038 26.539612,214.06267 C25.776924,215.13495 25.167472,216.33126 24.748006,217.59772 C24.118807,219.49739 23.917075,221.55489 24.013629,223.57323 C24.206738,227.60991 25.592994,231.48998 27.419408,235.16185 C29.245822,238.83371 31.512393,242.29738 34.311615,245.37831 C37.110837,248.45923 40.442708,251.1574 44.177445,253.26001 C46.66727,254.66175 49.336146,255.7988 52.112965,256.60665 C54.19558,257.21255 56.338913,257.63327 58.508699,257.88842 C62.848271,258.39873 67.293654,258.24677 71.584286,257.3068 C80.165551,255.42688 88.127813,250.39498 92.947966,243.07681 z" id="mode-1 position-2" class="data contour"/>
		<text font-size="14" class="shapemode label" text-anchor="middle" x="60.879046" y="454.5">Shape Mode 1</text>
		<text font-size="12" class="shapemode label" text-anchor="middle" x="60.879046" y="467"> (56.0% of total variance)</text>
	</g>
	<g id="Shape Mode 2" class="layer">
		<path d="M 164.10273 241.7777 C165.89426,238.4521 166.92678,234.70992 167.23917,230.92529 C167.50694,227.68131 167.24563,224.40616 166.44287,221.20762 C165.6401,218.00908 164.29589,214.88715 162.40227,211.99887 C160.50865,209.11058 158.06564,206.45593 155.12585,204.41326 C153.16599,203.05147 150.98535,201.96168 148.73374,201.23071 C147.04504,200.68248 145.31643,200.3361 143.58262,200.14355 C140.11501,199.75847 136.62663,199.98876 133.35255,200.9105 C130.07846,201.83224 127.01866,203.44543 124.18449,205.90121 C121.35032,208.35699 118.74178,211.65537 117.1014,215.32216 C116.00781,217.76669 115.34451,220.37496 115.0285,222.78811 C114.79149,224.59797 114.74983,226.29808 114.79397,227.9987 C114.88226,231.39992 115.31375,234.80314 116.31924,238.07712 C117.32474,241.3511 118.90426,244.49584 121.02881,247.15567 C123.15337,249.8155 125.82296,251.99044 128.79523,253.48211 C132.26288,255.22239 136.14251,256.03268 139.98522,256.02472 C143.27898,256.0179 146.54561,255.40991 149.60699,254.25845 C155.72976,251.95553 161.03153,247.47873 164.10273,241.7777 z" id="mode-2 position--2" class="data contour"/>
		<path d="M 165.44755 241.64723 C167.43754,238.25737 168.61521,234.3604 168.89325,230.4314 C169.13157,227.06368 168.70894,223.67243 167.65776,220.4527 C165.5554,214.01323 160.93885,208.25984 154.81147,205.18449 C152.76902,204.15937 150.55869,203.43182 148.31605,203.02155 C146.63407,202.71386 144.93392,202.58464 143.24148,202.60178 C139.8566,202.63607 136.5026,203.25581 133.3028,204.27638 C130.103,205.29695 127.05739,206.71835 124.15269,208.5604 C121.248,210.40246 118.48421,212.66516 116.51769,215.52922 C115.20667,217.4386 114.25,219.61524 113.73366,221.84426 C113.3464,223.51602 113.20684,225.21725 113.24168,226.90096 C113.31136,230.2684 114.07867,233.56579 115.30297,236.71829 C116.52726,239.87078 118.20855,242.87837 120.40233,245.47949 C122.59612,248.0806 125.30242,250.27524 128.30252,251.86425 C134.80275,255.3071 142.68225,255.90683 149.73098,253.76056 C156.2375,251.77939 162.03614,247.45844 165.44755,241.64723 z" id="mode-2 position--1" class="data contour"/>
		<path d="M 166.79486 241.51207 C168.99131,238.06157 170.3255,234.02313 170.55477,229.94398 C170.7513,226.44757 170.13604,222.92126 168.84754,219.68457 C167.55903,216.44789 165.59729,213.50083 163.12057,211.13317 C160.64386,208.76552 157.65217,206.97726 154.46708,205.94046 C150.75113,204.73086 146.77193,204.54409 142.90866,205.07302 C139.59728,205.52639 136.37107,206.50558 133.24585,207.6293 C130.12062,208.75302 127.09639,210.02128 124.12815,211.23914 C121.15992,212.45701 118.24767,213.62448 115.93058,215.70726 C114.38586,217.09578 113.10564,218.8911 112.41092,220.93922 C111.88987,222.47531 111.69817,224.1536 111.73526,225.80537 C111.80944,229.10891 112.79881,232.30638 114.23436,235.34738 C117.10545,241.42937 121.76121,246.88546 127.77847,250.24486 C134.29717,253.8842 142.41373,255.06283 149.8583,253.26971 C156.7302,251.61453 163.02952,247.42721 166.79486,241.51207 z" id="mode-2 position-0" class="data contour"/>
		<path d="M 168.15382 241.38677 C170.55135,237.87258 172.01818,233.67386 172.20479,229.44818 C172.36473,225.82617 171.58411,222.18435 170.05397,218.92727 C168.52383,215.67019 166.24418,212.79786 163.47642,210.69476 C160.70866,208.59166 157.45279,207.2578 154.14157,206.7124 C150.27848,206.07609 146.34005,206.51297 142.57397,207.54754 C139.3459,208.43432 136.24445,209.76022 133.19114,210.98063 C130.13782,212.20105 127.13264,213.31597 124.0992,213.91499 C121.06576,214.514 118.00406,214.5971 115.35257,215.89619 C113.5849,216.76224 111.99955,218.16874 111.094,220.01842 C110.41484,221.40568 110.11807,223.04224 110.16256,224.67818 C110.20704,226.31413 110.59279,227.94947 111.14601,229.50621 C111.69924,231.06295 112.41994,232.5411 113.23164,233.98813 C116.47846,239.77626 121.1813,245.06649 127.274,248.62049 C130.82807,250.69366 134.85508,252.17603 139.04598,252.8577 C142.63818,253.44199 146.35078,253.43801 149.96671,252.76659 C157.19858,251.42374 164.04376,247.4111 168.15382,241.38677 z" id="mode-2 position-1" class="data contour"/>
		<path d="M 169.50638 241.25008 C171.00176,239.20088 172.18101,236.89854 172.9234,234.49585 C173.48018,232.69382 173.79123,230.83535 173.84519,228.96588 C173.95309,225.22694 173.03262,221.444 171.2668,218.16214 C169.50098,214.88027 166.88982,212.09948 163.82848,210.26194 C160.76714,208.42439 157.25562,207.53009 153.81898,207.47784 C149.80956,207.41688 145.90206,208.50204 142.23593,210.0298 C139.09354,211.33931 136.12848,212.97398 133.14269,214.3237 C131.64979,214.99856 130.15171,215.60217 128.63865,215.99586 C127.12559,216.38954 125.59756,216.5733 124.05879,216.55984 C122.52001,216.54639 120.9705,216.33573 119.40672,216.15761 C117.84293,215.97949 116.26487,215.83391 114.76003,216.07869 C112.75357,216.40506 110.87729,217.42538 109.78039,219.09451 C108.95773,220.34636 108.57347,221.96316 108.61819,223.57647 C108.66291,225.18979 109.1366,226.79962 109.79448,228.31274 C110.45236,229.82585 111.29443,231.24225 112.20749,232.62741 C115.85974,238.16806 120.64798,243.209 126.77677,246.99328 C128.8197,248.2547 131.01158,249.3765 133.33044,250.24788 C135.06958,250.90141 136.88014,251.41409 138.73108,251.79218 C142.43298,252.54834 146.29641,252.76611 150.09392,252.26641 C157.68893,251.267 165.02023,247.39768 169.50638,241.25008 z" id="mode-2 position-2" class="data contour"/>
		<text font-size="14" class="shapemode label" text-anchor="middle" x="141.2214" y="454.5">Shape Mode 2</text>
		<text font-size="12" class="shapemode label" text-anchor="middle" x="141.2214" y="467"> (15.9% of total variance)</text>
	</g>
	<g id="Shape Mode 3" class="layer">
		<path d="M 242.09895 240.10995 C244.04974,236.05674 244.98049,231.55314 244.86677,227.13351 C244.76929,223.34526 243.90444,219.61871 242.46624,216.18976 C241.02803,212.76081 239.01647,209.62946 236.49004,207.04589 C233.9636,204.46232 230.92229,202.42653 227.75345,201.44464 C224.05647,200.29909 220.18589,200.58801 216.74323,201.95836 C213.79238,203.13294 211.15592,205.10204 208.52904,207.00641 C205.90216,208.91077 203.28487,210.7504 200.61543,211.46999 C197.946,212.18957 195.22441,211.78912 192.85629,212.87269 C192.06692,213.23388 191.31682,213.75997 190.69404,214.44813 C190.07126,215.13628 189.5758,215.98652 189.24886,216.92787 C188.75845,218.33989 188.64719,219.9569 188.76226,221.55907 C188.87732,223.16124 189.21869,224.74856 189.61981,226.34472 C190.02093,227.94087 190.48179,229.54586 190.98979,231.17398 C192.00581,234.43023 193.2104,237.77903 194.97809,240.92134 C196.74578,244.06365 199.07656,246.99947 201.92886,249.34317 C205.25654,252.07749 209.29406,254.00586 213.60792,254.83431 C217.30551,255.54441 221.20613,255.44641 224.90261,254.48446 C228.59909,253.5225 232.09144,251.69659 235.04838,249.212 C238.00531,246.7274 240.42684,243.58413 242.09895,240.10995" id="mode-3 position--2" class="data contour"/>
		<path d="M 241.9642 239.79512 C244.04078,236.04658 245.15477,231.75846 245.21008,227.50685 C245.25749,223.86261 244.5271,220.24519 243.16609,216.91434 C241.80509,213.58348 239.81348,210.53919 237.31024,208.06228 C234.807,205.58537 231.79214,203.67584 228.61634,202.66737 C224.91125,201.49082 220.98713,201.54071 217.33265,202.48952 C214.20024,203.30279 211.26595,204.77649 208.39182,206.29207 C205.51769,207.80765 202.70373,209.36512 199.88097,210.3293 C197.05821,211.29349 194.22666,211.66438 191.89774,213.26733 C190.34513,214.33597 189.01591,215.95218 188.33666,217.90225 C187.82723,219.36481 187.68341,221.01515 187.75449,222.6468 C187.89665,225.9101 188.8984,229.09861 190.14314,232.24409 C191.38789,235.38957 192.87564,238.49202 194.88528,241.33417 C196.89492,244.17631 199.42646,246.75816 202.36761,248.77239 C205.79896,251.12232 209.78783,252.69966 213.98302,253.34175 C217.5789,253.89211 221.32636,253.75534 224.88945,252.85742 C232.01563,251.0616 238.40434,246.2212 241.9642,239.79512 z" id="mode-3 position--1" class="data contour"/>
		<path d="M 241.8071 239.4605 C244.00355,236.01 245.33774,231.97156 245.56702,227.89241 C245.76354,224.396 245.14828,220.86969 243.85978,217.633 C242.57128,214.39632 240.60953,211.44926 238.13282,209.0816 C235.6561,206.71395 232.66441,204.92569 229.47932,203.88889 C225.76338,202.67929 221.78418,202.49252 217.9209,203.02145 C214.60952,203.47482 211.38331,204.45401 208.25809,205.57773 C205.13287,206.70145 202.10864,207.96971 199.1404,209.18757 C196.17216,210.40544 193.25991,211.57291 190.94282,213.65569 C189.3981,215.04421 188.11789,216.83953 187.42316,218.88765 C186.90212,220.42374 186.71041,222.10203 186.7475,223.7538 C186.82168,227.05734 187.81106,230.25481 189.2466,233.29581 C192.11769,239.3778 196.77346,244.83389 202.79071,248.19329 C209.30941,251.83263 217.42598,253.01126 224.87054,251.21814 C231.74245,249.56296 238.04176,245.37564 241.8071,239.4605" id="mode-3 position-0" class="data contour"/>
		<path d="M 241.65041 239.13472 C243.96587,235.98109 245.52071,232.17914 245.92385,228.2723 C246.2694,224.92358 245.76881,221.49779 244.55311,218.35539 C243.3374,215.21298 241.40659,212.35395 238.95618,210.0964 C236.50576,207.83885 233.53574,206.18278 230.34117,205.11758 C223.4196,202.80965 215.44389,203.27553 208.12452,204.86832 C204.74635,205.60346 201.50799,206.57865 198.39675,208.04666 C195.2855,209.51467 192.30137,211.4755 189.99721,214.04183 C188.46111,215.75272 187.22721,217.73272 186.50063,219.8743 C185.95569,221.48048 185.69611,223.17756 185.7031,224.84914 C185.71707,228.19231 186.7973,231.43352 188.41588,234.37008 C191.65303,240.2432 197.04359,244.89772 203.2515,247.61299 C209.97675,250.55455 217.66125,251.22019 224.84511,249.56749 C231.47637,248.04192 237.68104,244.54095 241.65041,239.13472 z" id="mode-3 position-1" class="data contour"/>
		<path d="M 241.54331 238.79364 C243.99277,235.93431 245.68413,232.39674 246.25044,228.6624 C246.73585,225.46153 246.3947,222.1161 245.26072,219.06935 C244.12674,216.0226 242.19993,213.27454 239.77126,211.12343 C237.34259,208.97231 234.41206,207.41813 231.2104,206.3268 C227.47513,205.05357 223.37081,204.41033 219.09156,204.0927 C215.42362,203.82045 211.62717,203.78743 207.99803,204.13384 C204.36889,204.48024 200.90706,205.20606 197.64957,206.92626 C194.39208,208.64646 191.33891,211.36103 189.04899,214.41278 C186.37741,217.97316 184.74468,221.99246 184.67707,225.94184 C184.6481,227.63443 184.9066,229.31418 185.40865,230.91255 C185.9107,232.51093 186.65631,234.02793 187.56491,235.43801 C189.3821,238.25817 191.85125,240.65064 194.62949,242.58761 C197.40773,244.52458 200.49505,246.00606 203.68388,247.03895 C210.59302,249.27689 217.97868,249.40896 224.84492,247.91355 C228.01396,247.22336 231.07235,246.18648 233.92981,244.69177 C236.78726,243.19706 239.44377,241.2445 241.54331,238.79364 z" id="mode-3 position-2" class="data contour"/>
		<text font-size="14" class="shapemode label" text-anchor="middle" x="215.56728" y="454.5">Shape Mode 3</text>
		<text font-size="12" class="shapemode label" text-anchor="middle" x="215.56728" y="467"> (6.9% of total variance)</text>
	</g>
	<g id="Shape Mode 4" class="layer">
		<path d="M 313.29806 240.92138 C315.91711,237.62709 317.95986,233.72742 318.81002,229.51959 C319.53873,225.91288 319.39124,222.07978 318.22252,218.58335 C317.0538,215.08692 314.86384,211.92717 312.07052,209.49927 C309.2772,207.07136 305.88053,205.3753 302.2657,204.29219 C298.0484,203.02857 293.53417,202.59924 289.22316,203.07097 C285.52801,203.47532 281.98218,204.54166 278.85988,206.17101 C277.29873,206.98569 275.84346,207.94111 274.36713,208.84334 C272.8908,209.74556 271.39341,210.59458 269.93779,211.32582 C268.48217,212.05707 267.06833,212.67053 265.6865,213.35232 C264.30468,214.03412 262.95487,214.78425 261.83561,215.81836 C261.08944,216.50776 260.44575,217.32339 259.97376,218.25031 C259.50178,219.17723 259.20151,220.21544 259.13921,221.25154 C259.04575,222.80569 259.48771,224.35508 260.10063,225.77106 C261.32646,228.60301 263.23611,230.9013 264.70565,233.47896 C266.17518,236.05661 267.20462,238.91361 268.74033,241.60431 C270.27603,244.29502 272.318,246.81942 274.89182,248.70428 C277.89461,250.90329 281.6213,252.23181 285.51712,252.70108 C288.8564,253.10331 292.31993,252.87425 295.70721,252.06933 C299.0945,251.26442 302.40553,249.88365 305.3952,248.00381 C308.38487,246.12397 311.05316,243.74506 313.29806,240.92138 z" id="mode-4 position--2" class="data contour"/>
		<path d="M 313.71499 240.67158 C316.12642,237.29803 317.79279,233.32842 318.32979,229.18562 C318.79008,225.63465 318.42064,221.95644 317.19416,218.58917 C315.96769,215.2219 313.88418,212.16558 311.24853,209.76918 C308.61287,207.37278 305.42506,205.6363 302.0245,204.57403 C298.05718,203.33472 293.80027,203.01307 289.71818,203.52141 C286.21925,203.95713 282.84876,205.00263 279.70923,206.36216 C276.56971,207.72168 273.66116,209.39523 270.71508,210.74494 C267.769,212.09465 264.78539,213.12053 262.53829,215.22041 C261.04023,216.62033 259.8695,218.49759 259.44674,220.53852 C259.12966,222.06921 259.23332,223.69197 259.55243,225.23304 C260.19064,228.31517 261.69063,231.07054 263.14824,233.87716 C264.60585,236.68377 266.02107,239.54163 267.91905,242.15658 C269.81703,244.77153 272.19777,247.14358 274.99714,248.93027 C278.26307,251.01473 282.09881,252.30246 286.08685,252.76048 C289.50518,253.15307 293.0354,252.93609 296.4428,252.11951 C303.2576,250.48636 309.58109,246.45481 313.71499,240.67158 z" id="mode-4 position--1" class="data contour"/>
		<path d="M 314.10559 240.42087 C316.30204,236.97037 317.63624,232.93193 317.86551,228.85278 C318.06203,225.35637 317.44677,221.83006 316.15827,218.59337 C314.86977,215.35668 312.90802,212.40963 310.43131,210.04197 C307.95459,207.67432 304.96291,205.88606 301.77781,204.84926 C298.06187,203.63966 294.08267,203.45289 290.2194,203.98182 C286.90802,204.43519 283.6818,205.41438 280.55658,206.5381 C277.43136,207.66182 274.40713,208.93008 271.43889,210.14794 C268.47065,211.36581 265.55841,212.53328 263.24132,214.61606 C261.69659,216.00458 260.41638,217.7999 259.72165,219.84802 C259.20061,221.38411 259.0089,223.0624 259.04599,224.71417 C259.12017,228.01771 260.10955,231.21518 261.5451,234.25618 C264.41619,240.33817 269.07195,245.79426 275.08921,249.15366 C281.6079,252.793 289.72447,253.97162 297.16903,252.17851 C304.04094,250.52333 310.34025,246.33601 314.10559,240.42087 z" id="mode-4 position-0" class="data contour"/>
		<path d="M 314.51922 240.17866 C315.65903,238.15451 316.4763,235.93154 316.93001,233.66321 C317.27029,231.96196 317.40607,230.2352 317.36607,228.52138 C317.28608,225.09373 316.503,221.71782 315.156,218.60279 C312.46198,212.37272 307.51225,207.18616 301.56022,205.13985 C299.57621,204.45775 297.48083,204.12456 295.39659,204.09031 C293.83341,204.06463 292.27649,204.2071 290.72213,204.44976 C287.61341,204.93509 284.51493,205.82118 281.40003,206.70586 C278.28513,207.59054 275.1538,208.47381 272.16522,209.55803 C269.17664,210.64224 266.33081,211.92741 263.94701,214.00534 C262.3578,215.39062 260.97395,217.12824 259.99221,219.17385 C259.25591,220.70807 258.7458,222.41553 258.50254,224.17122 C258.016,227.6826 258.59685,231.38686 260.00882,234.66774 C261.4208,237.94863 263.66391,240.80613 266.29222,243.26636 C268.92054,245.72659 271.93405,247.78956 275.18565,249.37923 C282.2308,252.82352 290.39368,254.04595 297.87335,252.21987 C304.77765,250.53427 311.09981,246.25113 314.51922,240.17866 z" id="mode-4 position-1" class="data contour"/>
		<path d="M 314.92189 239.90695 C315.95055,237.83585 316.61739,235.58701 316.88821,233.31245 C317.09133,231.60653 317.07168,229.88614 316.88967,228.19922 C316.52566,224.82538 315.51223,221.58543 314.11477,218.59894 C312.71731,215.61246 310.9358,212.87944 308.77556,210.58207 C306.61532,208.2847 304.07634,206.42297 301.30809,205.41392 C299.46259,204.74121 297.51519,204.44748 295.57504,204.46158 C294.11992,204.47216 292.66889,204.65591 291.22078,204.91666 C289.77266,205.17741 288.32748,205.51517 286.83462,205.85959 C285.34177,206.20402 283.80124,206.55511 282.23776,206.87245 C279.11081,207.50713 275.89208,208.00679 272.8922,208.968 C269.89233,209.9292 267.11133,211.35195 264.6552,213.3994 C263.01778,214.76436 261.52475,216.40697 260.26136,218.46406 C259.31382,220.00687 258.49545,221.78284 257.97199,223.6573 C256.92506,227.40624 257.05775,231.54919 258.44437,235.0566 C259.83098,238.56401 262.47153,241.43587 265.46997,243.82212 C268.46841,246.20838 271.82475,248.10901 275.29893,249.60181 C279.35215,251.34341 283.56576,252.52991 287.81711,252.94781 C291.46113,253.30601 295.13287,253.09953 298.61211,252.25198 C302.09134,251.40442 305.37805,249.91579 308.19994,247.81809 C311.02183,245.72039 313.3789,243.01362 314.92189,239.90695 z" id="mode-4 position-2" class="data contour"/>
		<text font-size="14" class="shapemode label" text-anchor="middle" x="288.2776" y="454.5">Shape Mode 4</text>
		<text font-size="12" class="shapemode label" text-anchor="middle" x="288.2776" y="467"> (3.6% of total variance)</text>
	</g>
	<g id="Shape Mode 5" class="layer">
		<path d="M 388.34572 239.84014 C389.83904,237.92066 391.0824,235.76036 391.90026,233.47054 C392.51365,231.75318 392.8877,229.96296 393.03013,228.14475 C393.31499,224.50833 392.67337,220.75994 391.16918,217.47351 C389.66498,214.18708 387.2982,211.36261 384.44584,209.25168 C383.01966,208.19622 381.47208,207.31914 379.88967,206.62043 C378.30725,205.92172 376.69001,205.40137 375.0407,205.01986 C371.19233,204.12967 367.16943,203.99538 363.37726,204.52187 C360.12684,204.97315 357.04593,205.90991 354.00299,206.79935 C352.48153,207.24407 350.96955,207.67696 349.52356,208.00244 C348.07757,208.32793 346.69757,208.54601 345.3315,208.89802 C342.59936,209.60204 339.92294,210.84177 338.13377,213.48409 C337.53738,214.36487 337.03958,215.40149 336.69548,216.47299 C336.35137,217.54449 336.16097,218.65088 336.01576,219.71514 C335.79793,221.31154 335.68175,222.81315 335.55336,224.42046 C335.29658,227.63508 334.99093,231.27248 335.45679,234.75765 C335.92265,238.24282 337.16001,241.57576 339.23259,244.15701 C341.30516,246.73827 344.21294,248.56784 347.42671,249.81826 C351.17611,251.27709 355.342,251.94762 359.50493,252.02533 C363.07316,252.09193 366.63923,251.72299 370.13821,250.87852 C377.13616,249.18959 383.86575,245.59857 388.34572,239.84014 z" id="mode-5 position--2" class="data contour"/>
		<path d="M 388.1655 239.96422 C390.56023,236.55381 392.06825,232.50083 392.36629,228.3433 C392.62176,224.7797 391.98825,221.13928 390.58364,217.87403 C389.17903,214.60878 387.00331,211.71869 384.35328,209.48636 C381.70325,207.25403 378.5789,205.67946 375.32292,204.77277 C371.52428,203.71496 367.54649,203.5662 363.7228,204.09566 C360.44534,204.54949 357.2811,205.5016 354.19411,206.50887 C352.65062,207.0125 351.12644,207.52992 349.6485,207.99548 C348.17057,208.46105 346.73888,208.87476 345.31161,209.3569 C342.45707,210.32117 339.62019,211.55918 337.60952,213.89939 C336.26907,215.45953 335.29583,217.50954 334.77078,219.6076 C334.37699,221.18114 334.23532,222.78172 334.20136,224.416 C334.13343,227.68457 334.49638,231.08799 335.43992,234.34715 C336.38346,237.60631 337.9076,240.72121 340.0805,243.28201 C342.25339,245.84281 345.07504,247.84951 348.19167,249.31885 C354.94435,252.5024 363.08174,253.16328 370.58526,251.35157 C374.04843,250.5154 377.37657,249.15251 380.39268,247.24552 C383.40879,245.33852 386.11287,242.88742 388.1655,239.96422" id="mode-5 position--1" class="data contour"/>
		<path d="M 387.94285 240.10269 C390.1393,236.65219 391.47349,232.61374 391.70276,228.5346 C391.89928,225.03819 391.28403,221.51187 389.99553,218.27519 C388.70702,215.0385 386.74528,212.09145 384.26856,209.72379 C381.79184,207.35613 378.80016,205.56787 375.61507,204.53108 C371.89912,203.32148 367.91992,203.13471 364.05665,203.66364 C360.74527,204.117 357.51906,205.0962 354.39383,206.21992 C351.26861,207.34364 348.24438,208.61189 345.27614,209.82976 C342.3079,211.04762 339.39566,212.2151 337.07857,214.29788 C335.53384,215.6864 334.25363,217.48171 333.55891,219.52983 C333.03786,221.06592 332.84615,222.74421 332.88324,224.39599 C332.95743,227.69953 333.9468,230.897 335.38235,233.93799 C338.25344,240.01998 342.9092,245.47608 348.92646,248.83547 C355.44516,252.47481 363.56172,253.65344 371.00629,251.86033 C377.87819,250.20515 384.17751,246.01783 387.94285,240.10269 z" id="mode-5 position-0" class="data contour"/>
		<path d="M 387.74661 240.22091 C389.74966,236.71731 390.86778,232.73577 391.02346,228.73937 C391.1569,225.31389 390.58323,221.8775 389.41485,218.66757 C388.24647,215.45764 386.48337,212.47417 384.17895,209.96985 C381.87452,207.46552 379.02877,205.44034 375.9131,204.27756 C372.27815,202.92099 368.27582,202.73825 364.3832,203.24596 C361.04668,203.68115 357.79076,204.6236 354.60437,205.91213 C351.41798,207.20065 348.30111,208.83526 345.24228,210.27237 C342.18345,211.70947 339.18267,212.94909 336.56255,214.71965 C335.68917,215.30984 334.85809,215.95902 334.12504,216.7367 C333.392,217.51439 332.75699,218.42057 332.31206,219.43344 C331.64468,220.95274 331.40499,222.71208 331.5289,224.38457 C331.7767,227.72957 333.47886,230.72721 335.39332,233.54386 C337.30777,236.3605 339.43452,238.99615 341.79635,241.51486 C344.15818,244.03358 346.75508,246.43537 349.68546,248.34273 C353.10424,250.56797 356.97693,252.12025 361.00473,252.74692 C364.45713,253.28406 368.02348,253.14117 371.42429,252.32466 C374.8251,251.50814 378.06036,250.018 380.86151,247.94696 C383.66267,245.87592 386.02972,243.22399 387.74661,240.22091 z" id="mode-5 position-1" class="data contour"/>
		<path d="M 387.54171 240.35105 C389.34752,236.79741 390.25499,232.84343 390.34628,228.93395 C390.42454,225.58296 389.90316,222.26466 388.84115,219.07267 C387.77913,215.88069 386.17649,212.81502 384.07755,210.19827 C383.02808,208.8899 381.85453,207.69375 380.53142,206.64404 C379.20831,205.59433 377.73563,204.69105 376.19634,204.03277 C372.60464,202.4968 368.6502,202.29477 364.72853,202.81716 C361.36711,203.26492 358.02977,204.24491 354.79824,205.62494 C353.18248,206.31496 351.59318,207.10499 349.99666,208.00202 C348.40014,208.89906 346.7964,209.90311 345.21114,210.7607 C342.04061,212.47588 338.94396,213.60523 336.0372,215.10584 C335.06828,215.60605 334.12045,216.1475 333.26327,216.8412 C332.40608,217.53489 331.63953,218.38083 331.09356,219.36465 C330.2746,220.84039 329.95196,222.62638 330.16135,224.32677 C330.37074,226.02715 331.11214,227.64193 332.06452,229.09899 C333.01691,230.55604 334.18026,231.85537 335.36523,233.1303 C337.73517,235.68015 340.19159,238.1324 342.65826,240.64403 C345.12492,243.15566 347.60184,245.72667 350.43398,247.84619 C353.73814,250.31895 357.5258,252.17718 361.50864,252.99026 C364.9225,253.68719 368.47977,253.61626 371.84859,252.8067 C375.21741,251.99713 378.39778,250.44893 381.0919,248.2989 C383.78601,246.14887 385.99386,243.39702 387.54171,240.35105" id="mode-5 position-2" class="data contour"/>
		<text font-size="14" class="shapemode label" text-anchor="middle" x="361.60218" y="454.5">Shape Mode 5</text>
		<text font-size="12" class="shapemode label" text-anchor="middle" x="361.60218" y="467"> (2.5% of total variance)</text>
	</g>
	<g id="Shape Mode 6" class="layer">
		<path d="M 457.9184 239.51551 C459.95764,236.006 461.26605,232.12959 461.82135,228.09072 C462.29732,224.62883 462.21999,221.04758 461.42173,217.61791 C460.62347,214.18824 459.10427,210.91016 456.83415,208.44745 C455.69909,207.2161 454.3763,206.18859 452.93007,205.45886 C451.48384,204.72912 449.91417,204.29715 448.32287,204.13698 C446.20112,203.92342 444.04091,204.19306 441.90448,204.62872 C440.30215,204.95547 438.7132,205.37559 437.07873,205.79785 C433.80979,206.64235 430.35877,207.49535 426.80769,208.10857 C425.03216,208.41518 423.2316,208.66184 421.47703,208.85814 C419.72245,209.05444 418.01385,209.20036 416.34957,209.45582 C414.68529,209.71128 413.06534,210.07627 411.5235,210.73328 C409.98166,211.39028 408.51793,212.33931 407.32986,213.59064 C405.74576,215.25908 404.65172,217.46496 404.18999,219.75712 C403.84368,221.47624 403.85305,223.24391 404.05464,224.95215 C404.45782,228.36863 405.62989,231.54742 407.19184,234.56655 C408.75379,237.58568 410.70562,240.44515 412.87921,243.09019 C413.966,244.41271 415.10823,245.68163 416.35862,246.84883 C417.60902,248.01603 418.96759,249.08153 420.42,249.99969 C423.80897,252.14205 427.70889,253.48227 431.72733,253.80004 C435.1717,254.07241 438.70314,253.5936 442.02989,252.50187 C445.35664,251.41014 448.4787,249.7055 451.18216,247.48388 C453.88562,245.26226 456.17048,242.52367 457.9184,239.51551" id="mode-6 position--2" class="data contour"/>
		<path d="M 458.65118 239.9636 C462.58201,233.50924 463.66666,225.32964 461.4231,218.09502 C460.38761,214.75596 458.64316,211.61821 456.25523,209.22321 C453.86731,206.82821 450.83591,205.17597 447.67158,204.47343 C443.97985,203.65381 440.10718,204.12683 436.25496,204.89198 C432.95306,205.54782 429.66618,206.41827 426.32094,207.29526 C424.64833,207.73375 422.96112,208.17387 421.31738,208.5802 C419.67363,208.98654 418.07335,209.35909 416.50975,209.7873 C414.94614,210.21551 413.41921,210.69938 411.95403,211.38022 C410.48885,212.06106 409.08542,212.93887 407.90406,214.08521 C406.32892,215.61366 405.14855,217.61951 404.57143,219.7896 C404.13859,221.41717 404.04508,223.13712 404.16709,224.81691 C404.41113,228.17649 405.51731,231.3754 407.00945,234.40405 C408.5016,237.43271 410.37973,240.29111 412.61065,242.88478 C414.84157,245.47844 417.42529,247.80737 420.37824,249.5676 C423.82335,251.6212 427.77104,252.90073 431.82256,253.28861 C435.29529,253.62108 438.84431,253.29846 442.21925,252.3354 C448.96914,250.4093 455.02273,245.92146 458.65118,239.9636 z" id="mode-6 position--1" class="data contour"/>
		<path d="M 459.35148 240.39226 C461.54793,236.94176 462.88212,232.90332 463.1114,228.82418 C463.30792,225.32777 462.69266,221.80145 461.40416,218.56477 C460.11566,215.32808 458.15391,212.38102 455.67719,210.01337 C453.20048,207.64571 450.20879,205.85745 447.0237,204.82065 C443.30775,203.61106 439.32856,203.42428 435.46528,203.95321 C432.1539,204.40658 428.92769,205.38577 425.80247,206.5095 C422.67725,207.63322 419.65301,208.90147 416.68478,210.11934 C413.71654,211.3372 410.80429,212.50468 408.4872,214.58746 C406.94248,215.97597 405.66227,217.77129 404.96754,219.81941 C404.4465,221.3555 404.25479,223.03379 404.29188,224.68556 C404.36606,227.98911 405.35544,231.18658 406.79098,234.22757 C409.66207,240.30956 414.31783,245.76566 420.33509,249.12505 C426.85379,252.76439 434.97036,253.94302 442.41492,252.14991 C449.28683,250.49472 455.58614,246.30741 459.35148,240.39226 z" id="mode-6 position-0" class="data contour"/>
		<path d="M 460.08519 240.81569 C462.3602,237.38365 463.68164,233.29436 463.74601,229.20028 C463.80118,225.69107 462.93278,222.17834 461.40115,219.03376 C459.86951,215.88918 457.67464,213.11275 455.09226,210.79997 C453.80106,209.64357 452.41299,208.60309 450.95955,207.65368 C449.50611,206.70426 447.98729,205.8459 446.39107,205.14749 C442.66658,203.51787 438.52071,202.75907 434.65769,203.03977 C431.34653,203.28038 428.24317,204.2847 425.30676,205.69499 C422.37035,207.10527 419.6009,208.92151 416.84912,210.45 C414.09734,211.97848 411.36322,213.2192 409.05513,215.1098 C407.51641,216.37019 406.16702,217.91942 405.35255,219.83474 C404.7417,221.27124 404.43174,222.91366 404.38633,224.54493 C404.2955,227.80747 405.26287,231.0254 406.63757,234.07384 C408.01227,237.12228 409.79429,240.00123 412.09215,242.48642 C414.39001,244.97161 417.20371,247.06303 420.30009,248.67829 C427.0089,252.17802 435.04473,253.44242 442.59203,251.93794 C446.07539,251.24357 449.4547,249.95937 452.46964,248.08784 C455.48459,246.21631 458.13518,243.75744 460.08519,240.81569" id="mode-6 position-1" class="data contour"/>
		<path d="M 460.80991 241.2514 C463.16637,237.84782 464.48609,233.682 464.38594,229.56854 C464.30009,226.04271 463.17107,222.55536 461.3951,219.50696 C459.61914,216.45856 457.19623,213.84911 454.51258,211.57999 C453.17076,210.44542 451.76375,209.39594 450.30419,208.38167 C448.84462,207.3674 447.33251,206.38834 445.73664,205.50738 C443.60881,204.33276 441.33209,203.33253 439.01347,202.74493 C437.27451,202.30423 435.51197,202.09564 433.84322,202.12812 C430.50572,202.1931 427.54334,203.22241 424.81204,204.88964 C422.08074,206.55688 419.58052,208.86205 417.01863,210.76388 C415.73768,211.71479 414.44132,212.56487 413.19952,213.32617 C411.95773,214.08748 410.7705,214.76001 409.63309,215.58982 C408.11655,216.69623 406.68857,218.08225 405.74289,219.8722 C405.03363,221.21467 404.59567,222.78434 404.47524,224.39164 C404.35481,225.99894 404.55192,227.64386 404.91393,229.24138 C405.27594,230.8389 405.80285,232.38902 406.44674,233.90617 C407.73452,236.94046 409.49021,239.84284 411.83329,242.2849 C414.17636,244.72696 417.10682,246.7087 420.26907,248.2452 C423.95836,250.03779 427.96316,251.22435 432.08941,251.79492 C435.62619,252.28398 439.25221,252.32046 442.79002,251.75979 C446.32783,251.19912 449.77745,250.04128 452.89301,248.28369 C456.00857,246.5261 458.79008,244.16876 460.80991,241.2514" id="mode-6 position-2" class="data contour"/>
		<text font-size="14" class="shapemode label" text-anchor="middle" x="434.16261" y="454.5">Shape Mode 6</text>
		<text font-size="12" class="shapemode label" text-anchor="middle" x="434.16261" y="467"> (2.4% of total variance)</text>
	</g>
	<g id="Shape Mode 7" class="layer">
		<path d="M 530.71728 238.65985 C533.05118,235.33717 534.79779,231.57891 535.24813,227.65214 C535.63412,224.28634 535.06775,220.79674 533.63017,217.81114 C532.19259,214.82555 529.8838,212.34395 527.26367,210.50469 C524.64353,208.66542 521.71205,207.46849 518.67985,206.41747 C516.65839,205.71678 514.59217,205.08094 512.39565,204.58271 C510.74826,204.20904 509.02758,203.91278 507.30049,203.75739 C505.57339,203.602 503.83988,203.58748 502.14886,203.76086 C500.45784,203.93423 498.8093,204.29551 497.22634,204.83774 C495.64338,205.37996 494.12599,206.10314 492.66585,207.01568 C491.20572,207.92823 489.80283,209.03014 488.41171,210.06453 C487.0206,211.09892 485.64126,212.06578 484.32593,212.85937 C483.01059,213.65296 481.75926,214.27329 480.52738,214.98508 C479.70612,215.4596 478.89351,215.97478 478.14394,216.61902 C477.39437,217.26326 476.70784,218.03656 476.20894,218.93669 C475.4606,220.28689 475.13441,221.92244 475.2274,223.54195 C475.32039,225.16146 475.83257,226.76492 476.49416,228.28843 C477.15575,229.81194 477.96675,231.25551 478.78747,232.74304 C480.4289,235.71811 482.10915,238.86906 484.1375,241.92597 C486.16585,244.98288 488.54229,247.94574 491.50426,250.08837 C494.95988,252.58811 499.21247,253.97142 503.48498,254.09896 C507.14713,254.20829 510.82391,253.39501 514.221,251.98539 C517.61808,250.57576 520.73548,248.56979 523.51016,246.30281 C526.28484,244.03584 528.7168,241.50786 530.71728,238.65985" id="mode-7 position--2" class="data contour"/>
		<path d="M 530.87523 239.34394 C533.13993,235.95496 534.66359,232.06628 535.00601,228.06383 C535.29952,224.63316 534.72518,221.11892 533.35761,218.00787 C531.99004,214.89683 529.82924,212.189 527.28982,210.0852 C524.75039,207.9814 521.83233,206.48163 518.70665,205.43523 C511.93434,203.16804 504.18738,203.02918 497.35046,205.47171 C494.19495,206.59904 491.23331,208.27625 488.37072,209.90247 C486.93943,210.71558 485.5329,211.51594 484.18544,212.26785 C482.83797,213.01975 481.54957,213.72319 480.339,214.60437 C478.72492,215.77929 477.24922,217.27018 476.42059,219.19173 C475.79912,220.63288 475.54163,222.31628 475.59915,223.95061 C475.71417,227.21928 477.0892,230.29173 478.64329,233.31973 C480.19737,236.34773 481.93051,239.33129 484.07184,242.12242 C486.21317,244.91355 488.76271,247.51225 491.7585,249.43136 C495.2536,251.67033 499.35612,252.9843 503.52907,253.2683 C507.10588,253.51174 510.73443,252.99847 514.14869,251.88166 C517.56294,250.76486 520.76289,249.04453 523.60567,246.91551 C526.44845,244.78649 528.93406,242.24878 530.87523,239.34394 z" id="mode-7 position--1" class="data contour"/>
		<path d="M 531.01692 240.03726 C533.21337,236.58676 534.54756,232.54832 534.77684,228.46917 C534.97336,224.97276 534.3581,221.44644 533.0696,218.20976 C531.7811,214.97307 529.81935,212.02602 527.34263,209.65836 C524.86592,207.2907 521.87423,205.50244 518.68914,204.46565 C514.97319,203.25605 510.994,203.06928 507.13072,203.59821 C503.81934,204.05157 500.59313,205.03077 497.46791,206.15449 C494.34269,207.27821 491.31845,208.54646 488.35022,209.76433 C485.38198,210.98219 482.46973,212.14967 480.15264,214.23245 C478.60792,215.62097 477.32771,217.41629 476.63298,219.46441 C476.11194,221.0005 475.92023,222.67879 475.95732,224.33056 C476.0315,227.6341 477.02088,230.83157 478.45642,233.87256 C481.32751,239.95455 485.98327,245.41065 492.00053,248.77004 C498.51923,252.40939 506.6358,253.58801 514.08036,251.7949 C520.95227,250.13972 527.25158,245.9524 531.01692,240.03726 z" id="mode-7 position-0" class="data contour"/>
		<path d="M 531.18501 240.71233 C533.31385,237.18882 534.41343,233.03744 534.53007,228.88631 C534.63004,225.32821 534.00787,221.77029 532.79544,218.40494 C531.58302,215.03958 529.78034,211.86678 527.3767,209.23695 C524.97306,206.60712 521.96844,204.52026 518.70095,203.48975 C516.52263,202.80274 514.22746,202.58523 511.98827,202.71226 C510.30888,202.80753 508.66098,203.09661 507.04576,203.51472 C503.81531,204.35092 500.7156,205.7032 497.59735,206.82295 C494.4791,207.94269 491.34232,208.8299 488.31059,209.63998 C486.79472,210.04501 485.30512,210.43076 483.87818,211.08311 C482.45124,211.73547 481.08696,212.65442 479.96279,213.85388 C478.4639,215.45315 477.39187,217.5511 476.82583,219.72695 C476.4013,221.35884 476.2614,223.03455 476.28426,224.70852 C476.32997,228.05646 477.0267,231.39742 478.33624,234.4458 C479.64578,237.49418 481.56811,240.24998 483.95787,242.53855 C486.34763,244.82713 489.20482,246.64848 492.25762,248.10611 C495.81923,249.80667 499.64709,251.01216 503.62431,251.61484 C507.03337,252.13142 510.55216,252.20512 513.99947,251.67053 C517.44679,251.13594 520.82263,249.99306 523.801,248.14219 C526.77938,246.29133 529.3603,243.73248 531.18501,240.71233 z" id="mode-7 position-1" class="data contour"/>
		<path d="M 531.32432 241.39765 C532.51654,239.34479 533.35213,237.06412 533.81034,234.70051 C534.154,232.92779 534.28539,231.10842 534.27394,229.29845 C534.25105,225.6785 533.65684,222.09613 532.52932,218.60272 C531.4018,215.10931 529.74098,211.70486 527.40629,208.81411 C525.0716,205.92337 522.06304,203.54633 518.71441,202.51277 C516.48199,201.82373 514.09843,201.7318 511.84605,202.08243 C510.15677,202.34541 508.54128,202.85734 506.96501,203.46393 C503.81248,204.6771 500.81686,206.26892 497.72069,207.45885 C496.1726,208.05382 494.59937,208.54831 493.01144,208.85548 C491.42351,209.16265 489.82087,209.28249 488.26394,209.46023 C486.707,209.63797 485.19577,209.8736 483.74302,210.49448 C482.29027,211.11537 480.89599,212.12151 479.77974,213.47424 C479.03558,214.37606 478.41498,215.43193 477.96705,216.55275 C477.51911,217.67357 477.24384,218.85935 477.04904,220.01193 C476.75686,221.7408 476.64575,223.39498 476.63456,225.0807 C476.61217,228.45214 476.98942,231.94976 478.18362,235.01412 C479.37782,238.07848 481.38897,240.70958 483.90033,242.74401 C486.4117,244.77844 489.42329,246.21621 492.50646,247.44456 C496.10349,248.87764 499.79794,250.02569 503.67367,250.7873 C506.99573,251.4401 510.45097,251.80899 513.91996,251.56551 C517.38896,251.32203 520.87172,250.46618 523.90847,248.7549 C526.94523,247.04363 529.53598,244.47693 531.32432,241.39765 z" id="mode-7 position-2" class="data contour"/>
		<text font-size="14" class="shapemode label" text-anchor="middle" x="505.30192" y="454.5">Shape Mode 7</text>
		<text font-size="12" class="shapemode label" text-anchor="middle" x="505.30192" y="467"> (1.7% of total variance)</text>
	</g>
	<g id="Shape Mode 8" class="layer">
		<path d="M 602.46585 240.21166 C603.82202,238.40917 604.8461,236.33155 605.42957,234.15195 C605.86717,232.51725 606.05691,230.82519 606.01754,229.13869 C605.93878,225.76568 604.94351,222.41488 603.49226,219.30775 C602.04101,216.20063 600.13377,213.33717 597.88911,210.64569 C595.64445,207.95422 593.06237,205.43472 589.97354,203.88522 C587.91432,202.85221 585.62989,202.25031 583.38244,202.20598 C581.69686,202.17274 580.03208,202.45313 578.41387,202.90564 C575.17745,203.81066 572.12727,205.40417 569.00728,207.02501 C565.88728,208.64586 562.69746,210.29403 559.45023,211.11415 C556.20299,211.93426 552.89835,211.92631 550.10986,213.47543 C549.18036,213.9918 548.30821,214.68118 547.65656,215.56649 C547.00491,216.4518 546.57375,217.53304 546.37476,218.65562 C546.07629,220.33949 546.30021,222.11635 546.75129,223.81386 C547.20238,225.51136 547.88063,227.1295 548.53579,228.745 C549.19094,230.3605 549.82301,231.97336 550.44537,233.63729 C551.69009,236.96515 552.89601,240.49731 554.84834,243.48639 C556.80066,246.47547 559.49938,248.92148 562.64351,250.4028 C566.31166,252.131 570.58605,252.54615 574.73048,252.31194 C578.28284,252.11119 581.73973,251.43336 585.08018,250.48264 C588.42063,249.53192 591.64464,248.30831 594.64738,246.65418 C597.65012,245.00005 600.43159,242.91539 602.46585,240.21166 z" id="mode-8 position--2" class="data contour"/>
		<path d="M 602.25428 240.19992 C604.52915,236.89605 605.81856,232.89457 605.89986,228.8868 C605.96955,225.45157 605.15165,222.01173 603.7779,218.83935 C602.40415,215.66698 600.47454,212.76208 598.11651,210.23319 C595.75849,207.7043 592.97205,205.55143 589.83159,204.25651 C587.73796,203.39324 585.48698,202.91127 583.2527,202.85101 C581.57699,202.80581 579.91068,202.99782 578.27528,203.33763 C575.00448,204.01725 571.85734,205.2881 568.73434,206.66401 C565.61135,208.03991 562.51251,209.52087 559.40187,210.52992 C556.29123,211.53896 553.16878,212.07609 550.63902,213.93549 C548.95251,215.17509 547.52943,217.00237 546.9716,219.11996 C546.55323,220.70816 546.62157,222.45965 546.87281,224.14953 C547.37527,227.5293 548.6093,230.66264 549.97139,233.83651 C551.33347,237.01039 552.82362,240.2248 554.92567,242.99273 C557.02772,245.76067 559.74167,248.08213 562.8289,249.66521 C566.43067,251.51214 570.54051,252.35405 574.65028,252.45912 C578.17295,252.54919 581.69557,252.09791 585.07995,251.20958 C588.46433,250.32126 591.71047,248.9959 594.67048,247.17354 C597.6305,245.35117 600.3044,243.03181 602.25428,240.19992" id="mode-8 position--1" class="data contour"/>
		<path d="M 602.01627 240.19948 C604.21272,236.74898 605.54691,232.71054 605.77619,228.63139 C605.97271,225.13498 605.35745,221.60867 604.06895,218.37198 C602.78045,215.1353 600.8187,212.18824 598.34198,209.82058 C595.86527,207.45293 592.87358,205.66467 589.68849,204.62787 C585.97254,203.41827 581.99335,203.2315 578.13007,203.76043 C574.81869,204.2138 571.59248,205.19299 568.46726,206.31671 C565.34204,207.44043 562.3178,208.70869 559.34957,209.92655 C556.38133,211.14442 553.46908,212.31189 551.15199,214.39467 C549.60727,215.78319 548.32706,217.57851 547.63233,219.62663 C547.11128,221.16272 546.91958,222.84101 546.95667,224.49278 C547.03085,227.79632 548.02023,230.99379 549.45577,234.03479 C552.32686,240.11678 556.98262,245.57287 562.99988,248.93227 C569.51858,252.57161 577.63514,253.75024 585.07971,251.95712 C591.95162,250.30194 598.25093,246.11462 602.01627,240.19948" id="mode-8 position-0" class="data contour"/>
		<path d="M 601.80329 240.18297 C603.92276,236.57292 605.26169,232.52637 605.63708,228.38475 C605.95884,224.8348 605.5727,221.215 604.36968,217.90426 C603.16665,214.59353 601.14674,211.59186 598.55656,209.40007 C595.96638,207.20828 592.80593,205.82638 589.56102,205.01641 C585.77529,204.07145 581.87461,203.90495 577.99034,204.21155 C574.66097,204.47435 571.34366,205.08473 568.20169,205.94454 C565.05971,206.80435 562.09308,207.91358 559.28459,209.34571 C556.47609,210.77783 553.82573,212.53285 551.69374,214.83592 C550.27241,216.37129 549.08147,218.15024 548.24057,220.1323 C547.6099,221.61885 547.17613,223.21964 547.02008,224.83432 C546.70797,228.06366 547.50675,231.3485 548.99794,234.25303 C550.48914,237.15756 552.67276,239.68179 555.10682,241.9932 C557.54089,244.30461 560.22539,246.40321 563.1843,248.19671 C566.63637,250.28913 570.46193,251.96628 574.50309,252.74824 C577.96694,253.41849 581.5892,253.43105 585.06614,252.66749 C588.54308,251.90394 591.8747,250.36426 594.73558,248.2076 C597.59646,246.05095 599.98661,243.27731 601.80329,240.18297" id="mode-8 position-1" class="data contour"/>
		<path d="M 601.57758 240.17188 C603.62006,236.4098 604.98459,232.35001 605.50614,228.13715 C605.95318,224.52613 605.78088,220.80265 604.6644,217.42975 C603.54792,214.05686 601.48725,211.03454 598.77898,208.99747 C596.07071,206.9604 592.71484,205.90857 589.42161,205.37225 C587.22613,205.01471 585.05848,204.88627 582.85539,204.77742 C581.20307,204.69577 579.53082,204.62514 577.84825,204.63148 C574.48312,204.64417 571.07675,204.96478 567.93219,205.59031 C564.78762,206.21585 561.90486,207.14631 559.22919,208.75649 C557.89136,209.56158 556.6053,210.5366 555.4339,211.6551 C554.26251,212.77361 553.20578,214.03559 552.24016,215.30965 C550.95266,217.00839 549.82711,218.7286 548.85782,220.62561 C548.13085,222.04837 547.49177,223.57058 547.12638,225.16202 C546.76099,226.75346 546.66928,228.41414 546.91022,229.99564 C547.15115,231.57714 547.72474,233.07946 548.5214,234.45036 C550.11472,237.19218 552.60034,239.40837 555.18808,241.50148 C557.77582,243.5946 560.46568,245.56463 563.36644,247.45849 C566.75065,249.668 570.42191,251.77382 574.42639,252.89576 C577.8588,253.85741 581.53602,254.09622 585.06064,253.39451 C588.58527,252.6928 591.95731,251.05058 594.76772,248.72651 C597.57812,246.40244 599.82689,243.39652 601.57758,240.17188" id="mode-8 position-2" class="data contour"/>
		<text font-size="14" class="shapemode label" text-anchor="middle" x="576.11118" y="454.5">Shape Mode 8</text>
		<text font-size="12" class="shapemode label" text-anchor="middle" x="576.11118" y="467"> (1.4% of total variance)</text>
	</g>
	<g id="scale bar" class="layer">
		<g id="scalebar lines">
			<line id="scalebar" class="scalebar" x1="30" x2="72.472175" y1="480" y2="480"/>
			<line id="scalebar left tic" class="scalebar tic" x1="30" x2="30" y1="478.5" y2="481.5"/>
			<line id="scalebar right tic" class="scalebar tic" x1="72.472175" x2="72.472175" y1="478.5" y2="481.5"/>
		</g>
		<text font-size="12" class="scalebar label" text-anchor="middle" x="51.236088" y="493.5">100 pixels</text>
	</g>
	<g id="legend" class="layer">
		<g id="-2 s.d. row">
			<line id="position--2" class="data legend" x1="550" x2="600" y1="19" y2="19"/>
			<text font-size="12" class="legend label" text-anchor="start" x="603" y="22">-2 s.d.</text>
		</g>
		<g id="-1 s.d. row">
			<line id="position--1" class="data legend" x1="550" x2="600" y1="34" y2="34"/>
			<text font-size="12" class="legend label" text-anchor="start" x="603" y="37">-1 s.d.</text>
		</g>
		<g id="mean row">
			<line id="position-0" class="data legend" x1="550" x2="600" y1="49" y2="49"/>
			<text font-size="12" class="legend label" text-anchor="start" x="603" y="52">mean</text>
		</g>
		<g id="1 s.d. row">
			<line id="position-1" class="data legend" x1="550" x2="600" y1="64" y2="64"/>
			<text font-size="12" class="legend label" text-anchor="start" x="603" y="67">1 s.d.</text>
		</g>
		<g id="2 s.d. row">
			<line id="position-2" class="data legend" x1="550" x2="600" y1="79" y2="79"/>
			<text font-size="12" class="legend label" text-anchor="start" x="603" y="82">2 s.d.</text>
		</g>
	</g>
	<g id="title" class="layer">
		<text font-size="14" class="plot title" text-anchor="middle" x="320" y="14">trainModel</text>
	</g>
</svg>
